<?xml version="1.0" ?><!DOCTYPE svg  PUBLIC '-//W3C//DTD SVG 1.1//EN'  'http://www.w3.org/Graphics/SVG/1.1/DTD/svg11.dtd'><svg enable-background="new 0 0 150 150" height="150px" id="Layer_1" version="1.1" viewBox="0 0 150 150" width="150px" xml:space="preserve" xmlns="http://www.w3.org/2000/svg" xmlns:xlink="http://www.w3.org/1999/xlink"><circle cx="75.012" cy="74.998" fill="#CFDE63" r="75"/><path d="M149.652,82.307l-32.887-46.843l-20.098-0.305l-9.777-14.006l-56.035,97.112l40.582,31.643  c1.186,0.056,2.376,0.091,3.576,0.091C113.971,149.999,145.979,120.298,149.652,82.307z" fill="#231F20" opacity="0.05"/><path d="M112.049,53.307H33.881c-2.404,0-4.353,0.473-4.353,2.353c0,3.564,4.353,3.564,4.353,3.564h82.167v-1.917  C116.049,55.106,114.25,53.307,112.049,53.307z" fill="#998359"/><g><polygon fill="#398741" points="81.658,62.229 76.07,32.368 34.12,40.218 38.239,62.229  "/><path d="M55.853,62.229c1.234-0.491,2.531-0.873,3.886-1.127c4.026-0.753,7.994-0.287,11.535,1.127h6.139   l-3.621-19.349c-2.771-0.587-5.215-2.26-6.766-4.632L44.68,42.431c-0.588,2.772-2.26,5.214-4.633,6.765l2.439,13.034H55.853z    M57.387,48.537c1.413-0.266,2.775,0.665,3.041,2.079c0.263,1.415-0.671,2.774-2.083,3.042c-1.413,0.264-2.776-0.668-3.04-2.082   C55.04,50.161,55.971,48.8,57.387,48.537z" fill="#40A749"/></g><g><polygon fill="#398741" points="92.182,62.199 86.891,21.153 44.563,26.609 49.152,62.199  "/><path d="M84.02,31.521c-2.732-0.744-5.078-2.553-6.492-5.009L54.98,29.418c-0.744,2.734-2.553,5.077-5.01,6.491   l3.114,24.154c3.034-5.887,8.807-10.237,15.871-11.148s13.75,1.833,18.177,6.757L84.02,31.521z M67.986,41.402   c-1.426,0.184-2.733-0.823-2.917-2.251c-0.184-1.427,0.823-2.733,2.251-2.916c1.426-0.185,2.733,0.821,2.918,2.249   C70.421,39.912,69.412,41.216,67.986,41.402z" fill="#40A749"/></g><g><polygon fill="#398741" points="109.326,62.229 116.766,35.464 75.648,24.032 65.03,62.229  "/><path d="M89.447,54.066c4.861,1.352,8.828,4.323,11.5,8.163h4.047l5.096-18.331   c-2.229-1.748-3.686-4.326-4.033-7.139l-21.904-6.089c-1.748,2.229-4.326,3.685-7.139,4.032l-6.523,23.464   C75.574,53.924,82.584,52.159,89.447,54.066z M89.664,43.562c0.385-1.388,1.82-2.198,3.207-1.812   c1.387,0.384,2.199,1.819,1.814,3.206c-0.387,1.387-1.824,2.196-3.209,1.812C90.09,46.384,89.277,44.947,89.664,43.562z" fill="#40A749"/></g><path d="M115.049,57.699H33.881c-2,0-4.353-0.799-4.353-2.353v60.58c0,1.975,2.083,3.194,4.353,3.194h81.167  c2.201,0,4-1.8,4-4V61.699C119.049,59.499,117.25,57.699,115.049,57.699z" fill="#B99E65"/><polygon fill="#231F20" opacity="0.1" points="110.586,57.699 110.994,56.228 37.125,56.228 37.401,57.699 "/><g><rect fill="#998359" height="1" width="4.473" x="60.011" y="62.199"/><rect fill="#998359" height="1" width="4.473" x="72.957" y="62.199"/><rect fill="#998359" height="1" width="4.473" x="66.484" y="62.199"/><rect fill="#998359" height="1" width="4.473" x="40.593" y="113.621"/><rect fill="#998359" height="1" width="4.473" x="47.066" y="62.199"/><rect fill="#998359" height="1" width="4.473" x="53.539" y="62.199"/><rect fill="#998359" height="1" width="4.473" x="47.066" y="113.621"/><rect fill="#998359" height="1" width="4.473" x="40.593" y="62.199"/><rect fill="#998359" height="1" width="4.473" x="34.12" y="62.199"/><rect fill="#998359" height="1" width="4.473" x="79.43" y="62.199"/><rect fill="#998359" height="1" width="4.473" x="92.375" y="62.199"/><rect fill="#998359" height="1" width="4.473" x="98.848" y="62.199"/><rect fill="#998359" height="1" width="4.473" x="85.902" y="62.199"/><rect fill="#998359" height="1" width="4.473" x="85.902" y="113.621"/><rect fill="#998359" height="1" width="4.473" x="105.32" y="113.621"/><rect fill="#998359" height="1" width="4.473" x="105.32" y="62.199"/><path d="M29.531,111.906h-0.002v1.44c0.539,0.435,1.365,0.857,2.591,1.09v-1.015   C29.995,112.973,29.532,111.911,29.531,111.906z" fill="#998359"/><path d="M29.529,60.318v1.554c0.542,0.475,1.368,0.934,2.591,1.167v-1.013   C30.027,61.573,29.536,60.381,29.529,60.318z" fill="#998359"/><rect fill="#998359" height="4.473" width="1" x="113.549" y="105.569"/><polygon fill="#998359" points="113.549,113.621 111.793,113.621 111.793,114.621 114.549,114.621 114.549,112.042    113.549,112.042  "/><polygon fill="#998359" points="114.549,62.199 111.793,62.199 111.793,63.199 113.549,63.199 113.549,64.733 114.549,64.733  "/><rect fill="#998359" height="4.473" width="1" x="113.549" y="73.206"/><rect fill="#998359" height="4.473" width="1" x="113.549" y="99.097"/><rect fill="#998359" height="4.473" width="1" x="113.549" y="79.679"/><rect fill="#998359" height="4.473" width="1" x="113.549" y="66.733"/><rect fill="#998359" height="4.473" width="1" x="113.549" y="92.624"/><rect fill="#998359" height="4.473" width="1" x="113.549" y="86.151"/><path d="M34.12,113.619v0.999c0.027,0.001,0.051,0.003,0.079,0.003h4.394v-1h-4.394   C34.171,113.621,34.147,113.619,34.12,113.619z" fill="#998359"/><rect fill="#998359" height="1" width="4.473" x="72.957" y="113.621"/><rect fill="#998359" height="1" width="4.473" x="66.484" y="113.621"/><rect fill="#998359" height="1" width="4.473" x="53.539" y="113.621"/><rect fill="#998359" height="1" width="4.473" x="60.011" y="113.621"/><rect fill="#998359" height="1" width="4.473" x="98.848" y="113.621"/><rect fill="#998359" height="1" width="4.473" x="92.375" y="113.621"/><rect fill="#998359" height="1" width="4.473" x="79.43" y="113.621"/></g><g opacity="0.08"><path d="M115.049,57.699h-40.76v61.422h40.76c2.201,0,4-1.8,4-4V61.699   C119.049,59.499,117.25,57.699,115.049,57.699z" fill="#231F20"/></g><path d="M107.842,82.494c-4.414,0-7.992,3.579-7.992,7.993c0,4.415,3.578,7.993,7.992,7.993h11.207  V82.494H107.842z" fill="#231F20" opacity="0.08"/><path d="M107.842,80.494c-4.414,0-7.992,3.579-7.992,7.993c0,4.415,3.578,7.993,7.992,7.993h12.654V80.494H107.842z" fill="#806F4E"/><circle cx="107.665" cy="88.487" fill="#D9DFE3" r="4.128"/><path d="M109.9,85.024c0.416,0.645,0.664,1.409,0.664,2.234c0,2.28-1.848,4.128-4.127,4.128  c-0.826,0-1.59-0.248-2.234-0.665c0.734,1.137,2.008,1.894,3.463,1.894c2.279,0,4.127-1.848,4.127-4.128  C111.793,87.033,111.037,85.76,109.9,85.024z" fill="#BAC4CB"/></svg>