<?xml version="1.0" encoding="utf-8"?>
<!-- Generator: Adobe Illustrator 18.1.0, SVG Export Plug-In . SVG Version: 6.00 Build 0)  -->
<svg version="1.1" id="Layer_1" xmlns="http://www.w3.org/2000/svg" xmlns:xlink="http://www.w3.org/1999/xlink" x="0px" y="0px"
	 viewBox="-228 319 155 155" enable-background="new -228 319 155 155" xml:space="preserve">
<g>
	<circle fill="#FFD55C" cx="-150.5" cy="396.5" r="77.5"/>
	<g>
		<g>
			<g>
				<g>
					<g>
						<polygon fill="#E6E5E5" points="-135.8,443.6 -163.9,443.6 -161.3,429.2 -138.3,429.2 						"/>
						<polygon fill="#D9D8D7" points="-135.8,443.6 -138.3,429.2 -161.3,429.2 -143,443.6 						"/>
						<path fill="#FFFFFF" d="M-128.3,445.7h-43.2v-0.8c0-0.3,0.1-0.7,0.4-0.9c0.3-0.3,0.6-0.4,0.9-0.4h40.5c0.3,0,0.7,0.1,0.9,0.4
							c0.3,0.3,0.4,0.6,0.4,0.9L-128.3,445.7L-128.3,445.7z"/>
					</g>
					<path fill="#FFFFFF" d="M-99.2,420v6.8c0,1.4-1.1,2.5-2.5,2.5H-198c-1.3,0-2.5-1.1-2.5-2.5V420H-99.2z"/>
					<path fill="#242D3C" d="M-99.2,420v-64.6c0-1.4-1.1-2.5-2.5-2.5H-198c-1.4,0-2.5,1.1-2.5,2.5V420C-200.5,420-99.2,420-99.2,420
						z"/>
				</g>
				<g>
					<rect x="-195.4" y="358" fill="#FFFFFF" width="91" height="56.9"/>
					<rect x="-191.6" y="361.2" fill="#FFC640" width="25.2" height="7.5"/>
					<rect x="-162.4" y="361.2" fill="#FFC640" width="54.9" height="7.5"/>
					<rect x="-192.2" y="403.7" fill="#D9D8D7" width="84.6" height="2.5"/>
					<rect x="-192.2" y="409.2" fill="#D9D8D7" width="84.6" height="2.5"/>
					<rect x="-192.2" y="386.4" fill="#FF6D3B" width="25.2" height="14.4"/>
					<rect x="-162.4" y="386.4" fill="#FF6D3B" width="25.2" height="14.4"/>
					<rect x="-132.7" y="386.4" fill="#FF6D3B" width="25.2" height="14.4"/>
					<rect x="-192.2" y="371.7" fill="#D9D8D7" width="84.6" height="11.8"/>
				</g>
			</g>
			<g>
				<path fill="#242D3C" d="M-143,405.6c0-1.1,0.9-1.9,2-1.9h32c1.1,0,2,0.9,2,1.9v48.2c0,1.1-0.9,1.9-2,1.9h-32c-1.1,0-2-0.9-2-1.9
					V405.6z"/>
				<path fill="#3E4959" d="M-127,453.5c-0.5,0-0.9-0.4-0.9-0.9v-0.2c0-0.5,0.4-0.9,0.9-0.9h4c0.5,0,0.9,0.4,0.9,0.9v0.2
					c0,0.5-0.4,0.9-0.9,0.9H-127z"/>
				<path fill="#3E4959" d="M-125.1,407.1c-0.5,0-0.9-0.4-0.9-0.9c0-0.5,0.4-0.9,0.9-0.9c0.5,0,0.9,0.4,0.9,0.9
					C-124.2,406.7-124.6,407.1-125.1,407.1z"/>
				<path fill="#242D3C" d="M-125.1,406.5c-0.2,0-0.4-0.2-0.4-0.4c0-0.2,0.2-0.4,0.4-0.4c0.2,0,0.4,0.2,0.4,0.4
					C-124.7,406.4-124.9,406.5-125.1,406.5z"/>
				<g>
					<rect x="-141" y="408.7" fill="#FFFFFF" width="31.8" height="40.7"/>
					<rect x="-138.6" y="411" fill="#FFC640" width="12.4" height="4.8"/>
					<rect x="-123.9" y="411" fill="#FFC640" width="12.5" height="4.8"/>
					<rect x="-138.6" y="442" fill="#D9D8D7" width="27.2" height="1.6"/>
					<rect x="-138.6" y="445.5" fill="#D9D8D7" width="27.2" height="1.6"/>
					<rect x="-138.6" y="428.5" fill="#FF6D3B" width="12.4" height="11.6"/>
					<rect x="-123.9" y="428.5" fill="#FF6D3B" width="12.5" height="11.6"/>
					<rect x="-138.6" y="417.7" fill="#D9D8D7" width="27.2" height="8.8"/>
				</g>
			</g>
			<g>
				<path fill="#242D3C" d="M-149.3,411.7h-17c-1.6,0-2.9,1.3-2.9,2.9v36.1c0,1.6,1.3,2.9,2.9,2.9h17c1.6,0,2.9-1.3,2.9-2.9v-36.1
					C-146.4,413.1-147.7,411.7-149.3,411.7z"/>
				<g>
					<rect x="-167.5" y="418.1" fill="#FFFFFF" width="19.5" height="29.3"/>
					<rect x="-166" y="419.6" fill="#FFC640" width="16.5" height="2.5"/>
					<rect x="-166" y="443.2" fill="#D9D8D7" width="16.5" height="0.8"/>
					<rect x="-166" y="445" fill="#D9D8D7" width="16.5" height="0.8"/>
					<rect x="-166" y="429.3" fill="#FF6D3B" width="16.5" height="12.9"/>
					<rect x="-166" y="423.1" fill="#D9D8D7" width="16.5" height="5.2"/>
				</g>
				<path fill="#3E4959" d="M-159.6,451.4c-0.4,0-0.8-0.4-0.8-0.8v-0.2c0-0.4,0.4-0.8,0.8-0.8h3.6c0.4,0,0.8,0.4,0.8,0.8v0.2
					c0,0.4-0.4,0.8-0.8,0.8H-159.6z"/>
				<circle fill="#3E4959" cx="-157.8" cy="414.9" r="0.7"/>
				<circle fill="#242D3C" cx="-157.8" cy="414.9" r="0.3"/>
			</g>
		</g>
	</g>
</g>
</svg>
