<?xml version="1.0" ?><!DOCTYPE svg  PUBLIC '-//W3C//DTD SVG 1.1//EN'  'http://www.w3.org/Graphics/SVG/1.1/DTD/svg11.dtd'><svg enable-background="new 0 0 512 512" height="512px" id="Layer_1" version="1.1" viewBox="0 0 512 512" width="512px" xml:space="preserve" xmlns="http://www.w3.org/2000/svg" xmlns:xlink="http://www.w3.org/1999/xlink"><g><g><path d="M512,256c0,141.385-114.612,256-256,256c-6.425,0-12.772-0.229-19.098-0.694     C104.447,501.53,0,390.96,0,256C0,114.61,114.612,0,256,0c135.27,0,246.015,104.905,255.36,237.77     C511.795,243.785,512,249.88,512,256z" fill="#E05B49"/><g><path d="M512,256c0,141.385-114.612,256-256,256c-6.425,0-12.772-0.229-19.098-0.694      c0-0.13-118.353-117.375-120.32-117.375V117.45h279.04L511.36,237.77C511.795,243.785,512,249.88,512,256z" opacity="0.15"/><g><rect fill="#C9C7C8" height="276.795" width="276.795" x="117.595" y="117.605"/><g><g><rect fill="#363636" height="231.79" width="231.79" x="140.098" y="140.105"/><rect fill="#C9C7C8" height="219.27" width="219.742" x="148.893" y="148.9"/><rect fill="#FFFFFF" height="2.675" width="219.75" x="148.888" y="148.9"/><g><path d="M376.817,296.57v47.425c0,0.975-0.79,1.765-1.765,1.765h-9.45c-0.98,0-1.772-0.79-1.772-1.765          V296.57c0-0.98,0.792-1.77,1.772-1.77h9.45C376.027,294.8,376.817,295.59,376.817,296.57z" fill="#919091"/><path d="M368.038,343.995v-47.43c0-0.975,0.788-1.765,1.762-1.765h-4.202          c-0.975,0-1.765,0.79-1.765,1.765v47.43c0,0.975,0.79,1.765,1.765,1.765h4.202          C368.825,345.76,368.038,344.97,368.038,343.995z" fill="#FFFFFF" opacity="0.2"/><path d="M375.055,294.8h-2.292c0.975,0,1.765,0.79,1.765,1.765v47.43c0,0.975-0.79,1.765-1.765,1.765h2.292          c0.972,0,1.767-0.79,1.767-1.765v-47.43C376.822,295.59,376.027,294.8,375.055,294.8z" opacity="0.4"/><rect height="2.295" opacity="0.4" width="12.987" x="363.83" y="312.365"/><rect height="2.29" opacity="0.4" width="12.987" x="363.83" y="329.18"/><g><path d="M372.618,294.8h-4.585v-2.137c0-0.65,0.527-1.178,1.177-1.178h2.23c0.65,0,1.178,0.528,1.178,1.178           V294.8z" fill="#7E7D7E"/><path d="M371.442,291.485h-0.765c0.65,0,1.175,0.53,1.175,1.18v2.135h0.765v-2.135           C372.618,292.015,372.09,291.485,371.442,291.485z" opacity="0.2"/></g><g><path d="M372.618,345.76h-4.585v2.137c0,0.65,0.527,1.178,1.177,1.178h2.23c0.65,0,1.178-0.528,1.178-1.178           V345.76z" fill="#7E7D7E"/><path d="M371.853,345.76v2.13c0,0.65-0.525,1.18-1.175,1.18h0.765c0.647,0,1.175-0.53,1.175-1.18v-2.13           H371.853z" opacity="0.2"/></g></g><g><path d="M376.292,173.075v47.43c0,0.975-0.788,1.765-1.765,1.765h-9.45c-0.98,0-1.775-0.79-1.775-1.765          v-47.43c0-0.975,0.795-1.765,1.775-1.765h9.45C375.505,171.31,376.292,172.1,376.292,173.075z" fill="#919091"/><path d="M367.507,220.505v-47.43c0-0.975,0.792-1.765,1.765-1.765h-4.2          c-0.975,0-1.765,0.79-1.765,1.765v47.43c0,0.975,0.79,1.765,1.765,1.765h4.2C368.3,222.27,367.507,221.48,367.507,220.505z" fill="#FFFFFF" opacity="0.2"/><path d="M374.53,171.31h-2.292c0.975,0,1.765,0.79,1.765,1.765v47.43c0,0.975-0.79,1.765-1.765,1.765h2.292          c0.975,0,1.765-0.79,1.765-1.765v-47.43C376.295,172.1,375.505,171.31,374.53,171.31z" opacity="0.4"/><rect height="2.29" opacity="0.4" width="12.99" x="363.302" y="188.875"/><rect height="2.29" opacity="0.4" width="12.99" x="363.302" y="205.69"/><g><path d="M372.092,171.31h-4.583v-2.133c0-0.65,0.528-1.177,1.178-1.177h2.228           c0.65,0,1.177,0.527,1.177,1.177V171.31z" fill="#7E7D7E"/><path d="M370.915,168h-0.763c0.65,0,1.175,0.525,1.175,1.175v2.135h0.765v-2.135           C372.092,168.525,371.565,168,370.915,168z" opacity="0.2"/></g><g><path d="M372.092,222.27h-4.59v2.134c0,0.651,0.527,1.179,1.179,1.179h2.232           c0.651,0,1.179-0.527,1.179-1.179V222.27z" fill="#7E7D7E"/><path d="M371.328,222.27v2.13c0,0.655-0.525,1.18-1.175,1.18h0.763c0.65,0,1.177-0.525,1.177-1.18v-2.13           H371.328z" opacity="0.2"/></g></g></g><path d="M368.635,259.975V368.17H240.308l-33.56-34.505c-3.155-2.315-4.805-6.66-1.82-10.87        c0.575-0.825,1.155-1.645,1.728-2.46c-0.072-0.075-4.28-4.37-4.282-4.375c-17.175-17.17-24.565-40.41-22.205-62.815        c-0.55-0.47-1.015-1-1.38-1.575c-0.85-0.58-1.53-1.285-2.025-2.075c-0.85-0.575-1.52-1.28-2.02-2.065        c-6.568-4.44-2.313-16.615,6.78-14.12c1.035,0.275,2.075,0.56,3.115,0.835c3.76-10.025,9.665-19.435,17.735-27.495        c13.07-13.08,29.665-20.485,46.723-22.235v-3.14c-0.053-8.73,10.995-10.19,14.677-4.39c0.785,0.53,7.553,7.44,8.09,8.29        c0.18,0.12,0.358,0.25,0.525,0.385c14.395,2.905,28.13,9.92,39.292,21.09c0.527,0.525,1.037,1.065,1.55,1.61        c0,0,17.862,18.265,17.862,18.27c3.415-0.735,6.195,0.8,7.808,3.185C339.695,230.27,368.635,259.975,368.635,259.975z" opacity="0.1"/></g><g><g><path d="M202.368,315.96c30.185,30.185,79.125,30.185,109.313,0l-54.658-54.655L202.368,315.96z" fill="#363134"/><path d="M202.368,206.645c-30.185,30.185-30.185,79.13,0,109.315l54.655-54.655L202.368,206.645z" fill="#A9A9A9"/><path d="M311.68,315.96c30.185-30.185,30.185-79.13,0-109.315l-54.658,54.66L311.68,315.96z" fill="#908E90"/><path d="M202.368,206.645l54.655,54.66l54.658-54.66C281.495,176.46,232.552,176.46,202.368,206.645z" fill="#FFFFFF"/></g><path d="M323.962,261.305c0,36.965-29.97,66.94-66.938,66.94c-36.992,0-66.39-29.825-66.933-65.765        c-0.022-0.84-0.022-1.69,0-2.54c0.008-0.35,0.015-0.7,0.033-1.05c0.022-0.545,0.045-1.085,0.072-1.62        c0.055-0.855,0.118-1.695,0.2-2.535c3.303-33.89,31.875-60.38,66.627-60.38C293.993,194.355,323.962,224.335,323.962,261.305z        " fill="#DDDADB"/><path d="M207.208,259.94v2.54h-17.115c-0.022-0.84-0.022-1.69,0-2.54H207.208z" fill="#D92716"/><g><path d="M307.212,261.305c0,27.715-22.473,50.185-50.19,50.185c-27.715,0-50.185-22.47-50.185-50.185         c0-27.72,22.47-50.19,50.185-50.19C284.74,211.115,307.212,233.585,307.212,261.305z" fill="#525051"/><path d="M257.022,309.2c-27.333,0-49.545-21.855-50.155-49.045c-0.01,0.385-0.03,0.765-0.03,1.15         c0,27.715,22.47,50.185,50.185,50.185c27.717,0,50.19-22.47,50.19-50.185c0-0.385-0.025-0.765-0.032-1.15         C306.57,287.345,284.357,309.2,257.022,309.2z" fill="#FFFFFF"/><path d="M257.022,213.41c27.335,0,49.547,21.85,50.158,49.04c0.007-0.385,0.032-0.765,0.032-1.145         c0-27.72-22.473-50.19-50.19-50.19c-27.715,0-50.185,22.47-50.185,50.19c0,0.38,0.02,0.76,0.03,1.145         C207.478,235.26,229.69,213.41,257.022,213.41z"/></g><g><g><path d="M236.697,281.63c11.225,11.225,29.425,11.225,40.65,0l-20.325-20.325L236.697,281.63z" fill="#363134"/><path d="M236.697,240.98c-11.225,11.22-11.225,29.425,0,40.65l20.325-20.325L236.697,240.98z" fill="#A9A9A9"/><path d="M277.348,281.63c11.225-11.225,11.225-29.43,0-40.655l-20.325,20.33L277.348,281.63z" fill="#908E90"/><path d="M236.697,240.98l20.325,20.325l20.325-20.33C266.123,229.75,247.922,229.75,236.697,240.98z" fill="#FFFFFF"/></g><path d="M278.703,261.305c0,11.97-9.705,21.675-21.68,21.675c-11.973,0-21.68-9.705-21.68-21.675         c0-11.975,9.708-21.68,21.68-21.68C268.998,239.625,278.703,249.33,278.703,261.305z" fill="#BDBBBC"/><g><path d="M264.95,233.61c-2.928,7.06-12.928,7.06-15.855,0c0-17.445,0-34.89,0-52.335          c-0.068-10.495,15.922-10.495,15.855,0C264.95,198.72,264.95,216.165,264.95,233.61z" fill="#7E7D7E"/><path d="M254.732,223.8c-1.055,0-1.91-0.855-1.91-1.91v-38.645c0-1.055,0.855-1.91,1.91-1.91          s1.91,0.855,1.91,1.91v38.645C256.643,222.945,255.788,223.8,254.732,223.8z" fill="#FFFFFF"/></g><g><path d="M286.027,259.7c-7.635-0.335-11.055-9.735-5.42-14.9c16.393-5.965,32.785-11.935,49.175-17.9          c9.842-3.655,15.31,11.375,5.422,14.9C318.813,247.765,302.422,253.73,286.027,259.7z" fill="#7E7D7E"/><path d="M292.86,246.795c-0.808,0-1.558-0.515-1.817-1.325c-0.325-1,0.225-2.075,1.23-2.4l36.86-11.915          c1.005-0.32,2.08,0.225,2.405,1.235c0.325,1-0.225,2.075-1.23,2.4l-36.86,11.91          C293.25,246.765,293.052,246.795,292.86,246.795z" fill="#FFFFFF"/></g><g><path d="M227.962,262.165c7.58-0.995,10.17-10.66,4.105-15.31c-16.85-4.515-33.7-9.03-50.55-13.545          c-10.123-2.785-14.263,12.66-4.103,15.31C194.265,253.135,211.112,257.65,227.962,262.165z" fill="#7E7D7E"/><path d="M221.735,250.195c-0.152,0-0.308-0.02-0.467-0.06L178.5,239.41c-1.027-0.255-1.645-1.295-1.39-2.315          c0.258-1.025,1.295-1.645,2.317-1.39l42.77,10.725c1.023,0.255,1.645,1.295,1.39,2.315          C223.368,249.615,222.59,250.195,221.735,250.195z" fill="#FFFFFF"/></g><g><path d="M247.933,289.02c1.655-7.46-6.54-13.2-12.985-9.095c-10.005,14.29-20.012,28.58-30.015,42.87          c-6.08,8.56,7.018,17.73,12.98,9.09C227.922,317.6,237.927,303.31,247.933,289.02z" fill="#7E7D7E"/><path d="M209.647,324.975c-0.38,0-0.765-0.115-1.095-0.35c-0.865-0.605-1.075-1.8-0.465-2.66l23.133-32.92          c0.607-0.86,1.797-1.065,2.66-0.465c0.863,0.61,1.073,1.8,0.465,2.66l-23.133,32.92          C210.837,324.69,210.248,324.975,209.647,324.975z" fill="#FFFFFF"/></g><g><path d="M268.415,289.74c-2.297-7.285,5.365-13.715,12.143-10.185c11.215,13.36,22.43,26.725,33.64,40.085          c6.8,8-5.45,18.28-12.142,10.19C290.842,316.47,279.627,303.105,268.415,289.74z" fill="#7E7D7E"/><path d="M303.837,326.47c-0.555,0-1.105-0.24-1.482-0.705l-26.788-32.795c-0.67-0.815-0.547-2.02,0.27-2.685          c0.82-0.67,2.02-0.55,2.688,0.27l26.788,32.795c0.667,0.815,0.547,2.02-0.27,2.69          C304.688,326.325,304.26,326.47,303.837,326.47z" fill="#FFFFFF"/></g></g></g></g></g></g></g></svg>