<?xml version="1.0" encoding="utf-8"?>
<!-- Generator: Adobe Illustrator 18.1.0, SVG Export Plug-In . SVG Version: 6.00 Build 0)  -->
<svg version="1.1" id="Layer_1" xmlns="http://www.w3.org/2000/svg" xmlns:xlink="http://www.w3.org/1999/xlink" x="0px" y="0px"
	 viewBox="-49 141 512 512" enable-background="new -49 141 512 512" xml:space="preserve">
<g>
	<g>
		<path fill="#E05B49" d="M463,397c0,141.4-114.6,256-256,256c-6.4,0-12.8-0.2-19.1-0.7C55.4,642.5-49,532-49,397
			c0-141.4,114.6-256,256-256c135.3,0,246,104.9,255.4,237.8C462.8,384.8,463,390.9,463,397z"/>
		<g>
			<g>
				<rect x="68.6" y="258.6" fill="#C9C7C8" width="276.8" height="276.8"/>
				<g>
					<g>
						<rect x="91.1" y="281.1" fill="#363636" width="231.8" height="231.8"/>
						<rect x="99.9" y="289.9" fill="#C9C7C8" width="219.7" height="219.3"/>
						<rect x="99.9" y="289.9" fill="#FFFFFF" width="219.8" height="2.7"/>
						<g>
							<path fill="#919091" d="M327.8,437.6V485c0,1-0.8,1.8-1.8,1.8h-9.5c-1,0-1.8-0.8-1.8-1.8v-47.4c0-1,0.8-1.8,1.8-1.8h9.5
								C327,435.8,327.8,436.6,327.8,437.6z"/>
							<path opacity="0.2" fill="#FFFFFF" enable-background="new    " d="M319,485v-47.4c0-1,0.8-1.8,1.8-1.8h-4.2
								c-1,0-1.8,0.8-1.8,1.8V485c0,1,0.8,1.8,1.8,1.8h4.2C319.8,486.8,319,486,319,485z"/>
							<path opacity="0.4" enable-background="new    " d="M326.1,435.8h-2.3c1,0,1.8,0.8,1.8,1.8V485c0,1-0.8,1.8-1.8,1.8h2.3
								c1,0,1.8-0.8,1.8-1.8v-47.4C327.8,436.6,327,435.8,326.1,435.8z"/>
							<rect x="314.8" y="453.4" opacity="0.4" enable-background="new    " width="13" height="2.3"/>
							<rect x="314.8" y="470.2" opacity="0.4" enable-background="new    " width="13" height="2.3"/>
							<g>
								<path fill="#7E7D7E" d="M323.6,435.8H319v-2.1c0-0.6,0.5-1.2,1.2-1.2h2.2c0.6,0,1.2,0.5,1.2,1.2L323.6,435.8L323.6,435.8z"
									/>
								<path opacity="0.2" enable-background="new    " d="M322.4,432.5h-0.8c0.6,0,1.2,0.5,1.2,1.2v2.1h0.8v-2.1
									C323.6,433,323.1,432.5,322.4,432.5z"/>
							</g>
							<g>
								<path fill="#7E7D7E" d="M323.6,486.8H319v2.1c0,0.6,0.5,1.2,1.2,1.2h2.2c0.6,0,1.2-0.5,1.2-1.2L323.6,486.8L323.6,486.8z"/>
								<path opacity="0.2" enable-background="new    " d="M322.9,486.8v2.1c0,0.6-0.5,1.2-1.2,1.2h0.8c0.6,0,1.2-0.5,1.2-1.2v-2.1
									H322.9z"/>
							</g>
						</g>
						<g>
							<path fill="#919091" d="M327.3,314.1v47.4c0,1-0.8,1.8-1.8,1.8h-9.5c-1,0-1.8-0.8-1.8-1.8v-47.4c0-1,0.8-1.8,1.8-1.8h9.5
								C326.5,312.3,327.3,313.1,327.3,314.1z"/>
							<path opacity="0.2" fill="#FFFFFF" enable-background="new    " d="M318.5,361.5v-47.4c0-1,0.8-1.8,1.8-1.8h-4.2
								c-1,0-1.8,0.8-1.8,1.8v47.4c0,1,0.8,1.8,1.8,1.8h4.2C319.3,363.3,318.5,362.5,318.5,361.5z"/>
							<path opacity="0.4" enable-background="new    " d="M325.5,312.3h-2.3c1,0,1.8,0.8,1.8,1.8v47.4c0,1-0.8,1.8-1.8,1.8h2.3
								c1,0,1.8-0.8,1.8-1.8v-47.4C327.3,313.1,326.5,312.3,325.5,312.3z"/>
							<rect x="314.3" y="329.9" opacity="0.4" enable-background="new    " width="13" height="2.3"/>
							<rect x="314.3" y="346.7" opacity="0.4" enable-background="new    " width="13" height="2.3"/>
							<g>
								<path fill="#7E7D7E" d="M323.1,312.3h-4.6v-2.1c0-0.6,0.5-1.2,1.2-1.2h2.2c0.6,0,1.2,0.5,1.2,1.2V312.3z"/>
								<path opacity="0.2" enable-background="new    " d="M321.9,309h-0.8c0.6,0,1.2,0.5,1.2,1.2v2.1h0.8v-2.1
									C323.1,309.5,322.6,309,321.9,309z"/>
							</g>
							<g>
								<path fill="#7E7D7E" d="M323.1,363.3h-4.6v2.1c0,0.7,0.5,1.2,1.2,1.2h2.2c0.7,0,1.2-0.5,1.2-1.2L323.1,363.3L323.1,363.3z"
									/>
								<path opacity="0.2" enable-background="new    " d="M322.3,363.3v2.1c0,0.7-0.5,1.2-1.2,1.2h0.8c0.6,0,1.2-0.5,1.2-1.2v-2.1
									H322.3z"/>
							</g>
						</g>
					</g>
					<path opacity="0.1" enable-background="new    " d="M319.6,401v108.2H191.3l-33.6-34.5c-3.2-2.3-4.8-6.7-1.8-10.9
						c0.6-0.8,1.2-1.6,1.7-2.5c-0.1-0.1-4.3-4.4-4.3-4.4c-17.2-17.2-24.6-40.4-22.2-62.8c-0.6-0.5-1-1-1.4-1.6
						c-0.9-0.6-1.5-1.3-2-2.1c-0.9-0.6-1.5-1.3-2-2.1c-6.6-4.4-2.3-16.6,6.8-14.1c1,0.3,2.1,0.6,3.1,0.8c3.8-10,9.7-19.4,17.7-27.5
						c13.1-13.1,29.7-20.5,46.7-22.2v-3.1c-0.1-8.7,11-10.2,14.7-4.4c0.8,0.5,7.6,7.4,8.1,8.3c0.2,0.1,0.4,0.2,0.5,0.4
						c14.4,2.9,28.1,9.9,39.3,21.1c0.5,0.5,1,1.1,1.5,1.6c0,0,17.9,18.3,17.9,18.3c3.4-0.7,6.2,0.8,7.8,3.2
						C290.7,371.3,319.6,401,319.6,401z"/>
				</g>
				<g>
					<g>
						<path fill="#363134" d="M153.4,457c30.2,30.2,79.1,30.2,109.3,0L208,402.3L153.4,457z"/>
						<path fill="#A9A9A9" d="M153.4,347.6c-30.2,30.2-30.2,79.1,0,109.3l54.7-54.7L153.4,347.6z"/>
						<path fill="#908E90" d="M262.7,457c30.2-30.2,30.2-79.1,0-109.3L208,402.3L262.7,457z"/>
						<path fill="#FFFFFF" d="M153.4,347.6l54.7,54.7l54.7-54.7C232.5,317.5,183.6,317.5,153.4,347.6z"/>
					</g>
					<path fill="#DDDADB" d="M275,402.3c0,37-30,66.9-66.9,66.9c-37,0-66.4-29.8-66.9-65.8c0-0.8,0-1.7,0-2.5c0-0.4,0-0.7,0-1
						c0-0.5,0-1.1,0.1-1.6c0.1-0.9,0.1-1.7,0.2-2.5c3.3-33.9,31.9-60.4,66.6-60.4C245,335.4,275,365.3,275,402.3z"/>
					<path fill="#D92716" d="M158.2,400.9v2.5h-17.1c0-0.8,0-1.7,0-2.5H158.2z"/>
					<g>
						<path fill="#525051" d="M258.2,402.3c0,27.7-22.5,50.2-50.2,50.2c-27.7,0-50.2-22.5-50.2-50.2c0-27.7,22.5-50.2,50.2-50.2
							C235.7,352.1,258.2,374.6,258.2,402.3z"/>
						<path fill="#FFFFFF" d="M208,450.2c-27.3,0-49.5-21.9-50.2-49c0,0.4,0,0.8,0,1.1c0,27.7,22.5,50.2,50.2,50.2
							c27.7,0,50.2-22.5,50.2-50.2c0-0.4,0-0.8,0-1.1C257.6,428.3,235.4,450.2,208,450.2z"/>
						<path d="M208,354.4c27.3,0,49.5,21.9,50.2,49c0-0.4,0-0.8,0-1.1c0-27.7-22.5-50.2-50.2-50.2c-27.7,0-50.2,22.5-50.2,50.2
							c0,0.4,0,0.8,0,1.1C158.5,376.3,180.7,354.4,208,354.4z"/>
					</g>
					<g>
						<g>
							<path fill="#363134" d="M187.7,422.6c11.2,11.2,29.4,11.2,40.7,0L208,402.3L187.7,422.6z"/>
							<path fill="#A9A9A9" d="M187.7,382c-11.2,11.2-11.2,29.4,0,40.7l20.3-20.3L187.7,382z"/>
							<path fill="#908E90" d="M228.3,422.6c11.2-11.2,11.2-29.4,0-40.7L208,402.3L228.3,422.6z"/>
							<path fill="#FFFFFF" d="M187.7,382l20.3,20.3l20.3-20.3C217.1,370.8,198.9,370.8,187.7,382z"/>
						</g>
						<path fill="#BDBBBC" d="M229.7,402.3c0,12-9.7,21.7-21.7,21.7c-12,0-21.7-9.7-21.7-21.7c0-12,9.7-21.7,21.7-21.7
							C220,380.6,229.7,390.3,229.7,402.3z"/>
						<g>
							<path fill="#7E7D7E" d="M216,374.6c-2.9,7.1-12.9,7.1-15.9,0c0-17.4,0-34.9,0-52.3c-0.1-10.5,15.9-10.5,15.9,0
								C216,339.7,216,357.2,216,374.6z"/>
							<path fill="#FFFFFF" d="M205.7,364.8c-1.1,0-1.9-0.9-1.9-1.9v-38.6c0-1.1,0.9-1.9,1.9-1.9s1.9,0.9,1.9,1.9v38.6
								C207.6,363.9,206.8,364.8,205.7,364.8z"/>
						</g>
						<g>
							<path fill="#7E7D7E" d="M237,400.7c-7.6-0.3-11.1-9.7-5.4-14.9c16.4-6,32.8-11.9,49.2-17.9c9.8-3.7,15.3,11.4,5.4,14.9
								C269.8,388.8,253.4,394.7,237,400.7z"/>
							<path fill="#FFFFFF" d="M243.9,387.8c-0.8,0-1.6-0.5-1.8-1.3c-0.3-1,0.2-2.1,1.2-2.4l36.9-11.9c1-0.3,2.1,0.2,2.4,1.2
								c0.3,1-0.2,2.1-1.2,2.4l-36.9,11.9C244.2,387.8,244.1,387.8,243.9,387.8z"/>
						</g>
						<g>
							<path fill="#7E7D7E" d="M179,403.2c7.6-1,10.2-10.7,4.1-15.3c-16.9-4.5-33.7-9-50.6-13.5c-10.1-2.8-14.3,12.7-4.1,15.3
								C145.3,394.1,162.1,398.6,179,403.2z"/>
							<path fill="#FFFFFF" d="M172.7,391.2c-0.2,0-0.3,0-0.5-0.1l-42.8-10.7c-1-0.3-1.6-1.3-1.4-2.3c0.3-1,1.3-1.6,2.3-1.4
								l42.8,10.7c1,0.3,1.6,1.3,1.4,2.3C174.4,390.6,173.6,391.2,172.7,391.2z"/>
						</g>
						<g>
							<path fill="#7E7D7E" d="M198.9,430c1.7-7.5-6.5-13.2-13-9.1c-10,14.3-20,28.6-30,42.9c-6.1,8.6,7,17.7,13,9.1
								C178.9,458.6,188.9,444.3,198.9,430z"/>
							<path fill="#FFFFFF" d="M160.6,466c-0.4,0-0.8-0.1-1.1-0.4c-0.9-0.6-1.1-1.8-0.5-2.7l23.1-32.9c0.6-0.9,1.8-1.1,2.7-0.5
								c0.9,0.6,1.1,1.8,0.5,2.7l-23.1,32.9C161.8,465.7,161.2,466,160.6,466z"/>
						</g>
						<g>
							<path fill="#7E7D7E" d="M219.4,430.7c-2.3-7.3,5.4-13.7,12.1-10.2c11.2,13.4,22.4,26.7,33.6,40.1c6.8,8-5.5,18.3-12.1,10.2
								C241.8,457.5,230.6,444.1,219.4,430.7z"/>
							<path fill="#FFFFFF" d="M254.8,467.5c-0.6,0-1.1-0.2-1.5-0.7L226.6,434c-0.7-0.8-0.5-2,0.3-2.7c0.8-0.7,2-0.5,2.7,0.3
								l26.8,32.8c0.7,0.8,0.5,2-0.3,2.7C255.7,467.3,255.3,467.5,254.8,467.5z"/>
						</g>
					</g>
				</g>
			</g>
		</g>
	</g>
</g>
</svg>
