<?xml version="1.0" encoding="utf-8"?>
<!-- Generator: Adobe Illustrator 18.1.0, SVG Export Plug-In . SVG Version: 6.00 Build 0)  -->
<svg version="1.1" id="Слой_1" xmlns="http://www.w3.org/2000/svg" xmlns:xlink="http://www.w3.org/1999/xlink" x="0px" y="0px"
	 viewBox="2766 -2676 6144 6144" enable-background="new 2766 -2676 6144 6144" xml:space="preserve">
<circle fill="#C15244" cx="5839" cy="396" r="3072"/>
<g>
	<path fill="#F4F4F4" d="M6438.6-2617.5c-193.9-38.4-394.4-58.5-599.6-58.5c-1696.6,0-3072,1375.4-3072,3072
		c0,890,378.5,1691.6,983.3,2252.7h2688.3V-2617.5z"/>
	<path fill="#B7B7B3" d="M5242-5150.5"/>
	<path fill="#F4F4F4" d="M5242-5150.5"/>
	<g>
		<path fill="#848481" d="M645.7-3243.8L645.7-3243.8"/>
		<path fill="#848481" d="M5814.5-2675.9c-214.1,1.7-423,25.2-624.5,68.6h510.1C5749.6-2607.3,5792.7-2635.1,5814.5-2675.9z"/>
		<path fill="#848481" d="M5828.4-2218.5c0-71.6-58-129.6-129.6-129.6H4456.6c-148.7,75.1-290.5,161.9-424.1,259.2h1666.4
			C5770.4-2088.9,5828.4-2146.9,5828.4-2218.5z"/>
		<path fill="#848481" d="M3480.4-1572.4c76-91,157.3-177.6,243.2-259.2"/>
		<path fill="#848481" d="M5829.1-1702c0-71.6-58-129.6-129.6-129.6H3723.6c-85.9,81.6-167.2,168.2-243.2,259.2h2219.1
			C5771-1572.4,5829.1-1630.4,5829.1-1702z"/>
		<path fill="#848481" d="M3136.3-1065.5c48.3-89.2,100.9-175.6,157.5-259.2"/>
		<path fill="#848481" d="M5829.1-1195.1c0-71.6-58-129.6-129.6-129.6H3293.8c-56.6,83.6-109.2,170-157.5,259.2h2563.2
			C5771-1065.5,5829.1-1123.5,5829.1-1195.1z"/>
		<path fill="#848481" d="M2914.5-547.1c28.4-88.2,60.7-174.7,96.7-259.2"/>
		<path fill="#848481" d="M5827.7-676.7c0-71.6-58-129.6-129.6-129.6H3011.2c-36,84.5-68.3,171-96.7,259.2h2783.6
			C5769.7-547.1,5827.7-605.1,5827.7-676.7z"/>
	</g>
</g>
<path opacity="0.15" fill="#101111" enable-background="new    " d="M2834.1-245.8c0.8-3.6,1.5-7.2,2.3-10.8
	C2835.7-253,2834.9-249.4,2834.1-245.8z"/>
<path opacity="0.15" fill="#101111" enable-background="new    " d="M4232.9-2223.2c3-1.9,6-3.7,9.1-5.6
	C4239-2226.9,4236-2225.1,4232.9-2223.2z"/>
<path opacity="0.15" fill="#101111" enable-background="new    " d="M4217.9-2214c3-1.8,5.9-3.7,8.9-5.5
	C4223.9-2217.6,4220.9-2215.8,4217.9-2214z"/>
<path opacity="0.15" fill="#101111" enable-background="new    " d="M4391.5-2314.3c5-2.7,10-5.3,15-8
	C4401.5-2319.6,4396.5-2317,4391.5-2314.3z"/>
<path opacity="0.15" fill="#101111" enable-background="new    " d="M4247.9-2232.4c3.3-2,6.6-4,9.9-6
	C4254.5-2236.4,4251.2-2234.4,4247.9-2232.4z"/>
<path opacity="0.15" fill="#101111" enable-background="new    " d="M2838-263.6c0.8-3.7,1.6-7.4,2.4-11
	C2839.6-270.9,2838.8-267.3,2838-263.6z"/>
<path opacity="0.15" fill="#101111" enable-background="new    " d="M4168.1-2182.3c4.7-3.1,9.5-6.1,14.2-9.2
	C4177.5-2188.4,4172.8-2185.3,4168.1-2182.3z"/>
<path opacity="0.15" fill="#101111" enable-background="new    " d="M4153.1-2172.5c4.7-3.1,9.4-6.2,14.2-9.3
	C4162.5-2178.7,4157.8-2175.6,4153.1-2172.5z"/>
<path opacity="0.15" fill="#101111" enable-background="new    " d="M2841.9-281.2c0.9-4,1.8-8,2.7-12
	C2843.7-289.3,2842.8-285.3,2841.9-281.2z"/>
<path opacity="0.15" fill="#101111" enable-background="new    " d="M4202.8-2204.5c3-1.9,6-3.8,9-5.7
	C4208.8-2208.3,4205.8-2206.4,4202.8-2204.5z"/>
<path opacity="0.15" fill="#101111" enable-background="new    " d="M4187.3-2194.6c3.2-2.1,6.5-4.1,9.7-6.2
	C4193.8-2198.8,4190.5-2196.7,4187.3-2194.6z"/>
<path opacity="0.15" fill="#101111" enable-background="new    " d="M4262.9-2241.4c4.8-2.9,9.7-5.8,14.5-8.6
	C4272.5-2247.2,4267.7-2244.3,4262.9-2241.4z"/>
<path opacity="0.15" fill="#101111" enable-background="new    " d="M4344.9-2288.8c3.1-1.7,6.2-3.5,9.3-5.2
	C4351.1-2292.3,4348-2290.6,4344.9-2288.8z"/>
<path opacity="0.15" fill="#101111" enable-background="new    " d="M4360.3-2297.3c3.4-1.9,6.8-3.7,10.2-5.6
	C4367.1-2301.1,4363.7-2299.2,4360.3-2297.3z"/>
<path opacity="0.15" fill="#101111" enable-background="new    " d="M4278.3-2250.6c4.8-2.9,9.7-5.7,14.6-8.6
	C4288-2256.3,4283.2-2253.5,4278.3-2250.6z"/>
<path opacity="0.15" fill="#101111" enable-background="new    " d="M2812.2-131.9c0.7-3.8,1.3-7.5,2-11.3
	C2813.5-139.5,2812.9-135.7,2812.2-131.9z"/>
<path opacity="0.15" fill="#101111" enable-background="new    " d="M4375.7-2305.8c5-2.7,9.9-5.4,14.9-8
	C4385.6-2311.1,4380.6-2308.4,4375.7-2305.8z"/>
<path opacity="0.15" fill="#101111" enable-background="new    " d="M2815.4-149.9c0.7-4.1,1.5-8.2,2.2-12.3
	C2816.8-158.1,2816.1-154,2815.4-149.9z"/>
<path opacity="0.15" fill="#101111" enable-background="new    " d="M4298-2262.1c3.3-1.9,6.7-3.9,10-5.8
	C4304.7-2266,4301.3-2264,4298-2262.1z"/>
<path opacity="0.15" fill="#101111" enable-background="new    " d="M2826.5-208.9c0.8-4.1,1.6-8.1,2.5-12.2
	C2828.2-217,2827.4-212.9,2826.5-208.9z"/>
<path opacity="0.15" fill="#101111" enable-background="new    " d="M4329.5-2280.2c3-1.7,6.1-3.4,9.1-5.1
	C4335.6-2283.6,4332.6-2281.9,4329.5-2280.2z"/>
<path opacity="0.15" fill="#101111" enable-background="new    " d="M2818.6-167.7c2.2-11.9,4.5-23.7,6.8-35.6
	C2823.1-191.5,2820.8-179.6,2818.6-167.7z"/>
<path opacity="0.15" fill="#101111" enable-background="new    " d="M4314-2271.3c3.1-1.8,6.2-3.5,9.3-5.3
	C4320.2-2274.9,4317.1-2273.1,4314-2271.3z"/>
<path opacity="0.15" fill="#101111" enable-background="new    " d="M2830.4-227.7c0.8-3.7,1.5-7.4,2.3-11.1
	C2831.9-235.1,2831.1-231.4,2830.4-227.7z"/>
<path opacity="0.15" fill="#101111" enable-background="new    " d="M3990-2057.4c2.8-2.1,5.6-4.3,8.5-6.4
	C3995.6-2061.7,3992.8-2059.6,3990-2057.4z"/>
<path opacity="0.15" fill="#101111" enable-background="new    " d="M3975.4-2046.3c3-2.3,6.1-4.7,9.2-7
	C3981.5-2051,3978.4-2048.7,3975.4-2046.3z"/>
<path opacity="0.15" fill="#101111" enable-background="new    " d="M4004.2-2068.1c2.8-2.1,5.6-4.1,8.3-6.2
	C4009.8-2072.2,4007-2070.2,4004.2-2068.1z"/>
<path opacity="0.15" fill="#101111" enable-background="new    " d="M2874-410.5c1.1-3.9,2.1-7.8,3.2-11.8
	C2876.1-418.4,2875-414.4,2874-410.5z"/>
<path opacity="0.15" fill="#101111" enable-background="new    " d="M2869.3-393.1c1-3.6,1.9-7.2,2.9-10.8
	C2871.2-400.3,2870.3-396.7,2869.3-393.1z"/>
<path opacity="0.15" fill="#101111" enable-background="new    " d="M3957.4-2032.5c4.4-3.4,8.9-6.9,13.3-10.3
	C3966.2-2039.3,3961.8-2035.9,3957.4-2032.5z"/>
<path opacity="0.15" fill="#101111" enable-background="new    " d="M4018.3-2078.6c2.8-2.1,5.7-4.2,8.5-6.3
	C4024-2082.8,4021.2-2080.7,4018.3-2078.6z"/>
<path opacity="0.15" fill="#101111" enable-background="new    " d="M3916-1999.8c2.7-2.2,5.5-4.4,8.2-6.6
	C3921.5-2004.2,3918.7-2002,3916-1999.8z"/>
<path opacity="0.15" fill="#101111" enable-background="new    " d="M2890.1-467.6c1.1-3.9,2.3-7.8,3.4-11.7
	C2892.4-475.4,2891.2-471.5,2890.1-467.6z"/>
<path opacity="0.15" fill="#101111" enable-background="new    " d="M3943.3-2021.5c4.4-3.5,8.8-6.9,13.2-10.3
	C3952.1-2028.4,3947.7-2024.9,3943.3-2021.5z"/>
<path opacity="0.15" fill="#101111" enable-background="new    " d="M2878.7-427.8c3.2-11.5,6.4-23,9.8-34.4
	C2885.2-450.7,2881.9-439.3,2878.7-427.8z"/>
<path opacity="0.15" fill="#101111" enable-background="new    " d="M4032.4-2088.9c3.1-2.3,6.2-4.5,9.3-6.7
	C4038.6-2093.4,4035.5-2091.2,4032.4-2088.9z"/>
<path opacity="0.15" fill="#101111" enable-background="new    " d="M2864.7-375.6c0.9-3.5,1.8-7.1,2.8-10.6
	C2866.6-382.7,2865.6-379.2,2864.7-375.6z"/>
<path opacity="0.15" fill="#101111" enable-background="new    " d="M4094.8-2133.2c2.9-2,5.8-4,8.7-6
	C4100.6-2137.2,4097.7-2135.2,4094.8-2133.2z"/>
<path opacity="0.15" fill="#101111" enable-background="new    " d="M4124-2153.1c2.9-2,5.9-3.9,8.8-5.9
	C4129.9-2157,4127-2155.1,4124-2153.1z"/>
<path opacity="0.15" fill="#101111" enable-background="new    " d="M2855.6-339.3c1-4,2-8,3-12
	C2857.5-347.3,2856.5-343.3,2855.6-339.3z"/>
<path opacity="0.15" fill="#101111" enable-background="new    " d="M2845.9-298.8c2.7-11.7,5.5-23.4,8.3-35
	C2851.4-322.2,2848.6-310.5,2845.9-298.8z"/>
<path opacity="0.15" fill="#101111" enable-background="new    " d="M4109.5-2143.2c2.9-2,5.7-3.9,8.6-5.8
	C4115.2-2147.1,4112.3-2145.2,4109.5-2143.2z"/>
<path opacity="0.15" fill="#101111" enable-background="new    " d="M4046.5-2099.1c4.5-3.3,9.1-6.5,13.6-9.7
	C4055.6-2105.6,4051.1-2102.4,4046.5-2099.1z"/>
<path opacity="0.15" fill="#101111" enable-background="new    " d="M4138.6-2162.8c3.2-2.1,6.4-4.3,9.6-6.4
	C4145-2167.1,4141.8-2165,4138.6-2162.8z"/>
<path opacity="0.15" fill="#101111" enable-background="new    " d="M2860.2-357.8c0.9-3.6,1.8-7.2,2.8-10.9
	C2862-365.1,2861.1-361.5,2860.2-357.8z"/>
<path opacity="0.15" fill="#101111" enable-background="new    " d="M4079.7-2122.7c3.1-2.2,6.3-4.4,9.4-6.6
	C4086-2127.1,4082.8-2124.9,4079.7-2122.7z"/>
<path opacity="0.15" fill="#101111" enable-background="new    " d="M4061.2-2109.6c4.6-3.2,9.1-6.5,13.7-9.7
	C4070.3-2116,4065.7-2112.8,4061.2-2109.6z"/>
<path opacity="0.15" fill="#101111" enable-background="new    " d="M3929.6-2010.7c3-2.4,6-4.8,9-7.1
	C3935.6-2015.4,3932.6-2013.1,3929.6-2010.7z"/>
<path opacity="0.15" fill="#101111" enable-background="new    " d="M4747.6-2476.5c5.5-2.1,11-4.2,16.5-6.2
	C4758.6-2480.6,4753.1-2478.6,4747.6-2476.5z"/>
<path opacity="0.15" fill="#101111" enable-background="new    " d="M4769.6-2484.7c3.7-1.4,7.4-2.8,11.2-4.1
	C4777-2487.5,4773.3-2486.1,4769.6-2484.7z"/>
<path opacity="0.15" fill="#101111" enable-background="new    " d="M2774.7,176.4c0.3-4.7,0.7-9.4,1-14.1
	C2775.4,167.1,2775.1,171.8,2774.7,176.4z"/>
<path opacity="0.15" fill="#101111" enable-background="new    " d="M4787.2-2491.2c3.4-1.2,6.9-2.5,10.3-3.7
	C4794-2493.7,4790.6-2492.4,4787.2-2491.2z"/>
<path opacity="0.15" fill="#101111" enable-background="new    " d="M4963.7-2549.5c3.9-1.1,7.7-2.3,11.6-3.4
	C4971.4-2551.8,4967.6-2550.6,4963.7-2549.5z"/>
<path opacity="0.15" fill="#101111" enable-background="new    " d="M4804.2-2497.3c3.4-1.2,6.8-2.4,10.1-3.6
	C4811-2499.8,4807.6-2498.6,4804.2-2497.3z"/>
<path opacity="0.15" fill="#101111" enable-background="new    " d="M4731.1-2470.1c5.5-2.1,11-4.2,16.4-6.3
	C4742-2474.4,4736.5-2472.3,4731.1-2470.1z"/>
<path opacity="0.15" fill="#101111" enable-background="new    " d="M2785.4,58c0.5-4.2,0.9-8.4,1.4-12.7
	C2786.3,49.6,2785.9,53.8,2785.4,58z"/>
<path opacity="0.15" fill="#101111" enable-background="new    " d="M4698.1-2457.1c3.4-1.3,6.7-2.7,10.1-4
	C4704.8-2459.8,4701.4-2458.5,4698.1-2457.1z"/>
<path opacity="0.15" fill="#101111" enable-background="new    " d="M4821.1-2503.3c3.5-1.2,6.9-2.4,10.4-3.6
	C4828-2505.8,4824.5-2504.5,4821.1-2503.3z"/>
<path opacity="0.15" fill="#101111" enable-background="new    " d="M2782.9,81.9c-1.3,12.9-2.5,25.8-3.7,38.8
	c-0.6,6.5-1.1,13-1.7,19.5c-0.5,5.9-1,11.9-1.4,17.8c2.4-31.6,5.3-63.1,8.7-94.4C2784.1,69.7,2783.5,75.8,2782.9,81.9z"/>
<path opacity="0.15" fill="#101111" enable-background="new    " d="M4714.6-2463.7c3.7-1.4,7.4-2.9,11.1-4.3
	C4721.9-2466.6,4718.2-2465.1,4714.6-2463.7z"/>
<path opacity="0.15" fill="#101111" enable-background="new    " d="M4929.3-2539.1c3.4-1.1,6.9-2.1,10.4-3.2
	C4936.2-2541.2,4932.8-2540.1,4929.3-2539.1z"/>
<path opacity="0.15" fill="#101111" enable-background="new    " d="M2771.5,228.6c0.1-2.6,0.3-5.1,0.4-7.7
	C2771.8,223.5,2771.6,226,2771.5,228.6z"/>
<path opacity="0.15" fill="#101111" enable-background="new    " d="M2769.4,274.7c0.1-2.6,0.2-5.2,0.3-7.8
	C2769.6,269.5,2769.5,272.1,2769.4,274.7z"/>
<path opacity="0.15" fill="#101111" enable-background="new    " d="M4911.9-2533.6c3.5-1.1,7-2.2,10.5-3.3
	C4919-2535.8,4915.5-2534.7,4911.9-2533.6z"/>
<path opacity="0.15" fill="#101111" enable-background="new    " d="M2768.6,297c-0.4,13.2-0.8,26.3-1,39.5
	c-0.1,6-0.2,11.9-0.3,17.9c0.3-19.7,0.7-39.3,1.3-58.9C2768.6,296,2768.6,296.5,2768.6,297z"/>
<path opacity="0.15" fill="#101111" enable-background="new    " d="M4946.5-2544.3c3.5-1.1,7.1-2.1,10.6-3.2
	C4953.6-2546.5,4950.1-2545.4,4946.5-2544.3z"/>
<path opacity="0.15" fill="#101111" enable-background="new    " d="M4681.5-2450.5c3.3-1.3,6.6-2.7,9.9-4
	C4688.1-2453.1,4684.8-2451.8,4681.5-2450.5z"/>
<path opacity="0.15" fill="#101111" enable-background="new    " d="M4837.9-2509.2c3.8-1.3,7.6-2.6,11.3-3.9
	C4845.5-2511.8,4841.7-2510.5,4837.9-2509.2z"/>
<path opacity="0.15" fill="#101111" enable-background="new    " d="M4854.8-2514.9c5.6-1.9,11.2-3.8,16.8-5.6
	C4866-2518.7,4860.4-2516.8,4854.8-2514.9z"/>
<path opacity="0.15" fill="#101111" enable-background="new    " d="M4871.6-2520.6c5.6-1.9,11.2-3.7,16.9-5.5
	C4882.8-2524.3,4877.2-2522.4,4871.6-2520.6z"/>
<path opacity="0.15" fill="#101111" enable-background="new    " d="M2770.3,252c0.1-2.8,0.3-5.7,0.4-8.5
	C2770.6,246.3,2770.5,249.2,2770.3,252z"/>
<path opacity="0.15" fill="#101111" enable-background="new    " d="M4894-2527.9c3.8-1.2,7.6-2.5,11.5-3.7
	C4901.6-2530.4,4897.8-2529.1,4894-2527.9z"/>
<path opacity="0.15" fill="#101111" enable-background="new    " d="M4459.9-2349.8c3.2-1.6,6.4-3.2,9.6-4.8
	C4466.3-2353,4463.1-2351.4,4459.9-2349.8z"/>
<path opacity="0.15" fill="#101111" enable-background="new    " d="M4475.6-2357.6c3.5-1.7,7-3.5,10.5-5.2
	C4482.6-2361.1,4479.1-2359.4,4475.6-2357.6z"/>
<path opacity="0.15" fill="#101111" enable-background="new    " d="M4491.4-2365.4c5.1-2.5,10.3-5,15.5-7.5
	C4501.7-2370.4,4496.5-2367.9,4491.4-2365.4z"/>
<path opacity="0.15" fill="#101111" enable-background="new    " d="M2803.1-76.3c0.6-4.2,1.3-8.3,1.9-12.5
	C2804.4-84.6,2803.7-80.5,2803.1-76.3z"/>
<path opacity="0.15" fill="#101111" enable-background="new    " d="M4507.5-2373.2c5.2-2.5,10.3-5,15.5-7.4
	C4517.8-2378.2,4512.6-2375.7,4507.5-2373.2z"/>
<path opacity="0.15" fill="#101111" enable-background="new    " d="M2797-34.7c1.7-12.1,3.5-24.1,5.3-36.1
	C2800.4-58.8,2798.6-46.7,2797-34.7z"/>
<path opacity="0.15" fill="#101111" enable-background="new    " d="M2809.1-113.9c0.6-3.7,1.2-7.4,1.9-11
	C2810.4-121.2,2809.7-117.5,2809.1-113.9z"/>
<path opacity="0.15" fill="#101111" enable-background="new    " d="M4428.1-2333.6c3.2-1.6,6.4-3.3,9.5-4.9
	C4434.5-2336.9,4431.3-2335.2,4428.1-2333.6z"/>
<path opacity="0.15" fill="#101111" enable-background="new    " d="M4528.3-2383.1c3.5-1.7,7.1-3.3,10.6-5
	C4535.4-2386.5,4531.8-2384.8,4528.3-2383.1z"/>
<path opacity="0.15" fill="#101111" enable-background="new    " d="M2806.1-95.5c0.6-3.8,1.2-7.6,1.8-11.3
	C2807.3-103,2806.7-99.3,2806.1-95.5z"/>
<path opacity="0.15" fill="#101111" enable-background="new    " d="M4444.1-2341.8c3.1-1.6,6.3-3.2,9.4-4.8
	C4450.3-2344.9,4447.2-2343.3,4444.1-2341.8z"/>
<path opacity="0.15" fill="#101111" enable-background="new    " d="M4411.7-2325c3.4-1.8,6.9-3.6,10.3-5.4
	C4418.6-2328.6,4415.1-2326.8,4411.7-2325z"/>
<path opacity="0.15" fill="#101111" enable-background="new    " d="M4545.1-2391c3.3-1.5,6.5-3,9.8-4.5
	C4551.7-2394.1,4548.4-2392.5,4545.1-2391z"/>
<path opacity="0.15" fill="#101111" enable-background="new    " d="M4626.2-2427.3c5.3-2.3,10.7-4.6,16-6.8
	C4636.9-2431.9,4631.6-2429.6,4626.2-2427.3z"/>
<path opacity="0.15" fill="#101111" enable-background="new    " d="M2789.8,20c0.5-3.8,0.9-7.5,1.4-11.3
	C2790.7,12.5,2790.2,16.2,2789.8,20z"/>
<path opacity="0.15" fill="#101111" enable-background="new    " d="M4609.9-2420.2c5.3-2.3,10.6-4.6,15.9-6.9
	C4620.5-2424.9,4615.2-2422.6,4609.9-2420.2z"/>
<path opacity="0.15" fill="#101111" enable-background="new    " d="M4664.8-2443.6c3.4-1.4,6.7-2.8,10.1-4.2
	C4671.5-2446.4,4668.2-2445,4664.8-2443.6z"/>
<path opacity="0.15" fill="#101111" enable-background="new    " d="M4647.6-2436.4c3.6-1.5,7.3-3.1,10.9-4.6
	C4654.9-2439.5,4651.2-2437.9,4647.6-2436.4z"/>
<path opacity="0.15" fill="#101111" enable-background="new    " d="M2787.6,38.6c0.4-3.8,0.9-7.7,1.4-11.5
	C2788.5,30.9,2788,34.8,2787.6,38.6z"/>
<path opacity="0.15" fill="#101111" enable-background="new    " d="M4593.8-2413.1c3.6-1.6,7.2-3.2,10.8-4.8
	C4601-2416.3,4597.4-2414.7,4593.8-2413.1z"/>
<path opacity="0.15" fill="#101111" enable-background="new    " d="M4561.5-2398.6c3.2-1.5,6.4-2.9,9.6-4.4
	C4567.9-2401.5,4564.7-2400,4561.5-2398.6z"/>
<path opacity="0.15" fill="#101111" enable-background="new    " d="M2794.5-16.6c0.6-4.2,1.1-8.4,1.7-12.5
	C2795.6-24.9,2795-20.7,2794.5-16.6z"/>
<path opacity="0.15" fill="#101111" enable-background="new    " d="M2792.1,1.6c0.5-3.8,1-7.7,1.5-11.5
	C2793.1-6,2792.6-2.2,2792.1,1.6z"/>
<path opacity="0.15" fill="#101111" enable-background="new    " d="M4577.6-2405.9c3.3-1.5,6.6-2.9,9.8-4.4
	C4584.2-2408.9,4580.9-2407.4,4577.6-2405.9z"/>
<path opacity="0.15" fill="#101111" enable-background="new    " d="M2773.2,198.7c0,0.5-0.1,1-0.1,1.5c0.4-6.5,0.8-12.9,1.3-19.4
	C2774,186.8,2773.6,192.7,2773.2,198.7z"/>
<path opacity="0.15" fill="#101111" enable-background="new    " d="M3323.7-1368.2c3.2-4.6,6.5-9.2,9.7-13.7
	C3330.2-1377.3,3327-1372.7,3323.7-1368.2z"/>
<path opacity="0.15" fill="#101111" enable-background="new    " d="M3047.4-888.1c1.5-3.3,3-6.6,4.6-9.8
	C3050.5-894.6,3048.9-891.3,3047.4-888.1z"/>
<path opacity="0.15" fill="#101111" enable-background="new    " d="M3334.1-1382.8c3.3-4.6,6.5-9.1,9.8-13.7
	C3340.6-1391.9,3337.3-1387.4,3334.1-1382.8z"/>
<path opacity="0.15" fill="#101111" enable-background="new    " d="M3347.3-1401.2c2.3-3.1,4.5-6.2,6.8-9.4
	C3351.8-1407.5,3349.6-1404.4,3347.3-1401.2z"/>
<path opacity="0.15" fill="#101111" enable-background="new    " d="M3358.2-1416.1c2.1-2.9,4.2-5.7,6.3-8.6
	C3362.3-1421.8,3360.2-1419,3358.2-1416.1z"/>
<path opacity="0.15" fill="#101111" enable-background="new    " d="M3040-871.9c1.5-3.2,2.9-6.5,4.4-9.7
	C3043-878.4,3041.5-875.1,3040-871.9z"/>
<path opacity="0.15" fill="#101111" enable-background="new    " d="M3054.9-904.1c1.7-3.6,3.4-7.1,5-10.7
	C3058.2-911.2,3056.5-907.6,3054.9-904.1z"/>
<path opacity="0.15" fill="#101111" enable-background="new    " d="M3062.4-920c2.5-5.2,5-10.5,7.5-15.7
	C3067.4-930.5,3064.9-925.2,3062.4-920z"/>
<path opacity="0.15" fill="#101111" enable-background="new    " d="M3284-1310.1c2-3,4-5.9,5.9-8.8
	C3287.9-1316,3285.9-1313.1,3284-1310.1z"/>
<path opacity="0.15" fill="#101111" enable-background="new    " d="M3303.8-1339.5c2-2.9,4-5.8,6-8.8
	C3307.8-1345.3,3305.8-1342.4,3303.8-1339.5z"/>
<path opacity="0.15" fill="#101111" enable-background="new    " d="M3313.8-1353.9c2.2-3.2,4.4-6.3,6.6-9.5
	C3318.2-1360.2,3316-1357,3313.8-1353.9z"/>
<path opacity="0.15" fill="#101111" enable-background="new    " d="M3368.7-1430.4c2.1-2.8,4.1-5.6,6.2-8.4
	C3372.8-1436,3370.8-1433.2,3368.7-1430.4z"/>
<path opacity="0.15" fill="#101111" enable-background="new    " d="M3293.9-1324.9c2-2.9,3.9-5.8,5.9-8.6
	C3297.8-1330.7,3295.9-1327.8,3293.9-1324.9z"/>
<path opacity="0.15" fill="#101111" enable-background="new    " d="M3015.8-817.1c2.3-5.3,4.6-10.7,6.9-16
	C3020.4-827.8,3018.1-822.5,3015.8-817.1z"/>
<path opacity="0.15" fill="#101111" enable-background="new    " d="M3425.2-1504.4c2.4-3,4.7-6,7.1-9
	C3429.9-1510.4,3427.6-1507.4,3425.2-1504.4z"/>
<path opacity="0.15" fill="#101111" enable-background="new    " d="M3436.6-1518.8c2.2-2.8,4.4-5.5,6.6-8.3
	C3441-1524.3,3438.8-1521.5,3436.6-1518.8z"/>
<path opacity="0.15" fill="#101111" enable-background="new    " d="M3008.8-800.8c2.3-5.4,4.5-10.7,6.8-16
	C3013.4-811.5,3011.1-806.1,3008.8-800.8z"/>
<path opacity="0.15" fill="#101111" enable-background="new    " d="M3447.7-1532.6c2.2-2.7,4.3-5.4,6.5-8.1
	C3452.1-1538,3449.9-1535.3,3447.7-1532.6z"/>
<path opacity="0.15" fill="#101111" enable-background="new    " d="M3389.7-1458.5c2.3-3.1,4.6-6.1,7-9.2
	C3394.3-1464.6,3392-1461.5,3389.7-1458.5z"/>
<path opacity="0.15" fill="#101111" enable-background="new    " d="M3032.7-855.5c1.5-3.3,3-6.6,4.4-9.9
	C3035.6-862.1,3034.1-858.8,3032.7-855.5z"/>
<path opacity="0.15" fill="#101111" enable-background="new    " d="M3411.1-1486.4c3.5-4.4,6.9-8.9,10.4-13.3
	C3418.1-1495.3,3414.6-1490.9,3411.1-1486.4z"/>
<path opacity="0.15" fill="#101111" enable-background="new    " d="M3379.2-1444.5c2.1-2.8,4.2-5.7,6.4-8.5
	C3383.4-1450.2,3381.3-1447.4,3379.2-1444.5z"/>
<path opacity="0.15" fill="#101111" enable-background="new    " d="M3400.3-1472.3c3.4-4.5,6.9-8.9,10.3-13.4
	C3407.1-1481.3,3403.7-1476.8,3400.3-1472.3z"/>
<path opacity="0.15" fill="#101111" enable-background="new    " d="M3025.1-838.4c1.6-3.6,3.2-7.2,4.8-10.8
	C3028.3-845.6,3026.7-842,3025.1-838.4z"/>
<path opacity="0.15" fill="#101111" enable-background="new    " d="M3242.2-1246c2.1-3.3,4.1-6.5,6.2-9.8
	C3246.3-1252.5,3244.2-1249.2,3242.2-1246z"/>
<path opacity="0.15" fill="#101111" enable-background="new    " d="M3104.5-1005.3c1.6-3.2,3.3-6.4,4.9-9.6
	C3107.8-1011.7,3106.1-1008.5,3104.5-1005.3z"/>
<path opacity="0.15" fill="#101111" enable-background="new    " d="M3112.6-1021c1.8-3.5,3.6-6.9,5.4-10.4
	C3116.2-1027.9,3114.4-1024.4,3112.6-1021z"/>
<path opacity="0.15" fill="#101111" enable-background="new    " d="M3175.1-1135c1.9-3.4,3.9-6.7,5.8-10.1
	C3179-1141.7,3177-1138.3,3175.1-1135z"/>
<path opacity="0.15" fill="#101111" enable-background="new    " d="M3183.9-1150.1c2.9-4.9,5.7-9.8,8.6-14.7
	C3189.6-1159.9,3186.7-1155,3183.9-1150.1z"/>
<path opacity="0.15" fill="#101111" enable-background="new    " d="M3192.9-1165.5c2.9-4.9,5.8-9.8,8.7-14.7
	C3198.7-1175.3,3195.8-1170.4,3192.9-1165.5z"/>
<path opacity="0.15" fill="#101111" enable-background="new    " d="M3166.4-1119.7c1.8-3.1,3.5-6.2,5.3-9.3
	C3169.9-1125.9,3168.1-1122.8,3166.4-1119.7z"/>
<path opacity="0.15" fill="#101111" enable-background="new    " d="M3140-1072.4c1.9-3.4,3.7-6.9,5.6-10.3
	C3143.8-1079.3,3141.9-1075.9,3140-1072.4z"/>
<path opacity="0.15" fill="#101111" enable-background="new    " d="M3129.1-1052.2c2.7-5.1,5.4-10.1,8.2-15.1
	C3134.5-1062.3,3131.8-1057.3,3129.1-1052.2z"/>
<path opacity="0.15" fill="#101111" enable-background="new    " d="M3149-1088.7c1.7-3.1,3.5-6.3,5.2-9.4
	C3152.4-1095,3150.7-1091.8,3149-1088.7z"/>
<path opacity="0.15" fill="#101111" enable-background="new    " d="M3157.7-1104.3c1.7-3.1,3.4-6.1,5.2-9.2
	C3161.1-1110.4,3159.4-1107.4,3157.7-1104.3z"/>
<path opacity="0.15" fill="#101111" enable-background="new    " d="M3120.7-1036.5c2.7-5.1,5.4-10.1,8.1-15.2
	C3126.1-1046.6,3123.4-1041.6,3120.7-1036.5z"/>
<path opacity="0.15" fill="#101111" enable-background="new    " d="M3458.8-1546.2c2.2-2.7,4.5-5.4,6.7-8.2
	C3463.3-1551.7,3461-1549,3458.8-1546.2z"/>
<path opacity="0.15" fill="#101111" enable-background="new    " d="M3070-936c2.5-5.2,5.1-10.4,7.6-15.6
	C3075-946.4,3072.5-941.2,3070-936z"/>
<path opacity="0.15" fill="#101111" enable-background="new    " d="M3080.2-956.9c1.7-3.5,3.5-7,5.2-10.5
	C3083.6-963.9,3081.9-960.4,3080.2-956.9z"/>
<path opacity="0.15" fill="#101111" enable-background="new    " d="M3251.6-1260.7c3.1-4.8,6.1-9.5,9.2-14.2
	C3257.7-1270.2,3254.6-1265.5,3251.6-1260.7z"/>
<path opacity="0.15" fill="#101111" enable-background="new    " d="M3261.2-1275.7c3.1-4.7,6.2-9.5,9.3-14.2
	C3267.4-1285.2,3264.3-1280.4,3261.2-1275.7z"/>
<path opacity="0.15" fill="#101111" enable-background="new    " d="M3273.8-1294.8c2.1-3.2,4.3-6.4,6.4-9.7
	C3278-1301.2,3275.9-1298,3273.8-1294.8z"/>
<path opacity="0.15" fill="#101111" enable-background="new    " d="M3096.5-989.5c1.6-3.1,3.2-6.3,4.8-9.4
	C3099.7-995.8,3098.1-992.7,3096.5-989.5z"/>
<path opacity="0.15" fill="#101111" enable-background="new    " d="M3204.6-1185.2c2-3.3,4-6.6,6-10
	C3208.6-1191.8,3206.6-1188.5,3204.6-1185.2z"/>
<path opacity="0.15" fill="#101111" enable-background="new    " d="M3214.2-1201c1.9-3,3.7-6.1,5.6-9.1
	C3217.9-1207,3216.1-1204,3214.2-1201z"/>
<path opacity="0.15" fill="#101111" enable-background="new    " d="M3232.8-1231.2c1.9-3,3.8-6,5.7-9
	C3236.6-1237.2,3234.7-1234.2,3232.8-1231.2z"/>
<path opacity="0.15" fill="#101111" enable-background="new    " d="M3088.4-973.5c1.6-3.2,3.2-6.4,4.8-9.7
	C3091.6-979.9,3090-976.7,3088.4-973.5z"/>
<path opacity="0.15" fill="#101111" enable-background="new    " d="M3223.5-1216.2c1.8-3,3.7-5.9,5.5-8.9
	C3227.2-1222.1,3225.4-1219.1,3223.5-1216.2z"/>
<path opacity="0.15" fill="#101111" enable-background="new    " d="M2954.1-662.3c1.4-3.8,2.8-7.5,4.2-11.2
	C2956.9-669.8,2955.5-666,2954.1-662.3z"/>
<path opacity="0.15" fill="#101111" enable-background="new    " d="M3747.1-1853.8c4.1-3.8,8.2-7.6,12.3-11.4
	C3755.3-1861.3,3751.2-1857.6,3747.1-1853.8z"/>
<path opacity="0.15" fill="#101111" enable-background="new    " d="M3760.3-1865.9c4.1-3.8,8.2-7.5,12.3-11.3
	C3768.5-1873.4,3764.4-1869.7,3760.3-1865.9z"/>
<path opacity="0.15" fill="#101111" enable-background="new    " d="M2929.9-593.7c1.3-3.8,2.6-7.6,3.9-11.4
	C2932.5-601.3,2931.2-597.5,2929.9-593.7z"/>
<path opacity="0.15" fill="#101111" enable-background="new    " d="M3734.4-1841.9c2.8-2.6,5.6-5.2,8.4-7.8
	C3740-1847.1,3737.2-1844.5,3734.4-1841.9z"/>
<path opacity="0.15" fill="#101111" enable-background="new    " d="M3777.1-1881.2c2.8-2.6,5.6-5.1,8.5-7.7
	C3782.7-1886.3,3779.9-1883.8,3777.1-1881.2z"/>
<path opacity="0.15" fill="#101111" enable-background="new    " d="M2916.9-554.5c3.7-11.3,7.4-22.5,11.2-33.7
	C2924.3-577,2920.5-565.8,2916.9-554.5z"/>
<path opacity="0.15" fill="#101111" enable-background="new    " d="M3696.4-1805.4c2.5-2.5,5-4.9,7.6-7.3
	C3701.4-1810.3,3698.9-1807.9,3696.4-1805.4z"/>
<path opacity="0.15" fill="#101111" enable-background="new    " d="M2942-628.7c1.2-3.4,2.4-6.8,3.6-10.2
	C2944.4-635.4,2943.2-632,2942-628.7z"/>
<path opacity="0.15" fill="#101111" enable-background="new    " d="M3721.8-1829.9c2.5-2.4,5.1-4.8,7.6-7.2
	C3726.9-1834.7,3724.3-1832.3,3721.8-1829.9z"/>
<path opacity="0.15" fill="#101111" enable-background="new    " d="M3790.7-1893.5c2.6-2.3,5.2-4.7,7.9-7
	C3795.9-1898.2,3793.3-1895.8,3790.7-1893.5z"/>
<path opacity="0.15" fill="#101111" enable-background="new    " d="M3002-784.5c1.5-3.7,3.1-7.3,4.6-11
	C3005.1-791.8,3003.5-788.1,3002-784.5z"/>
<path opacity="0.15" fill="#101111" enable-background="new    " d="M2936-611.5c1.2-3.5,2.4-6.9,3.6-10.4
	C2938.5-618.5,2937.2-615,2936-611.5z"/>
<path opacity="0.15" fill="#101111" enable-background="new    " d="M2911.4-537.6c1.2-3.8,2.5-7.7,3.7-11.5
	C2913.9-545.2,2912.6-541.4,2911.4-537.6z"/>
<path opacity="0.15" fill="#101111" enable-background="new    " d="M3874.4-1965.8c2.9-2.4,5.9-4.9,8.8-7.3
	C3880.3-1970.7,3877.4-1968.2,3874.4-1965.8z"/>
<path opacity="0.15" fill="#101111" enable-background="new    " d="M2900.7-503.3c1.1-3.5,2.1-6.9,3.2-10.4
	C2902.9-510.2,2901.8-506.8,2900.7-503.3z"/>
<path opacity="0.15" fill="#101111" enable-background="new    " d="M3857.1-1951.3c4.2-3.6,8.5-7.2,12.8-10.7
	C3865.6-1958.4,3861.4-1954.9,3857.1-1951.3z"/>
<path opacity="0.15" fill="#101111" enable-background="new    " d="M3888.6-1977.5c2.7-2.2,5.4-4.5,8.2-6.7
	C3894-1982,3891.3-1979.7,3888.6-1977.5z"/>
<path opacity="0.15" fill="#101111" enable-background="new    " d="M2895.4-485.8c1.1-3.6,2.1-7.1,3.2-10.7
	C2897.6-492.9,2896.5-489.4,2895.4-485.8z"/>
<path opacity="0.15" fill="#101111" enable-background="new    " d="M3817.1-1916.8c2.6-2.3,5.3-4.6,7.9-6.9
	C3822.4-1921.5,3819.7-1919.2,3817.1-1916.8z"/>
<path opacity="0.15" fill="#101111" enable-background="new    " d="M3843.4-1939.6c4.2-3.6,8.4-7.2,12.7-10.8
	C3851.9-1946.8,3847.6-1943.2,3843.4-1939.6z"/>
<path opacity="0.15" fill="#101111" enable-background="new    " d="M3803.9-1905.3c2.6-2.3,5.2-4.6,7.8-6.8
	C3809.1-1909.8,3806.5-1907.5,3803.9-1905.3z"/>
<path opacity="0.15" fill="#101111" enable-background="new    " d="M3683.3-1792.6c2.7-2.7,5.4-5.4,8.2-8
	C3688.7-1798,3686-1795.3,3683.3-1792.6z"/>
<path opacity="0.15" fill="#101111" enable-background="new    " d="M3830.2-1928.3c2.9-2.5,5.8-5,8.7-7.5
	C3836-1933.3,3833.1-1930.8,3830.2-1928.3z"/>
<path opacity="0.15" fill="#101111" enable-background="new    " d="M2906-520.5c1.1-3.5,2.2-7,3.3-10.6
	C2908.3-527.5,2907.1-524,2906-520.5z"/>
<path opacity="0.15" fill="#101111" enable-background="new    " d="M3709.1-1817.8c2.5-2.4,5-4.8,7.4-7.1
	C3714.1-1822.5,3711.6-1820.2,3709.1-1817.8z"/>
<path opacity="0.15" fill="#101111" enable-background="new    " d="M3530.9-1631.3c2.3-2.6,4.6-5.2,6.9-7.8
	C3535.5-1636.5,3533.2-1633.9,3530.9-1631.3z"/>
<path opacity="0.15" fill="#101111" enable-background="new    " d="M3542.5-1644.5c2.3-2.6,4.7-5.3,7-7.9
	C3547.2-1649.7,3544.8-1647.1,3542.5-1644.5z"/>
<path opacity="0.15" fill="#101111" enable-background="new    " d="M2988.5-751.6c1.3-3.3,2.7-6.6,4-9.9
	C2991.2-758.2,2989.9-754.9,2988.5-751.6z"/>
<path opacity="0.15" fill="#101111" enable-background="new    " d="M2981.8-734.8c1.3-3.4,2.7-6.8,4-10.1
	C2984.5-741.6,2983.2-738.2,2981.8-734.8z"/>
<path opacity="0.15" fill="#101111" enable-background="new    " d="M3554.1-1657.5c2.6-2.8,5.1-5.7,7.7-8.5
	C3559.3-1663.1,3556.7-1660.3,3554.1-1657.5z"/>
<path opacity="0.15" fill="#101111" enable-background="new    " d="M3507.2-1604.1c2.5-2.9,5-5.8,7.5-8.7
	C3512.2-1609.9,3509.7-1607,3507.2-1604.1z"/>
<path opacity="0.15" fill="#101111" enable-background="new    " d="M3492.5-1586.8c3.6-4.3,7.2-8.5,10.8-12.7
	C3499.7-1595.3,3496.1-1591.1,3492.5-1586.8z"/>
<path opacity="0.15" fill="#101111" enable-background="new    " d="M3519.2-1618c2.3-2.7,4.6-5.3,6.9-7.9
	C3523.8-1623.3,3521.5-1620.6,3519.2-1618z"/>
<path opacity="0.15" fill="#101111" enable-background="new    " d="M3481-1573.1c3.6-4.3,7.2-8.6,10.8-12.8
	C3488.2-1581.7,3484.6-1577.4,3481-1573.1z"/>
<path opacity="0.15" fill="#101111" enable-background="new    " d="M3667.3-1776.7c3.9-3.9,7.8-7.8,11.8-11.7
	C3675.1-1784.5,3671.2-1780.6,3667.3-1776.7z"/>
<path opacity="0.15" fill="#101111" enable-background="new    " d="M2995.2-768.1c1.4-3.4,2.8-6.7,4.2-10.1
	C2998-774.8,2996.6-771.5,2995.2-768.1z"/>
<path opacity="0.15" fill="#101111" enable-background="new    " d="M3565.8-1670.4c3.7-4.1,7.5-8.2,11.2-12.3
	C3573.3-1678.6,3569.5-1674.5,3565.8-1670.4z"/>
<path opacity="0.15" fill="#101111" enable-background="new    " d="M3642.4-1751.6c2.7-2.7,5.3-5.5,8-8.2
	C3647.7-1757,3645-1754.3,3642.4-1751.6z"/>
<path opacity="0.15" fill="#101111" enable-background="new    " d="M3630.2-1739.1c2.4-2.5,4.9-5,7.3-7.6
	C3635.1-1744.1,3632.7-1741.6,3630.2-1739.1z"/>
<path opacity="0.15" fill="#101111" enable-background="new    " d="M3902.3-1988.8c2.7-2.2,5.4-4.3,8-6.5
	C3907.7-1993.1,3905-1990.9,3902.3-1988.8z"/>
<path opacity="0.15" fill="#101111" enable-background="new    " d="M2975-717.3c1.4-3.7,2.9-7.4,4.3-11.1
	C2977.9-724.7,2976.4-721,2975-717.3z"/>
<path opacity="0.15" fill="#101111" enable-background="new    " d="M3654.6-1764c3.9-3.9,7.8-7.9,11.7-11.8
	C3662.4-1771.8,3658.5-1767.9,3654.6-1764z"/>
<path opacity="0.15" fill="#101111" enable-background="new    " d="M2948.1-645.5c1.2-3.4,2.5-6.9,3.7-10.3
	C2950.6-652.4,2949.3-649,2948.1-645.5z"/>
<path opacity="0.15" fill="#101111" enable-background="new    " d="M3578-1683.6c3.8-4.1,7.5-8.2,11.3-12.2
	C3585.5-1691.8,3581.7-1687.7,3578-1683.6z"/>
<path opacity="0.15" fill="#101111" enable-background="new    " d="M3593.3-1700.2c2.6-2.8,5.2-5.6,7.8-8.4
	C3598.5-1705.8,3595.9-1703,3593.3-1700.2z"/>
<path opacity="0.15" fill="#101111" enable-background="new    " d="M2960.3-678.9c4.1-11.1,8.3-22.1,12.6-33.1
	C2968.6-701,2964.4-689.9,2960.3-678.9z"/>
<path opacity="0.15" fill="#101111" enable-background="new    " d="M3618.1-1726.4c2.4-2.5,4.8-5,7.2-7.5
	C3622.8-1731.4,3620.5-1728.9,3618.1-1726.4z"/>
<path opacity="0.15" fill="#101111" enable-background="new    " d="M3605.8-1713.6c2.4-2.6,4.8-5.1,7.3-7.7
	C3610.7-1718.7,3608.3-1716.1,3605.8-1713.6z"/>
<path opacity="0.15" fill="#101111" enable-background="new    " d="M3469.9-1559.7c2.4-2.9,4.9-5.9,7.3-8.8
	C3474.7-1565.6,3472.3-1562.7,3469.9-1559.7z"/>
<path opacity="0.15" fill="#101111" enable-background="new    " d="M3234,2024.9c0.5,0.8,1,1.5,1.4,2.3c0.1,0.2,0.3,0.5,0.5,0.7
	c-0.7-1.2-1.4-2.3-2.2-3.5C3233.8,2024.6,3233.9,2024.8,3234,2024.9z"/>
<path opacity="0.15" fill="#101111" enable-background="new    " d="M3429.4,2301.7c-0.4-0.5-0.8-1-1.2-1.5
	C3428.6,2300.7,3429,2301.2,3429.4,2301.7z"/>
<path opacity="0.15" fill="#101111" enable-background="new    " d="M6075.1-2667.1c-1.2-0.1-2.4-0.2-3.5-0.3c-0.1,0-0.1,0-0.2,0
	C6072.6-2667.2,6073.9-2667.2,6075.1-2667.1C6075.1-2667.1,6075.1-2667.1,6075.1-2667.1z"/>
<path opacity="0.15" fill="#101111" enable-background="new    " d="M6101-2665c-1.8-0.2-3.7-0.3-5.5-0.5c0,0,0,0,0,0
	c2,0.2,4,0.3,6,0.5C6101.3-2664.9,6101.2-2665,6101-2665z"/>
<path opacity="0.15" fill="#101111" enable-background="new    " d="M7841.1-1934c-0.3-0.2-0.6-0.5-0.9-0.7c0,0-0.1-0.1-0.1-0.1
	C7840.5-1934.6,7840.8-1934.3,7841.1-1934C7841.1-1934,7841.1-1934,7841.1-1934z"/>
<path opacity="0.15" fill="#101111" enable-background="new    " d="M3223.6,2008.3c0.3,0.5,0.6,1,0.9,1.4c0.2,0.4,0.5,0.7,0.7,1.1
	c-0.6-1-1.2-2-1.8-3C3223.4,2008,3223.5,2008.1,3223.6,2008.3z"/>
<path opacity="0.15" fill="#101111" enable-background="new    " d="M7856.4-1920.8c-0.4-0.3-0.8-0.7-1.2-1c0,0-0.1-0.1-0.1-0.1
	c0.5,0.4,1,0.8,1.4,1.3C7856.5-1920.7,7856.4-1920.8,7856.4-1920.8z"/>
<path opacity="0.15" fill="#101111" enable-background="new    " d="M6034.2-2669.9c-2.7-0.2-5.5-0.3-8.2-0.5c-0.1,0-0.1,0-0.2,0
	C6028.6-2670.2,6031.4-2670.1,6034.2-2669.9C6034.2-2669.9,6034.2-2669.9,6034.2-2669.9z"/>
<path opacity="0.15" fill="#101111" enable-background="new    " d="M3244.5,2041.6c0.6,0.9,1.1,1.8,1.7,2.7
	c0.2,0.2,0.3,0.5,0.5,0.7c-0.8-1.3-1.7-2.6-2.5-3.9C3244.3,2041.3,3244.4,2041.5,3244.5,2041.6z"/>
<path opacity="0.15" fill="#101111" enable-background="new    " d="M6013.6-2671.1c-2.9-0.2-5.8-0.3-8.7-0.5c0,0-0.1,0-0.1,0
	c3,0.2,5.9,0.3,8.9,0.5C6013.7-2671.1,6013.7-2671.1,6013.6-2671.1z"/>
<path opacity="0.15" fill="#101111" enable-background="new    " d="M6054.6-2668.5c-2.4-0.2-4.8-0.3-7.2-0.5c0,0,0,0,0,0
	C6049.8-2668.9,6052.2-2668.7,6054.6-2668.5C6054.6-2668.5,6054.6-2668.5,6054.6-2668.5z"/>
<path opacity="0.15" fill="#101111" enable-background="new    " d="M3418.4,2287.8c-0.3-0.4-0.6-0.8-1-1.2
	C3417.8,2286.9,3418.1,2287.4,3418.4,2287.8z"/>
<path opacity="0.15" fill="#101111" enable-background="new    " d="M6115.9-2663.7C6115.8-2663.7,6115.8-2663.7,6115.9-2663.7
	c1.8,0.2,3.8,0.3,5.7,0.5C6119.7-2663.3,6117.8-2663.5,6115.9-2663.7z"/>
<path opacity="0.15" fill="#101111" enable-background="new    " d="M7004.3-2447.3c1.5,0.6,3.1,1.3,4.6,1.9
	C7007.3-2446,7005.8-2446.6,7004.3-2447.3z"/>
<path opacity="0.15" fill="#101111" enable-background="new    " d="M7166.6-2375.1c-0.1,0-0.2-0.1-0.2-0.1c0.5,0.2,1,0.5,1.5,0.7
	C7167.4-2374.7,7167-2374.9,7166.6-2375.1z"/>
<path opacity="0.15" fill="#101111" enable-background="new    " d="M7128.5-2393C7128.5-2393,7128.5-2393.1,7128.5-2393
	c1.1,0.5,2.3,1.1,3.4,1.6C7130.8-2392,7129.7-2392.5,7128.5-2393z"/>
<path opacity="0.15" fill="#101111" enable-background="new    " d="M6974.3-2459.4c1.4,0.6,2.9,1.1,4.3,1.7
	C6977.2-2458.2,6975.7-2458.8,6974.3-2459.4z"/>
<path opacity="0.15" fill="#101111" enable-background="new    " d="M6989-2453.5c1.7,0.7,3.4,1.4,5.1,2.1
	C6992.4-2452.1,6990.7-2452.8,6989-2453.5z"/>
<path opacity="0.15" fill="#101111" enable-background="new    " d="M3255.2,2058.4c0.6,0.9,1.2,1.8,1.7,2.7
	c0.1,0.2,0.2,0.3,0.3,0.5c-0.8-1.2-1.6-2.5-2.4-3.7C3255,2058,3255.1,2058.2,3255.2,2058.4z"/>
<path opacity="0.15" fill="#101111" enable-background="new    " d="M7825.4-1947.5C7825.3-1947.5,7825.3-1947.5,7825.4-1947.5
	c-0.1-0.1-0.2-0.2-0.2-0.2c0.2,0.2,0.4,0.4,0.6,0.5C7825.6-1947.2,7825.5-1947.4,7825.4-1947.5z"/>
<path opacity="0.15" fill="#101111" enable-background="new    " d="M3451.5,2329.3c-0.5-0.6-1-1.2-1.4-1.8
	C3450.6,2328.1,3451.1,2328.7,3451.5,2329.3z"/>
<path opacity="0.15" fill="#101111" enable-background="new    " d="M7242-2337.6c-0.6-0.3-1.1-0.6-1.7-0.9c0,0,0,0,0,0
	c0.7,0.4,1.4,0.7,2.1,1.1C7242.2-2337.5,7242.1-2337.6,7242-2337.6z"/>
<path opacity="0.15" fill="#101111" enable-background="new    " d="M5821.1-2675.9c6,0,11.9-0.1,17.9-0.1
	C5833-2676,5827.1-2676,5821.1-2675.9z"/>
<path opacity="0.15" fill="#101111" enable-background="new    " d="M3171.8,1921.2c0.2,0.3,0.4,0.7,0.6,1c0.1,0.1,0.2,0.3,0.2,0.4
	c-0.6-1-1.1-2-1.7-3C3171.2,1920.1,3171.5,1920.7,3171.8,1921.2z"/>
<path opacity="0.15" fill="#101111" enable-background="new    " d="M8002.8-1784.6c-0.1-0.1-0.2-0.2-0.3-0.3c0,0,0,0,0,0
	c0.1,0.1,0.3,0.3,0.4,0.4C8002.9-1784.5,8002.8-1784.6,8002.8-1784.6z"/>
<path opacity="0.15" fill="#101111" enable-background="new    " d="M5866.7-2675.9c-2.3,0-4.6-0.1-6.9-0.1c0,0-0.1,0-0.1,0
	c2.8,0,5.5,0.1,8.3,0.1C5867.5-2675.9,5867.1-2675.9,5866.7-2675.9z"/>
<path opacity="0.15" fill="#101111" enable-background="new    " d="M5779.6-2675.4c5.9-0.1,11.8-0.2,17.7-0.3
	C5791.4-2675.6,5785.5-2675.5,5779.6-2675.4z"/>
<path opacity="0.15" fill="#101111" enable-background="new    " d="M5984.2-2672.6C5984.2-2672.6,5984.2-2672.6,5984.2-2672.6
	c1.3,0.1,2.5,0.1,3.8,0.2C5986.7-2672.5,5985.4-2672.6,5984.2-2672.6z"/>
<path opacity="0.15" fill="#101111" enable-background="new    " d="M8017.2-1770.2c-0.3-0.3-0.5-0.5-0.8-0.8c0,0,0,0-0.1-0.1
	c0.4,0.4,0.7,0.7,1.1,1.1C8017.4-1770,8017.3-1770.1,8017.2-1770.2z"/>
<path opacity="0.15" fill="#101111" enable-background="new    " d="M3161.2,1902.6c0.5,0.9,1,1.7,1.4,2.6c0.1,0.2,0.2,0.3,0.3,0.5
	c-0.8-1.4-1.6-2.8-2.3-4.1C3160.8,1901.9,3161,1902.3,3161.2,1902.6z"/>
<path opacity="0.15" fill="#101111" enable-background="new    " d="M5802.6-2675.8c4.4-0.1,8.8-0.1,13.2-0.1
	C5811.4-2675.9,5807-2675.8,5802.6-2675.8z"/>
<path opacity="0.15" fill="#101111" enable-background="new    " d="M5888.7-2675.6c-2.7,0-5.5-0.1-8.2-0.1c0,0-0.1,0-0.1,0
	c2.8,0,5.7,0.1,8.5,0.1C5888.9-2675.6,5888.8-2675.6,5888.7-2675.6z"/>
<path opacity="0.15" fill="#101111" enable-background="new    " d="M3440.4,2315.6c-0.4-0.6-0.9-1.1-1.3-1.7
	C3439.5,2314.4,3440,2315,3440.4,2315.6z"/>
<path opacity="0.15" fill="#101111" enable-background="new    " d="M5740-2674.4c-0.1,0-0.2,0-0.2,0c12.6-0.4,25.1-0.7,37.7-1
	C5765-2675.1,5752.4-2674.8,5740-2674.4z"/>
<path opacity="0.15" fill="#101111" enable-background="new    " d="M5951.7-2674c-3-0.1-6-0.2-9-0.3c-0.1,0-0.1,0-0.2,0
	c3.1,0.1,6.3,0.2,9.4,0.3C5951.9-2674,5951.8-2674,5951.7-2674z"/>
<path opacity="0.15" fill="#101111" enable-background="new    " d="M7871.4-1907.7c-0.4-0.3-0.8-0.7-1.1-1c0,0-0.1-0.1-0.1-0.1
	c0.5,0.4,0.9,0.8,1.4,1.2C7871.4-1907.6,7871.4-1907.6,7871.4-1907.7z"/>
<path opacity="0.15" fill="#101111" enable-background="new    " d="M5963.4-2673.5c-0.1,0-0.2,0-0.2,0c2.9,0.1,5.9,0.2,8.8,0.4
	C5969.2-2673.3,5966.3-2673.4,5963.4-2673.5z"/>
<path opacity="0.15" fill="#101111" enable-background="new    " d="M7886.1-1894.6c-0.2-0.2-0.5-0.4-0.7-0.7
	c-0.1-0.1-0.1-0.1-0.2-0.2C7885.5-1895.1,7885.8-1894.8,7886.1-1894.6C7886.1-1894.5,7886.1-1894.5,7886.1-1894.6z"/>
<path opacity="0.15" fill="#101111" enable-background="new    " d="M5910-2675.2c-2.9-0.1-5.8-0.1-8.7-0.2c0,0-0.1,0-0.1,0
	c3,0.1,6,0.1,9,0.2C5910.1-2675.2,5910.1-2675.2,5910-2675.2z"/>
<path opacity="0.15" fill="#101111" enable-background="new    " d="M3198.5,1967c-0.6-1-1.2-2.1-1.9-3.1
	C3197.3,1964.9,3197.9,1965.9,3198.5,1967z"/>
<path opacity="0.15" fill="#101111" enable-background="new    " d="M5931-2674.6c-3-0.1-6-0.2-8.9-0.3c0,0-0.1,0-0.1,0
	c3.1,0.1,6.1,0.2,9.2,0.3C5931.1-2674.6,5931-2674.6,5931-2674.6z"/>
<path opacity="0.15" fill="#101111" enable-background="new    " d="M3185.3,1944.6c-0.2-0.3-0.4-0.7-0.6-1
	C3184.9,1944,3185.1,1944.3,3185.3,1944.6z"/>
<path opacity="0.15" fill="#101111" enable-background="new    " d="M7756.9-2003.9c0.6,0.5,1.1,0.9,1.7,1.4
	C7758-2003,7757.4-2003.5,7756.9-2003.9z"/>
<path opacity="0.15" fill="#101111" enable-background="new    " d="M7590.3-2128.3c0.4,0.3,0.8,0.6,1.2,0.8
	C7591.1-2127.7,7590.7-2128,7590.3-2128.3z"/>
<path opacity="0.15" fill="#101111" enable-background="new    " d="M3382,2240.3c0.5,0.6,0.9,1.2,1.4,1.8c0.1,0.1,0.2,0.2,0.2,0.3
	c-0.6-0.8-1.2-1.6-1.9-2.5C3381.8,2240.1,3381.9,2240.2,3382,2240.3z"/>
<path opacity="0.15" fill="#101111" enable-background="new    " d="M3341.5,2185.2c-0.7-1-1.5-2.1-2.2-3.1
	C3340,2183.1,3340.8,2184.1,3341.5,2185.2z"/>
<path opacity="0.15" fill="#101111" enable-background="new    " d="M7700.9-2047.6c-0.6-0.4-1.1-0.8-1.7-1.3c0,0,0,0,0,0
	C7699.8-2048.5,7700.4-2048.1,7700.9-2047.6C7700.9-2047.6,7700.9-2047.6,7700.9-2047.6z"/>
<path opacity="0.15" fill="#101111" enable-background="new    " d="M7811.5-1959.2c0.4,0.4,0.9,0.7,1.3,1.1
	C7812.4-1958.4,7811.9-1958.8,7811.5-1959.2z"/>
<path opacity="0.15" fill="#101111" enable-background="new    " d="M3308.1,2137.7c-1-1.4-1.9-2.8-2.9-4.2
	C3306.2,2134.9,3307.1,2136.3,3308.1,2137.7z"/>
<path opacity="0.15" fill="#101111" enable-background="new    " d="M7553.3-2153.6c-0.1-0.1-0.3-0.2-0.4-0.3
	c-0.2-0.2-0.5-0.3-0.7-0.5c0.5,0.3,1,0.7,1.5,1C7553.5-2153.4,7553.4-2153.5,7553.3-2153.6z"/>
<path opacity="0.15" fill="#101111" enable-background="new    " d="M3316.3,2149.4c-0.6-0.8-1.1-1.6-1.7-2.4
	C3315.2,2147.9,3315.7,2148.6,3316.3,2149.4z"/>
<path opacity="0.15" fill="#101111" enable-background="new    " d="M7563.3-2146.8c1.3,0.9,2.6,1.8,3.9,2.7
	C7565.9-2145,7564.6-2145.9,7563.3-2146.8z"/>
<path opacity="0.15" fill="#101111" enable-background="new    " d="M7743.2-2014.8c0.5,0.4,1,0.8,1.5,1.2
	C7744.2-2014,7743.7-2014.4,7743.2-2014.8z"/>
<path opacity="0.15" fill="#101111" enable-background="new    " d="M7716.5-2035.7c-0.4-0.3-0.7-0.6-1.1-0.9c0,0-0.1-0.1-0.1-0.1
	c0.5,0.4,1,0.7,1.4,1.1C7716.6-2035.6,7716.6-2035.6,7716.5-2035.7z"/>
<path opacity="0.15" fill="#101111" enable-background="new    " d="M7638-2094.4c1,0.7,2,1.4,2.9,2.1
	C7640-2092.9,7639-2093.7,7638-2094.4z"/>
<path opacity="0.15" fill="#101111" enable-background="new    " d="M3358.4,2208.5c0.3,0.4,0.5,0.7,0.8,1.1
	c0.2,0.2,0.4,0.5,0.6,0.8c-0.6-0.8-1.1-1.6-1.7-2.3C3358.2,2208.2,3358.3,2208.4,3358.4,2208.5z"/>
<path opacity="0.15" fill="#101111" enable-background="new    " d="M3370.1,2224.4c0.4,0.6,0.8,1.1,1.3,1.7
	c0.1,0.1,0.2,0.2,0.2,0.3c-0.6-0.8-1.2-1.6-1.8-2.4C3369.9,2224.1,3370,2224.3,3370.1,2224.4z"/>
<path opacity="0.15" fill="#101111" enable-background="new    " d="M7685.1-2059.6c-0.6-0.5-1.2-0.9-1.9-1.4
	c-0.1-0.1-0.2-0.1-0.3-0.2c0.8,0.6,1.6,1.2,2.4,1.8C7685.3-2059.5,7685.2-2059.6,7685.1-2059.6z"/>
<path opacity="0.15" fill="#101111" enable-background="new    " d="M3350.9,2198.2c-0.8-1.1-1.6-2.2-2.4-3.3
	C3349.3,2196,3350.1,2197.1,3350.9,2198.2z"/>
<path opacity="0.15" fill="#101111" enable-background="new    " d="M7729.6-2025.5c0.4,0.3,0.7,0.6,1.1,0.8
	C7730.4-2024.9,7730-2025.2,7729.6-2025.5z"/>
<path opacity="0.15" fill="#101111" enable-background="new    " d="M7669.1-2071.6c-0.6-0.4-1.1-0.8-1.7-1.3
	c-0.1-0.1-0.2-0.2-0.3-0.2c0.8,0.6,1.7,1.2,2.5,1.9C7669.4-2071.4,7669.3-2071.5,7669.1-2071.6z"/>
<path opacity="0.15" fill="#101111" enable-background="new    " d="M7652.7-2083.7c-0.4-0.3-0.7-0.5-1.1-0.8
	c-0.1-0.1-0.3-0.2-0.4-0.3c0.7,0.5,1.4,1,2.1,1.6C7653.1-2083.4,7652.9-2083.6,7652.7-2083.7z"/>
<path opacity="0.15" fill="#101111" enable-background="new    " d="M7625.5-2103.4c0.8,0.6,1.7,1.2,2.5,1.8
	C7627.2-2102.2,7626.3-2102.8,7625.5-2103.4z"/>
<path opacity="0.15" fill="#101111" enable-background="new    " d="M3406.5,2272.4c0.3,0.4,0.6,0.7,0.8,1.1
	c0.1,0.1,0.1,0.2,0.2,0.3c-0.5-0.6-0.9-1.2-1.4-1.8C3406.3,2272.1,3406.4,2272.3,3406.5,2272.4z"/>
<path opacity="0.15" fill="#101111" enable-background="new    " d="M3277.4,2092.3c0.4,0.6,0.8,1.1,1.1,1.7
	c0.1,0.1,0.2,0.3,0.3,0.4c-0.6-1-1.3-2-1.9-2.9C3277,2091.7,3277.2,2092,3277.4,2092.3z"/>
<path opacity="0.15" fill="#101111" enable-background="new    " d="M7452.7-2218.5c-0.5-0.3-1-0.6-1.4-0.9c0,0,0,0,0,0
	c0.5,0.3,1.1,0.7,1.6,1C7452.8-2218.5,7452.7-2218.5,7452.7-2218.5z"/>
<path opacity="0.15" fill="#101111" enable-background="new    " d="M7797.9-1970.5c0.5,0.5,1.1,0.9,1.6,1.4
	C7799-1969.6,7798.4-1970.1,7797.9-1970.5z"/>
<path opacity="0.15" fill="#101111" enable-background="new    " d="M7407.2-2246.1c0.8,0.5,1.6,0.9,2.3,1.4
	C7408.8-2245.2,7408-2245.6,7407.2-2246.1z"/>
<path opacity="0.15" fill="#101111" enable-background="new    " d="M7365.2-2270.7c-0.3-0.2-0.7-0.4-1-0.6c0,0,0,0,0,0
	C7364.5-2271.1,7364.9-2270.8,7365.2-2270.7C7365.2-2270.6,7365.2-2270.7,7365.2-2270.7z"/>
<path opacity="0.15" fill="#101111" enable-background="new    " d="M7537-2164.5c-0.6-0.4-1.2-0.8-1.7-1.2
	c-0.1-0.1-0.2-0.1-0.3-0.2c0.8,0.5,1.5,1,2.3,1.5C7537.2-2164.3,7537.1-2164.4,7537-2164.5z"/>
<path opacity="0.15" fill="#101111" enable-background="new    " d="M7260.7-2327.9c-1-0.5-2-1-3-1.6c0,0,0,0-0.1,0
	C7258.7-2329,7259.7-2328.4,7260.7-2327.9C7260.8-2327.9,7260.7-2327.9,7260.7-2327.9z"/>
<path opacity="0.15" fill="#101111" enable-background="new    " d="M7275.1-2320.3C7275.1-2320.3,7275.1-2320.3,7275.1-2320.3
	c0.9,0.5,2,1,3,1.6C7277.1-2319.3,7276.1-2319.8,7275.1-2320.3z"/>
<path opacity="0.15" fill="#101111" enable-background="new    " d="M3266.1,2075.2c0.5,0.8,1,1.6,1.6,2.4c0.1,0.1,0.2,0.3,0.3,0.4
	c-0.8-1.1-1.5-2.3-2.3-3.5C3265.9,2074.8,3266,2075,3266.1,2075.2z"/>
<path opacity="0.15" fill="#101111" enable-background="new    " d="M3299,2124.4c-1-1.4-2-2.9-3-4.3
	C3297,2121.5,3298,2122.9,3299,2124.4z"/>
<path opacity="0.15" fill="#101111" enable-background="new    " d="M7520.6-2175.3c-0.8-0.5-1.6-1.1-2.4-1.6
	c-0.1-0.1-0.2-0.2-0.4-0.2c1,0.7,2,1.3,3,2C7520.7-2175.2,7520.7-2175.2,7520.6-2175.3z"/>
<path opacity="0.15" fill="#101111" enable-background="new    " d="M7770.5-1992.9c0.6,0.5,1.2,1,1.8,1.5
	C7771.7-1991.9,7771.1-1992.4,7770.5-1992.9z"/>
<path opacity="0.15" fill="#101111" enable-background="new    " d="M3394.1,2256.2c0.4,0.6,0.8,1.1,1.3,1.7
	c0.1,0.1,0.2,0.2,0.2,0.3c-0.6-0.8-1.3-1.7-1.9-2.5C3393.8,2255.9,3393.9,2256.1,3394.1,2256.2z"/>
<path opacity="0.15" fill="#101111" enable-background="new    " d="M7784.2-1981.8c0.6,0.5,1.2,1,1.8,1.5
	C7785.4-1980.8,7784.8-1981.3,7784.2-1981.8z"/>
<path opacity="0.15" fill="#101111" enable-background="new    " d="M3289.1,2109.9c0.1,0.1,0.2,0.3,0.3,0.4
	c0.1,0.1,0.2,0.3,0.3,0.4c-0.5-0.7-0.9-1.3-1.4-2C3288.6,2109.1,3288.9,2109.5,3289.1,2109.9z"/>
<path opacity="0.15" fill="#101111" enable-background="new    " d="M7504.1-2186c-0.9-0.6-1.8-1.2-2.7-1.8
	c-0.1-0.1-0.2-0.1-0.3-0.2c1.1,0.7,2.2,1.4,3.3,2.1C7504.3-2185.9,7504.2-2186,7504.1-2186z"/>
<path opacity="0.15" fill="#101111" enable-background="new    " d="M7470.2-2207.6c-0.8-0.5-1.5-1-2.3-1.4c0,0,0,0,0,0
	c0.9,0.5,1.7,1.1,2.6,1.6C7470.4-2207.5,7470.3-2207.5,7470.2-2207.6z"/>
<path opacity="0.15" fill="#101111" enable-background="new    " d="M7487.3-2196.8c-0.9-0.6-1.8-1.1-2.7-1.7
	c-0.1,0-0.1-0.1-0.2-0.1c1.1,0.7,2.1,1.3,3.2,2C7487.5-2196.7,7487.4-2196.7,7487.3-2196.8z"/>
<path opacity="0.15" fill="#101111" enable-background="new    " d="M7576.7-2137.6c1.2,0.8,2.4,1.7,3.6,2.5
	C7579.1-2136,7577.9-2136.8,7576.7-2137.6z"/>
<path opacity="0.15" fill="#101111" enable-background="new    " d="M2792.7,794.8c0.4,2.8,0.7,5.5,1.1,8.3c0,0,0,0,0,0
	C2793.4,800.3,2793,797.5,2792.7,794.8C2792.7,794.7,2792.7,794.8,2792.7,794.8z"/>
<path opacity="0.15" fill="#101111" enable-background="new    " d="M2781.2,693.2c0.3,2.7,0.5,5.5,0.8,8.2c0,0,0,0.1,0,0.1
	C2781.7,698.7,2781.5,695.9,2781.2,693.2C2781.2,693.1,2781.2,693.2,2781.2,693.2z"/>
<path opacity="0.15" fill="#101111" enable-background="new    " d="M2798.3,836.3c0.3,1.8,0.5,3.6,0.8,5.3
	C2798.8,839.8,2798.6,838,2798.3,836.3C2798.3,836.2,2798.3,836.3,2798.3,836.3z"/>
<path opacity="0.15" fill="#101111" enable-background="new    " d="M5239.7-2617.6c11.8-2.3,23.7-4.6,35.6-6.8
	C5263.4-2622.2,5251.5-2619.9,5239.7-2617.6z"/>
<path opacity="0.15" fill="#101111" enable-background="new    " d="M5222-2614c4-0.8,8.1-1.6,12.1-2.4
	C5230.1-2615.6,5226-2614.8,5222-2614z"/>
<path opacity="0.15" fill="#101111" enable-background="new    " d="M5186.4-2606.5c3.6-0.8,7.2-1.6,10.8-2.3
	C5193.6-2608.1,5190-2607.3,5186.4-2606.5z"/>
<path opacity="0.15" fill="#101111" enable-background="new    " d="M2779.3,672.9c0.2,2.5,0.5,5,0.7,7.5c0,0.1,0,0.3,0,0.4
	C2779.8,678.1,2779.5,675.5,2779.3,672.9C2779.3,672.8,2779.3,672.9,2779.3,672.9z"/>
<path opacity="0.15" fill="#101111" enable-background="new    " d="M5372.2-2640.8c12-1.8,24.1-3.6,36.1-5.3
	C5396.3-2644.4,5384.2-2642.6,5372.2-2640.8z"/>
<path opacity="0.15" fill="#101111" enable-background="new    " d="M5204.2-2610.3c3.7-0.8,7.4-1.5,11.1-2.3
	C5211.6-2611.9,5207.9-2611.1,5204.2-2610.3z"/>
<path opacity="0.15" fill="#101111" enable-background="new    " d="M2997.4,1565.4c-0.5-1.3-1.1-2.6-1.6-4
	C2996.3,1562.8,2996.9,1564.1,2997.4,1565.4z"/>
<path opacity="0.15" fill="#101111" enable-background="new    " d="M3508.2,2397.2c0.2,0.3,0.5,0.6,0.7,0.9
	c0.2,0.2,0.4,0.4,0.5,0.6c-0.5-0.6-1-1.2-1.6-1.8C3508,2397,3508.1,2397.1,3508.2,2397.2z"/>
<path opacity="0.15" fill="#101111" enable-background="new    " d="M5280.8-2625.4c4.1-0.8,8.2-1.5,12.3-2.2
	C5289-2626.9,5284.9-2626.2,5280.8-2625.4z"/>
<path opacity="0.15" fill="#101111" enable-background="new    " d="M3547.8,2442.4c0.2,0.2,0.4,0.5,0.7,0.7c0,0,0.1,0.1,0.1,0.1
	c-0.3-0.3-0.6-0.7-0.9-1C3547.7,2442.2,3547.7,2442.3,3547.8,2442.4z"/>
<path opacity="0.15" fill="#101111" enable-background="new    " d="M5336.2-2635c3.8-0.6,7.5-1.2,11.3-1.8
	C5343.7-2636.3,5340-2635.7,5336.2-2635z"/>
<path opacity="0.15" fill="#101111" enable-background="new    " d="M5354.2-2638c4.1-0.7,8.3-1.3,12.4-1.9
	C5362.5-2639.3,5358.4-2638.6,5354.2-2638z"/>
<path opacity="0.15" fill="#101111" enable-background="new    " d="M2985.3,1535.5c-0.5-1.3-1-2.5-1.5-3.8
	C2984.3,1532.9,2984.8,1534.2,2985.3,1535.5z"/>
<path opacity="0.15" fill="#101111" enable-background="new    " d="M5299.8-2628.8c3.7-0.7,7.5-1.3,11.2-2
	C5307.3-2630.1,5303.6-2629.5,5299.8-2628.8z"/>
<path opacity="0.15" fill="#101111" enable-background="new    " d="M5318.1-2632c3.7-0.6,7.3-1.2,11-1.9
	C5325.5-2633.3,5321.8-2632.6,5318.1-2632z"/>
<path opacity="0.15" fill="#101111" enable-background="new    " d="M2991.4,1550.7c-0.6-1.5-1.2-3-1.8-4.5
	C2990.2,1547.8,2990.8,1549.3,2991.4,1550.7z"/>
<path opacity="0.15" fill="#101111" enable-background="new    " d="M3534.3,2427.2c0.3,0.4,0.7,0.7,1,1.1c0.1,0.1,0.1,0.1,0.2,0.2
	c-0.4-0.5-0.9-1-1.3-1.5C3534.2,2427.1,3534.3,2427.2,3534.3,2427.2z"/>
<path opacity="0.15" fill="#101111" enable-background="new    " d="M3672,2573.5c0.3,0.3,0.5,0.5,0.8,0.8c0.1,0.1,0.1,0.1,0.2,0.2
	C3672.7,2574.1,3672.3,2573.8,3672,2573.5C3672,2573.4,3672,2573.5,3672,2573.5z"/>
<path opacity="0.15" fill="#101111" enable-background="new    " d="M5039.1-2570.8c3.6-1,7.2-1.9,10.8-2.9
	C5046.2-2572.7,5042.7-2571.8,5039.1-2570.8z"/>
<path opacity="0.15" fill="#101111" enable-background="new    " d="M5056.8-2575.5c3.5-0.9,7.1-1.8,10.6-2.8
	C5063.8-2577.4,5060.3-2576.4,5056.8-2575.5z"/>
<path opacity="0.15" fill="#101111" enable-background="new    " d="M2767,396c0-6,0-11.9,0.1-17.9C2767,384.1,2767,390,2767,396z"
	/>
<path opacity="0.15" fill="#101111" enable-background="new    " d="M2771.9,570.6C2771.9,570.7,2771.9,570.7,2771.9,570.6
	c-0.1-2.4-0.3-4.9-0.4-7.4C2771.6,565.7,2771.8,568.2,2771.9,570.6z"/>
<path opacity="0.15" fill="#101111" enable-background="new    " d="M5020.7-2565.8c3.9-1.1,7.8-2.2,11.8-3.2
	C5028.6-2568,5024.6-2566.9,5020.7-2565.8z"/>
<path opacity="0.15" fill="#101111" enable-background="new    " d="M4980.8-2554.5c11.4-3.3,22.9-6.6,34.4-9.8
	C5003.7-2561.1,4992.3-2557.8,4980.8-2554.5z"/>
<path opacity="0.15" fill="#101111" enable-background="new    " d="M2767.1,372.8c0-4.4,0.1-8.9,0.1-13.3
	C2767.2,364,2767.1,368.4,2767.1,372.8z"/>
<path opacity="0.15" fill="#101111" enable-background="new    " d="M3686.2,2587.5c0.2,0.2,0.3,0.3,0.5,0.5
	C3686.5,2587.8,3686.3,2587.6,3686.2,2587.5C3686.1,2587.4,3686.2,2587.4,3686.2,2587.5z"/>
<path opacity="0.15" fill="#101111" enable-background="new    " d="M5091.8-2584.5c4-1,7.9-2,11.9-2.9
	C5099.7-2586.4,5095.7-2585.5,5091.8-2584.5z"/>
<path opacity="0.15" fill="#101111" enable-background="new    " d="M2775.9,632.1C2775.9,632.1,2775.9,632.1,2775.9,632.1
	c0-0.5-0.1-0.9-0.1-1.4C2775.9,631.1,2775.9,631.6,2775.9,632.1z"/>
<path opacity="0.15" fill="#101111" enable-background="new    " d="M2778,658C2778,658,2778,658,2778,658c0-0.1,0-0.2,0-0.4
	C2778,657.7,2778,657.9,2778,658z"/>
<path opacity="0.15" fill="#101111" enable-background="new    " d="M5109.2-2588.8c11.6-2.8,23.3-5.6,35-8.3
	C5132.5-2594.4,5120.8-2591.6,5109.2-2588.8z"/>
<path opacity="0.15" fill="#101111" enable-background="new    " d="M5149.8-2598.4c4-0.9,8-1.8,12-2.7
	C5157.7-2600.2,5153.8-2599.3,5149.8-2598.4z"/>
<path opacity="0.15" fill="#101111" enable-background="new    " d="M3658.1,2559.5c0.1,0.1,0.2,0.2,0.3,0.3
	c0.1,0.1,0.2,0.2,0.3,0.3c-0.2-0.2-0.5-0.5-0.7-0.7C3658,2559.4,3658.1,2559.5,3658.1,2559.5z"/>
<path opacity="0.15" fill="#101111" enable-background="new    " d="M2772.6,582.9c0.2,2.7,0.3,5.5,0.5,8.2c0,0,0,0,0,0
	C2772.9,588.4,2772.8,585.7,2772.6,582.9C2772.6,582.9,2772.6,582.9,2772.6,582.9z"/>
<path opacity="0.15" fill="#101111" enable-background="new    " d="M5074.3-2580.1c3.6-0.9,7.2-1.8,10.8-2.8
	C5081.5-2581.9,5077.9-2581,5074.3-2580.1z"/>
<path opacity="0.15" fill="#101111" enable-background="new    " d="M5168.4-2602.6c3.7-0.8,7.3-1.6,11-2.4
	C5175.7-2604.2,5172.1-2603.4,5168.4-2602.6z"/>
<path opacity="0.15" fill="#101111" enable-background="new    " d="M3521.2,2412.2c0.3,0.4,0.7,0.8,1,1.2c0.1,0.1,0.2,0.2,0.3,0.3
	c-0.5-0.6-1-1.2-1.6-1.8C3521,2412,3521.1,2412.1,3521.2,2412.2z"/>
<path opacity="0.15" fill="#101111" enable-background="new    " d="M3132,1849.6c0.7,1.3,1.4,2.5,2,3.8c0,0.1,0.1,0.2,0.1,0.3
	c-0.8-1.4-1.5-2.8-2.3-4.2C3132,1849.5,3132,1849.6,3132,1849.6z"/>
<path opacity="0.15" fill="#101111" enable-background="new    " d="M5641.7-2669.8c-5.9,0.4-11.8,0.8-17.7,1.2
	c6-0.4,11.9-0.8,17.9-1.2C5641.8-2669.8,5641.8-2669.8,5641.7-2669.8z"/>
<path opacity="0.15" fill="#101111" enable-background="new    " d="M3484.9,2369.8c-0.4-0.4-0.7-0.8-1.1-1.3
	C3484.2,2368.9,3484.6,2369.4,3484.9,2369.8z"/>
<path opacity="0.15" fill="#101111" enable-background="new    " d="M5583.2-2665.5c-2,0.2-4.1,0.4-6.1,0.5
	c7.9-0.7,15.8-1.3,23.7-1.9C5594.9-2666.4,5589-2666,5583.2-2665.5z"/>
<path opacity="0.15" fill="#101111" enable-background="new    " d="M5605.8-2667.3c4.4-0.3,8.8-0.7,13.2-1
	C5614.6-2667.9,5610.2-2667.6,5605.8-2667.3z"/>
<path opacity="0.15" fill="#101111" enable-background="new    " d="M3122.7,1832.2c0.6,1.2,1.3,2.4,1.9,3.6c0,0,0,0.1,0,0.1
	c-0.7-1.3-1.3-2.5-2-3.8C3122.7,1832.1,3122.7,1832.1,3122.7,1832.2z"/>
<path opacity="0.15" fill="#101111" enable-background="new    " d="M5524.9-2660.1c-6.1,0.6-12.2,1.3-18.3,1.9
	c15.5-1.7,31-3.2,46.5-4.6C5543.7-2662,5534.3-2661.1,5524.9-2660.1z"/>
<path opacity="0.15" fill="#101111" enable-background="new    " d="M5488.4-2656.2c4.2-0.5,8.4-0.9,12.6-1.4
	C5496.8-2657.1,5492.6-2656.7,5488.4-2656.2z"/>
<path opacity="0.15" fill="#101111" enable-background="new    " d="M3473.8,2356.5c-0.4-0.5-0.9-1.1-1.3-1.6
	C3472.9,2355.4,3473.4,2355.9,3473.8,2356.5z"/>
<path opacity="0.15" fill="#101111" enable-background="new    " d="M8153.6-1623.9L8153.6-1623.9L8153.6-1623.9z"/>
<path opacity="0.15" fill="#101111" enable-background="new    " d="M5686.8-2672.3c2.7-0.1,5.3-0.3,8-0.4
	C5692.1-2672.5,5689.4-2672.4,5686.8-2672.3z"/>
<path opacity="0.15" fill="#101111" enable-background="new    " d="M3151.2,1884.7c0.6,1.1,1.2,2.2,1.8,3.3
	c0.1,0.2,0.2,0.4,0.3,0.6c-0.8-1.5-1.7-3-2.5-4.6C3151,1884.3,3151.1,1884.5,3151.2,1884.7z"/>
<path opacity="0.15" fill="#101111" enable-background="new    " d="M3141.5,1867.1c0.7,1.2,1.4,2.5,2,3.7c0.1,0.2,0.2,0.3,0.3,0.5
	c-0.8-1.5-1.7-3.1-2.5-4.6C3141.4,1866.9,3141.4,1867,3141.5,1867.1z"/>
<path opacity="0.15" fill="#101111" enable-background="new    " d="M5710.3-2673.3c2.4-0.1,4.8-0.2,7.2-0.3
	C5715.1-2673.5,5712.7-2673.4,5710.3-2673.3z"/>
<path opacity="0.15" fill="#101111" enable-background="new    " d="M8030.5-1756.8C8030.4-1756.8,8030.4-1756.9,8030.5-1756.8
	c0.1,0.1,0.3,0.3,0.5,0.5C8030.8-1756.4,8030.6-1756.6,8030.5-1756.8z"/>
<path opacity="0.15" fill="#101111" enable-background="new    " d="M5664.1-2671.1c2.4-0.1,4.7-0.3,7.1-0.4
	C5668.8-2671.4,5666.4-2671.2,5664.1-2671.1z"/>
<path opacity="0.15" fill="#101111" enable-background="new    " d="M8045.1-1741.8c-0.2-0.2-0.4-0.4-0.6-0.6c0,0,0,0-0.1-0.1
	C8044.7-1742.2,8044.9-1742,8045.1-1741.8C8045.1-1741.8,8045.1-1741.8,8045.1-1741.8z"/>
<path opacity="0.15" fill="#101111" enable-background="new    " d="M3462.7,2343c-0.5-0.6-1-1.2-1.5-1.8
	C3461.7,2341.8,3462.2,2342.4,3462.7,2343z"/>
<path opacity="0.15" fill="#101111" enable-background="new    " d="M5470.1-2654.1c3.8-0.5,7.7-0.9,11.5-1.4
	C5477.8-2655,5473.9-2654.5,5470.1-2654.1z"/>
<path opacity="0.15" fill="#101111" enable-background="new    " d="M5413.9-2646.8c4.2-0.6,8.3-1.2,12.5-1.7
	C5422.3-2648,5418.1-2647.4,5413.9-2646.8z"/>
<path opacity="0.15" fill="#101111" enable-background="new    " d="M5451.7-2651.8c3.7-0.5,7.5-0.9,11.2-1.4
	C5459.2-2652.8,5455.5-2652.3,5451.7-2651.8z"/>
<path opacity="0.15" fill="#101111" enable-background="new    " d="M5433.2-2649.4c3.8-0.5,7.6-1,11.5-1.5
	C5440.8-2650.4,5437-2649.9,5433.2-2649.4z"/>
<path opacity="0.15" fill="#101111" enable-background="new    " d="M3113.5,1814.7c0.5,1,1,2,1.6,3c0,0,0,0,0,0.1
	C3114.6,1816.7,3114,1815.7,3113.5,1814.7C3113.5,1814.7,3113.5,1814.7,3113.5,1814.7z"/>
<path opacity="0.15" fill="#101111" enable-background="new    " d="M3495.5,2382.3C3495.5,2382.3,3495.5,2382.3,3495.5,2382.3
	c0.2,0.2,0.3,0.4,0.5,0.5c-0.2-0.2-0.4-0.5-0.6-0.7C3495.4,2382.2,3495.4,2382.2,3495.5,2382.3z"/>
<path opacity="0.15" fill="#101111" enable-background="new    " d="M3105.3,1798.9c0,0.1,0.1,0.2,0.1,0.2c-0.2-0.4-0.4-0.8-0.6-1.2
	C3105,1798.3,3105.2,1798.6,3105.3,1798.9z"/>
<g>
	<path fill="#404142" d="M8032,2547.2V2456l-23-50.5c0,0-96.4-1106.8-59.7-1364s27.6-532.7,27.6-532.7l-119.4-73.5h-360.2h-2.7
		h-360.2l-119.4,73.5c0,0-9.2,275.6,27.6,532.7c36.7,257.2-59.7,1364-59.7,1364l-23,50.5v569.5l-55.1,23V3278
		C7333.9,3119.3,7717.7,2867.6,8032,2547.2z"/>
	<path fill="#DBB56A" d="M7555.1-1314.6c0,0,8-64.3-54.9-72.6c-0.9-0.6-1.9-0.9-2.9-0.9c-1.9,0-3.8,0.1-5.6,0.1
		c-1.8-0.1-3.7-0.1-5.6-0.1c-1,0-1.9,0.3-2.9,0.9c-62.9,8.3-54.9,72.6-54.9,72.6c-69.3,298.7-252.6,541.9-287.4,592.5
		c-34.8,50.5-34.1,133.2-34.1,133.2c91.9,284.7,64.3,1024.2,64.3,1024.2h314.6h11.9h314.6c0,0-27.6-739.4,64.3-1024.2
		c0,0,0.7-82.7-34.1-133.2C7807.7-772.7,7624.4-1015.9,7555.1-1314.6z"/>
	<rect x="7455.7" y="-1377.9" fill="#555554" width="66.5" height="1135.3"/>
	<ellipse fill="#555554" cx="7490.1" cy="-201.3" rx="56.6" ry="62.8"/>
</g>
<g opacity="0.7">
	<path fill="#070707" d="M5092-446.2c-102.8,121-206.1,241.4-309.5,361.7C4679,35.9,4575.3,156,4471.4,276l-155.9,179.8
		l-156.1,179.7c-104.2,119.7-208.5,239.3-312.9,358.7l-156.8,179.1l-39.3,44.9c-6.9,7.6-13.9,15.1-21.5,22.4
		c-3.8,3.7-7.7,7.3-12,10.8c-2.1,1.8-4.3,3.5-6.7,5.3c-2.4,1.7-4.9,3.5-7.8,5.2c-1.5,0.9-3.1,1.7-4.9,2.5c-1.8,0.8-3.9,1.6-6.4,2.3
		c-2.6,0.6-5.8,1.2-10.3,0.8c-2.2-0.3-4.7-0.9-7.2-2.1c-2.5-1.2-4.9-2.9-6.7-4.7c-1.8-1.9-3.2-3.8-4.1-5.6c-0.9-1.8-1.6-3.5-2-4.9
		c-0.9-3-1.2-5.4-1.4-7.5c-0.2-2.1-0.2-4-0.1-5.8c0-0.6,0.1-2.2,0.2-2.6l0.2-1.9c0.1-0.7,0.1-1.1,0.2-2l0.3-2.3l0.3-2.3l0.3-2.1
		c0.2-1.4,0.4-2.8,0.7-4.2c0.3-1.4,0.5-2.8,0.8-4.1c1.2-5.5,2.7-10.8,4.4-16c1.7-5.2,3.5-10.3,5.6-15.2c2-5,4.2-9.8,6.4-14.6
		c4.5-9.5,9.5-18.7,14.7-27.6c10.5-17.8,22-34.7,33.9-51.1c12-16.4,24.5-32.2,37.3-47.7c25.6-31,52.4-60.7,79.7-89.9
		c27.3-29.1,55.1-57.6,83.3-85.8c28.1-28.2,56.6-56,85.2-83.6c57.2-55.2,115.1-109.6,173.2-163.7l87.3-81l87.5-80.7
		c116.7-107.5,233.4-215,349.2-323.4l86.8-81.4l10.8-10.2l5.4-5.1l1.4-1.3l1.1-1.1l2.5-2.6c6.8-7,13.5-14.1,20-21.4
		c13-14.6,25.5-29.7,37.1-45.4c11.5-15.7,22.3-31.9,31-49c4.3-8.5,8.1-17.2,10.9-26.1c2.8-8.8,4.6-17.9,4.5-26.5
		c-0.1-8.6-2.3-16.7-6.9-23.3l-0.9-1.2l-0.9-1.2l-1.2-1.4l-1.1-1.3c-1.5-1.7-3.1-3.4-4.7-4.9c-3.2-3.1-6.6-5.9-10.3-8.3
		c-7.3-4.7-15.7-7.7-24.7-9.2c-9-1.6-18.4-1.8-27.9-1.2c-19,1.1-38.2,5-57.1,9.8c-18.9,4.9-37.7,10.8-56.3,17.3
		c-18.5,6.4-36.8,13.8-54.9,21.6c-18.1,7.8-36.1,16-53.9,24.5c-35.7,17-71,35-105.9,53.7c-34.9,18.6-69.5,37.9-103.9,57.7
		c-68.6,39.6-136.1,81.2-202.5,124.5c-66.3,43.3-131.4,88.5-195.1,135.7c-31.8,23.6-63.2,47.7-94.1,72.4c-30.9,24.7-61.4,50-91.2,76
		c-29.8,26-59,52.7-87.3,80.2c-28.3,27.6-55.8,56-81.8,85.5c-26.1,29.6-50.9,60.2-73.4,92.4c-11.2,16.1-21.9,32.5-31.7,49.4
		c-9.8,16.9-18.9,34.2-26.7,51.9c-7.8,17.7-14.5,35.9-19.4,54.5c-4.9,18.5-8.1,37.5-8.7,56.4c-0.7,18.9,1.2,37.7,6,55.7
		c1.2,4.5,2.6,9,4.1,13.4c1.6,4.4,3.3,8.7,5.2,13c0.5,1.1,1,2.1,1.5,3.2l0.7,1.6c-0.4-0.8,0.4,0.7,0.4,0.7c1.1,1.9,2.4,3.8,3.7,5.7
		c2.6,3.8,5.4,7.6,8.3,11.3c11.7,14.8,25.2,28.3,40,40.1c14.8,11.8,30.9,22,47.9,30.2c17,8.2,34.9,14.6,53.4,18.9
		c18.4,4.4,37.3,6.8,56.3,7.5c38.1,1.4,76.4-4.2,113.6-14.2c4.7-1.2,9.3-2.6,13.9-3.9c4.6-1.4,9.2-2.8,13.8-4.4
		c4.6-1.5,9.2-3.1,13.7-4.7l6.8-2.5c2.3-0.8,4.5-1.7,6.8-2.6c9.1-3.5,18-7.2,26.9-11.1c8.9-4,17.7-8,26.4-12.3
		c8.8-4.2,17.4-8.7,26-13.3c4.3-2.3,8.6-4.6,12.8-7c4.2-2.4,8.5-4.7,12.7-7.2c16.9-9.8,33.5-20,49.9-30.8
		c32.7-21.5,64.4-44.6,95.2-68.9c61.6-48.7,119.8-101.9,175.6-157.5c14-13.9,27.8-28,41.5-42.2c6.8-7.1,13.7-14.2,20.4-21.4
		l10.1-10.8l10.1-10.8c6.7-7.2,13.4-14.5,20-21.8l19.8-22l9.8-11.1l4.9-5.5c0.6-0.7,0.5-0.6,0.9-1.1l1.2-1.4l2.3-2.8
		c6.3-7.5,12.5-15.1,18.6-22.8c12.2-15.3,24.2-30.8,35.5-46.5c5.6-7.9,11-15.8,15.9-23.7c2.4-3.9,4.7-7.9,6.7-11.7
		c1-1.9,1.9-3.7,2.5-5.4c0.3-0.8,0.6-1.6,0.9-2.2c0.2-0.6,0.4-1.2,0.4-1.4c0.1-0.2-0.1-0.1,0,1.4c0.1,0.7,0.2,1.8,0.8,3.5
		c0.6,1.6,1.9,3.8,3.8,5.5c1.8,1.7,3.9,2.6,5.3,3.1c1.4,0.4,2.4,0.5,3,0.5c1.1,0,1.2-0.1,0.9,0c-0.3,0.1-0.8,0.2-1.5,0.5
		c-0.7,0.2-1.5,0.5-2.3,0.9c-1.7,0.7-3.5,1.6-5.4,2.6c-3.8,2-7.7,4.3-11.7,6.7c-4,2.4-7.9,5-11.9,7.7
		c-15.9,10.7-31.5,22.4-47.1,34.4l1.3-1.1l-4.4,4.1l-4.5,4.2l-8.9,8.6c-5.9,5.8-11.8,11.6-17.7,17.4c-11.7,11.7-23.2,23.6-34.5,35.6
		c-22.6,24.1-44.5,48.8-65,74.5c-10.2,12.8-20,25.9-29.3,39.2c-9.2,13.3-17.8,26.9-25.2,40.7c-3.7,6.9-7,13.9-9.9,20.9
		c-2.8,7-5.2,13.9-6.6,20.6c-1.5,6.7-2,13.1-1.4,18.4c0.3,2.6,0.9,5,1.7,7.1c0.8,2.1,1.9,3.8,3.2,5.5l1.3,1.8
		c-0.5-0.8-0.5-0.8-0.7-1l-0.3-0.4l-0.4-0.5c-0.3-0.3-0.4-0.5-0.6-0.7c-0.2-0.2-0.3-0.3-0.5-0.4c-0.1-0.1-0.2-0.2-0.4-0.3
		c-0.5-0.4-0.8-0.6-1-0.7c-0.5-0.3-0.6-0.3-0.6-0.3c0,0,0.9,0.2,2,0.2c2.3,0.1,5.9-0.4,9.6-1.4c3.7-0.9,7.7-2.3,11.7-3.9
		c4-1.6,8.1-3.5,12.2-5.5c8.2-4.1,16.4-8.8,24.5-13.9c8.1-5.1,16.1-10.5,24-16.2c7.9-5.7,15.7-11.5,23.4-17.6
		c7.7-6,15.4-12.2,23-18.5c7.6-6.3,15.1-12.7,22.6-19.2c7.5-6.5,14.9-13.1,22.2-19.8c7.4-6.7,14.6-13.4,21.9-20.2l10.9-10.2l5.4-5.2
		l2.7-2.6l1.3-1.3c-1.3,1.3-0.3,0.3-0.6,0.6l0.1-0.1l0.2-0.2l0.3-0.3l0.6-0.7l41.6-43.6l83.2-87.3l-1.1,1.3
		c9.7-12.1,19.5-24.3,29-36.5c4.8-6.1,9.6-12.2,14.2-18.3l6.9-9.2c2.3-3,4.5-6.1,6.6-9c1-1.4,2-2.9,2.7-4l0.4-0.7
		c0.1-0.1,0.1-0.3-0.1,0.1c-0.1,0.2-0.3,0.5-0.7,1.7c5.2,2.4-14.7-0.9,13.3,26.4c20.4,1.7,13.5-2.2,16.8-1.7c0.8-0.5,1-0.6,1.1-0.7
		c0.3-0.2,0.1-0.1,0,0l-0.6,0.6c-0.5,0.5-1.1,1-1.7,1.6c-1.2,1.2-2.5,2.5-3.8,3.8c-5.2,5.3-10.4,11-15.6,16.6
		c-10.5,11.4-20.9,23-31.2,34.6c-1.2,1.4-2.8,3.1-3.5,4c-1,1.2-2.1,2.6-3.2,4c-2.2,2.8-4.4,5.8-6.7,8.8c-4.4,6-8.8,12.3-13.1,18.5
		c-8.6,12.6-16.8,25.5-24.7,38.6c-7.9,13.1-15.4,26.3-22.4,39.7c-7,13.4-13.5,27-18.9,40.5c-2.7,6.8-5.1,13.6-7,20.2
		c-1.9,6.6-3.4,13.2-3.9,19c-0.3,2.9-0.3,5.5-0.1,7.6c0.2,2.1,0.7,3.6,0.9,4.1c0.1,0.3,0.2,0.3,0.2,0.3c0,0-0.1-0.1,0,0
		c0,0,0.1,0.1,0.2,0.1c0.1,0,0.1,0.1,0.2,0.1c0,0,0.1,0,0.1,0.1c0.1,0.1-1.2-0.4-0.3-0.1l0.7,0.2c0.4,0.1,0,0-0.1-0.1
		c-0.3-0.1-0.8-0.2-0.6-0.2c0,0,0.1,0,0.2,0c0.3,0,0.9,0,1.7-0.1c0.8-0.1,1.8-0.3,3-0.6c2.3-0.6,5-1.6,7.8-2.9
		c5.6-2.5,11.6-6,17.5-9.9c11.9-7.8,23.6-17.1,35.1-26.8c22.9-19.6,44.9-41.2,66.3-63.4c21.4-22.2,42.2-45.2,62.5-68.6
		c10.2-11.7,20.2-23.5,30-35.4c4.9-5.9,9.8-11.9,14.6-17.9c4.8-6,9.6-12,13.9-17.9c1.1-1.4,2.1-2.9,2.9-4l0.4-0.6
		c0.1-0.1,0,0.1,0,0.1c-0.2,0.3-0.4,0.8-0.2,0.4l1.3-2.6c1.7-3.4,3.3-6.7,4.6-9.6c0.3-0.7,0.6-1.4,0.8-2c0.2-0.6,0.4-1.1,0.5-1.4
		c0-0.1,0-0.1,0,0c0,0.2-0.2,0.6-0.3,1.9c0,0.7-0.1,1.7,0.1,3.5c0.4,1.8,0.5,5.1,4.3,10c3.9,5.3,12,7.9,15.5,7.6
		c3.8,0,5.5-0.7,6.6-1c1.1-0.4,1.7-0.7,2.2-0.9c0.4-0.2,0.7-0.4,0.8-0.5c0.3-0.2,0.4-0.2,0.3-0.2c-0.1,0.1-0.5,0.4-0.9,0.8
		c-0.9,0.8-2.1,1.9-3.2,3.1c-4.8,4.8-9.7,10.5-15,16.5c-5.1,5.8-10.2,11.6-15.1,17.4c-9.9,11.6-19.5,23.5-28.5,35.6
		c-9,12.1-17.5,24.5-25.1,37.2c-7.6,12.7-14.4,25.7-19.6,38.8c-5.2,13.1-8.9,26.5-9.8,39.2c-0.3,3.2-0.3,6.3-0.2,9.4
		c0,1.5,0.2,3,0.3,4.5c0.2,1.5,0.3,3,0.6,4.4c0.2,1.5,0.6,2.9,0.9,4.3l0.6,2.1c-0.2-0.6,0.7,2.2,0.5,1.4c-0.1-0.2,0.1,0.2,0.1,0.2
		c0,0,0,0.1,0,0c0,0,0,0-0.1-0.1c-0.2-0.2-0.7-0.8-1.5-1.3c-0.8-0.5-1.7-0.8-2.1-0.8c-0.4-0.1-0.3,0,0.2,0c1-0.1,3.2-0.6,5.6-1.6
		c5-2,10.8-5.5,16.5-9.4c5.7-3.9,11.5-8.4,17.2-13.1c5.7-4.7,11.3-9.7,16.9-14.8c11.1-10.2,21.9-21,32.6-32
		c21.3-22.1,41.8-45.3,61.8-68.9c10-11.8,19.9-23.8,29.6-35.8l7.3-9l3.6-4.5l1.4-1.8l1.5-2.1c2.1-2.9,4.1-5.9,5.8-8.6
		c0.8-1.3,1.6-2.7,1.9-3.4c0.1-0.2,0.1-0.3,0.1-0.3c0,0-0.1,0.2-0.3,0.8c-0.1,0.4-0.2,0.8-0.3,1.7c-0.1,0.9-0.3,2.2,0,4.8
		c0.3,2.3,1.8,7.9,7,11.9c5.1,3.8,9.7,3.9,11.6,3.8c2.2-0.1,3.2-0.4,4-0.6c0.8-0.2,1.1-0.4,1.4-0.5c0.5-0.2,0.6-0.3,0.7-0.3
		c0,0-0.5,0.3-0.9,0.6c-1,0.7-2.3,1.6-3.6,2.6c-2.6,2.1-5.5,4.4-8.2,6.8l-4.2,3.7l-2.1,1.9l-2,1.8l-1,1l-0.9,0.8l-0.9,0.8l-0.9,0.9
		c-1.3,1.2-2.5,2.5-3.7,3.8c-9.8,10.3-18.7,21.9-26.6,34.1c-7.9,12.3-14.9,25.2-20.5,38.5c-2.8,6.6-5.2,13.4-7.2,20.1
		c-2,6.7-3.4,13.4-4.1,19.9c-0.7,6.4-0.7,12.6,0.4,17.5c1,5,3,8.1,5.2,10l1.2,0.9c0.4,0.3,0.8,0.7,1,0.8l0.8,0.6l0.4,0.3l0.5,0.3
		c1.3,0.9,2.5,1.7,3.8,2.5c2.6,1.5,5.3,2.9,8.2,4c5.7,2.3,11.8,3.8,18.3,4.5c13,1.6,27.3,0.3,41.7-2.2c14.5-2.5,29.3-6.3,44.2-10.3
		c15-4,30.1-8.3,45.6-12.2c15.3-3.8,30.6-7.4,45.9-11c30.6-7.1,61.2-14.1,91.8-20.8c61.3-13.5,122.7-26,184.3-37.9
		c30.8-5.9,61.7-11.5,92.5-17c30.9-5.4,61.8-10.6,92.8-15.5c31-4.9,62-9.5,93.1-13.8s62.2-8.3,93.4-11.8
		c62.4-7.1,124.9-12.6,187.7-15.1c31.4-1.2,62.8-1.7,94.2-1c31.4,0.8,62.8,2.7,93.9,6.8l-0.4,4c-31.1-2.7-62.3-3.5-93.5-3
		c-15.6,0.2-31.2,0.8-46.8,1.5c-7.8,0.4-15.6,0.8-23.4,1.3c-7.8,0.4-15.6,1-23.4,1.6c-7.8,0.6-15.6,1.2-23.3,1.9
		c-7.8,0.7-15.5,1.4-23.3,2.1l-11.7,1.1l-11.6,1.2c-7.8,0.8-15.5,1.7-23.3,2.5c-31,3.6-62,7.6-92.9,12
		c-61.8,8.9-123.4,19.3-184.9,30.6c-61.4,11.4-122.7,23.7-183.8,36.8c-61.1,13.1-122,26.9-182.8,41.4c-30.4,7.3-60.7,14.7-91,22.4
		c-15.1,3.8-30.3,7.7-45.3,11.7c-14.8,3.9-29.8,8.3-45,12.5c-15.2,4.2-30.8,8.4-47.1,11.4c-8.2,1.5-16.5,2.7-25.1,3.3
		c-8.6,0.6-17.5,0.7-26.6-0.3c-9.1-1-18.3-3.1-27.2-6.5c-4.4-1.7-8.8-3.8-12.9-6.2c-2.1-1.2-4.1-2.5-6.1-3.8l-0.7-0.5l-0.8-0.6
		l-1.6-1.1c-0.6-0.4-0.9-0.7-1.3-1l-1.2-0.9c-0.1-0.1-0.9-0.7-1-0.8l-0.9-0.8c-0.6-0.5-1.2-1-1.7-1.6l-1.7-1.6
		c-0.5-0.6-1-1.1-1.6-1.7c-1-1.2-1.9-2.4-2.9-3.6c-0.8-1.3-1.7-2.5-2.4-3.8c-1.5-2.6-2.7-5.2-3.8-7.8c-1-2.6-1.8-5.3-2.4-7.8
		c-1.2-5.2-1.8-10.2-2-15.1c-0.2-4.9,0-9.6,0.4-14.1c0.9-9.1,2.7-17.8,4.9-26.1c2.3-8.3,5.1-16.4,8.2-24.2
		c6.3-15.6,14-30.5,22.8-44.7c8.8-14.2,18.8-27.7,30.4-40.3c1.5-1.6,2.9-3.1,4.5-4.7l1.1-1.2l1.2-1.2l1.2-1.2l1.1-1l2.3-2.2l2.2-2
		l4.6-4.1c3.1-2.7,6.3-5.4,9.8-8.2c1.8-1.4,3.6-2.8,5.8-4.3c1.1-0.8,2.4-1.6,4-2.5c0.9-0.5,1.9-1,3.3-1.6c0.8-0.3,1.6-0.6,2.8-1
		c1.2-0.3,2.7-0.7,5.4-0.8c2.4,0,7.5,0.1,13,4.2c5.5,4.3,7.3,10.3,7.7,13.1c0.4,3.1,0.2,4.8,0,6.2c-0.2,1.4-0.4,2.3-0.6,3.1
		c-0.4,1.6-0.8,2.7-1.2,3.6c-0.4,0.9-0.7,1.7-1.1,2.4c-1.3,2.8-2.5,4.9-3.8,6.9c-2.4,4-4.8,7.5-7.2,10.9l-1.9,2.6l-0.8,1l-0.5,0.6
		l-0.9,1.2l-3.7,4.7l-7.3,9.3c-9.8,12.4-19.8,24.7-29.9,36.8c-20.2,24.3-41,48.2-63,71.4c-11,11.6-22.2,23-34.1,34
		c-5.9,5.5-12,11-18.3,16.3c-6.3,5.3-12.9,10.5-20.1,15.5c-7.2,4.9-14.7,9.7-24.2,13.7c-2.4,1-4.9,1.9-7.7,2.7
		c-2.8,0.8-5.8,1.5-9.2,1.9c-3.4,0.4-7.3,0.4-11.5-0.3c-4.2-0.7-8.9-2.3-13-4.9c-4.1-2.6-7.5-6-10-9.4c-0.6-0.9-1.1-1.7-1.7-2.5
		c-0.5-0.9-1-1.7-1.4-2.5c-0.9-1.7-1.6-3.1-2.3-5.1l-0.5-1.4l-0.2-0.7l-0.2-0.7c0.1,0.3-0.4-1.1-0.4-1.3l-1-3.6
		c-0.6-2.4-1.1-4.8-1.5-7.2c-0.5-2.4-0.7-4.8-1-7.2c-0.2-2.4-0.5-4.8-0.5-7.2c-0.2-4.8-0.2-9.5,0.2-14.1c0.3-4.6,0.8-9.2,1.6-13.6
		c0.7-4.5,1.7-8.9,2.8-13.1c2.1-8.6,4.9-16.9,8-24.8c6.3-16,14-30.8,22.4-45c8.5-14.2,17.6-27.7,27.3-40.7c9.6-13,19.7-25.6,30-37.8
		c5.2-6.1,10.4-12.1,15.6-18.1c5.1-5.8,10.4-12,16.6-18.3c1.6-1.6,3.2-3.2,5.2-5c1-0.9,2.1-1.8,3.6-3c0.7-0.6,1.6-1.2,2.7-1.9
		c1.2-0.7,2.5-1.6,5.6-2.7c1.6-0.5,3.8-1.3,8.1-1.3c4.1-0.3,12.7,2.5,16.8,8.2c4.1,5.3,4.4,9.1,4.8,11.4c0.3,2.4,0.2,3.8,0.1,5
		c-0.2,2.3-0.5,3.6-0.8,4.8c-0.3,1.1-0.5,2.1-0.8,2.9c-0.5,1.6-1,2.9-1.5,4.2c-0.5,1.2-0.9,2.3-1.4,3.4c-1.8,4.3-3.7,8-5.5,11.6
		l-1.3,2.7c0,0-0.5,1-0.9,1.7c-0.3,0.4-0.6,1-0.8,1.3c-0.5,0.8-0.8,1.3-1.2,1.9c-1.4,2.1-2.7,3.8-3.9,5.5c-5,6.7-9.9,13-14.9,19.2
		c-5,6.2-10,12.4-15,18.5c-10.1,12.2-20.3,24.3-30.7,36.2c-20.7,23.9-41.9,47.4-63.9,70.3c-11,11.4-22.2,22.7-33.7,33.8
		c-11.5,11.1-23.3,22-35.6,32.5c-12.4,10.5-25.2,20.7-39.5,30.1c-7.2,4.7-14.8,9.1-23.4,13.1c-4.4,1.9-9,3.7-14.3,5.2
		c-2.6,0.7-5.5,1.3-8.5,1.7c-3,0.4-6.3,0.6-10,0.4c-1.8-0.1-3.7-0.3-5.6-0.7c-0.8-0.1-2.3-0.5-3.5-0.8c-0.6-0.2-1.4-0.4-1.5-0.5
		l-0.7-0.2c0.4,0.2-1.3-0.5-1.7-0.6l-1.2-0.5c-0.8-0.3-1.6-0.7-2.5-1.1c-1.6-0.8-3.3-1.8-4.9-2.8c-3.2-2.1-6.2-4.8-8.8-7.8
		c-2.6-3-4.6-6.3-6.2-9.5c-3.2-6.6-4.4-12.9-5-18.5c-0.5-5.7-0.4-10.9,0.1-15.8c1-9.8,3-18.6,5.5-27c2.4-8.4,5.3-16.3,8.4-24.1
		c6.2-15.5,13.3-30.2,20.8-44.5c7.5-14.3,15.5-28.3,23.8-42c8.3-13.7,17-27.2,26.1-40.4c4.5-6.6,9.2-13.2,14-19.8
		c2.4-3.3,4.9-6.6,7.6-9.9c1.3-1.7,2.7-3.4,4.2-5.1c1.8-2.1,2.9-3.3,4.2-4.8c10.5-11.7,21-23.4,31.7-35c5.4-5.8,10.8-11.6,16.6-17.5
		c1.5-1.5,2.9-3,4.5-4.5c0.8-0.8,1.6-1.6,2.6-2.4c0.5-0.4,1-0.9,1.6-1.4c0.6-0.5,1.2-1.1,2.3-1.8c0.6-0.4,1.1-0.8,2.3-1.6
		c3.6,0.2-2.8-4,18.1-2.2c28.5,27.6,8.3,24.9,13.4,27.8c-0.6,1.6-1,2.3-1.3,3c-0.6,1.3-1.1,2-1.5,2.7c-0.4,0.7-0.8,1.3-1.1,1.8
		c-1.4,2.2-2.6,3.9-3.9,5.7c-2.5,3.5-4.9,6.7-7.3,9.9l-7.3,9.5c-4.8,6.3-9.7,12.5-14.6,18.7c-9.8,12.4-19.6,24.6-29.5,36.9l-0.5,0.7
		l-0.6,0.6l-83.3,87.1l-41.7,43.6l-0.7,0.7l-0.3,0.3l-1,1l-1.4,1.3l-2.8,2.6l-5.5,5.2l-11.1,10.4c-7.5,6.9-14.9,13.8-22.5,20.6
		c-7.6,6.8-15.2,13.5-22.9,20.2c-7.7,6.7-15.5,13.2-23.4,19.7c-7.9,6.5-15.9,12.9-24.1,19.2c-8.1,6.3-16.4,12.4-24.9,18.4
		c-8.5,6-17.1,11.8-26.1,17.4c-9,5.5-18.2,10.9-28,15.7c-4.9,2.4-10,4.7-15.3,6.8c-5.3,2.1-10.9,4-16.9,5.5
		c-6,1.5-12.5,2.6-20.2,2.5c-2-0.1-3.9-0.2-6.1-0.5c-2.1-0.3-4.4-0.8-6.8-1.5c-2.4-0.7-4.9-1.8-7.5-3.3c-1.3-0.8-2.7-1.7-4.1-2.8
		l-1.1-0.9c-0.4-0.4-0.8-0.7-1.1-1.1c-0.4-0.4-0.8-0.8-1.3-1.4l-0.3-0.4l-0.4-0.5l-0.5-0.6c-0.2-0.3-0.3-0.3-0.8-1.2l1.3,1.8
		c-3.9-4.8-7.1-10.4-9.3-16.1c-2.3-5.7-3.5-11.6-4.2-17.3c-0.6-5.7-0.5-11.1-0.1-16.4c0.4-5.2,1.3-10.2,2.4-15.1
		c2.2-9.6,5.3-18.6,8.8-27.1c3.5-8.5,7.5-16.6,11.7-24.4c8.5-15.7,17.9-30.3,27.8-44.5c9.9-14.2,20.3-27.8,31.1-41.1
		c21.5-26.6,44.1-51.9,67.5-76.4c11.7-12.3,23.5-24.4,35.5-36.3c6-6,12.1-11.9,18.2-17.7l9.2-8.8l4.7-4.4l4.8-4.4l0.6-0.6l0.7-0.5
		c16-12.2,32.2-24.1,49.3-35.5c4.3-2.8,8.6-5.6,13.1-8.4c4.5-2.7,9.1-5.4,14.2-8c2.5-1.3,5.2-2.5,8-3.8c1.5-0.6,3-1.2,4.7-1.8
		c1.7-0.6,3.5-1.1,5.6-1.6c2.2-0.4,4.7-0.9,8.3-0.8c1.8,0.1,4,0.3,6.6,1.1c2.6,0.8,5.8,2.3,8.6,4.9c2.8,2.5,4.8,5.8,5.8,8.5
		c1.1,2.8,1.4,5.2,1.6,7.2c0.2,3.9-0.2,6.5-0.7,8.8c-0.5,2.2-1,4.1-1.6,5.8c-0.6,1.7-1.2,3.2-1.8,4.7c-1.2,2.9-2.5,5.5-3.8,8.1
		c-2.6,5-5.4,9.6-8.2,14.1c-5.6,8.9-11.5,17.3-17.4,25.6c-11.9,16.5-24.3,32.3-36.9,47.9c-6.3,7.8-12.7,15.5-19.2,23.2l-2.4,2.9
		l-1.2,1.5c-0.4,0.4-1.3,1.5-1.5,1.7l-5,5.6l-10,11.1l-20.2,22.1c-6.8,7.3-13.5,14.7-20.4,21.9c-27.3,29.1-55.1,57.7-83.6,85.7
		c-57,55.9-116.6,109.4-180,158.5c-31.7,24.5-64.4,47.9-98.3,69.5c-16.9,10.8-34.2,21.2-51.8,31.1c-4.4,2.5-8.8,4.9-13.2,7.3
		c-4.4,2.4-8.9,4.7-13.4,7.1c-9,4.6-18,9.2-27.2,13.4c-9.1,4.4-18.4,8.4-27.7,12.4c-9.3,3.9-18.7,7.7-28.3,11.2
		c-2.4,0.9-4.8,1.8-7.2,2.6l-7.2,2.5c-4.8,1.6-9.6,3.3-14.5,4.8c-4.8,1.6-9.7,3-14.6,4.4c-4.9,1.4-9.8,2.7-14.8,4
		c-19.8,5.1-39.9,8.9-60.3,11.3c-20.4,2.4-41,3.2-61.6,2.2c-20.6-1-41.2-3.9-61.3-9c-20.1-5-39.7-12.3-58.3-21.6
		c-18.6-9.3-36.1-20.7-52.1-33.9c-16-13.2-30.5-28.1-43.2-44.6c-3.2-4.2-6.2-8.4-9.1-12.8c-1.5-2.2-2.9-4.5-4.2-6.9
		c-0.6-1.1-0.4-0.6-1.4-2.5l-0.8-1.8c-0.5-1.2-1.1-2.4-1.6-3.6c-2.1-4.8-3.9-9.8-5.6-14.7c-1.7-5-3.2-10-4.4-15.1
		c-5.1-20.4-6.9-41.5-5.8-62.2c1-20.8,4.8-41.2,10.3-60.9c5.5-19.7,12.9-38.8,21.3-57.2c8.5-18.4,18.1-36.2,28.4-53.5
		c10.4-17.3,21.5-34,33.3-50.2c23.4-32.6,49-63.4,75.7-93c53.6-59.2,111.9-113.7,172.2-165.5c60.4-51.7,123.1-100.8,187.1-147.8
		c64-47.1,129.5-92.1,196.1-135.5c66.6-43.4,134.2-85.1,202.9-125c34.4-20,69-39.4,104-58.3c35-18.9,70.3-37.2,106.1-54.6
		c17.9-8.7,35.9-17.1,54.2-25.2c18.3-8,36.7-15.7,55.6-22.5c18.8-6.7,37.9-12.9,57.3-18.1c19.4-5.1,39.3-9.4,59.9-10.9
		c10.3-0.7,20.9-0.6,31.5,1.1c5.3,0.9,10.6,2.1,15.8,4c5.2,1.8,10.3,4.3,15,7.2c4.7,2.9,9.1,6.4,13,10.2c2,1.9,3.8,3.8,5.6,5.8
		l1.4,1.5l1.2,1.4l1.4,1.7l1.3,1.8c3.5,4.8,6.1,10.2,7.8,15.8c1.7,5.6,2.5,11.3,2.6,16.9c0.2,11.2-1.9,21.9-5,32
		c-3.1,10.1-7.1,19.7-11.7,28.9c-9.1,18.4-20.1,35.5-31.9,51.9c-11.8,16.4-24.4,32.1-37.6,47.3c-6.6,7.6-13.3,15-20.3,22.4l-2.6,2.7
		c-0.5,0.5-0.8,0.8-1.5,1.5l-1.3,1.3l-5.3,5.2l-10.7,10.4l-85.5,82.8c-114.2,110.2-229.3,219.6-344.4,328.8
		c-115.1,109.2-230.6,218-343.9,328.7c-56.5,55.4-112.6,111.3-166.4,169c-26.9,28.9-53.1,58.2-78,88.4c-12.4,15.1-24.5,30.4-36,46.1
		c-11.5,15.6-22.3,31.6-32,48c-4.8,8.2-9.3,16.5-13.3,24.9c-1,2.1-2,4.2-2.9,6.3c-0.9,2.1-1.9,4.2-2.7,6.3
		c-1.8,4.2-3.3,8.5-4.7,12.7c-1.4,4.2-2.6,8.5-3.5,12.7c-0.3,1.1-0.4,2.1-0.6,3.1c-0.2,1-0.4,2.1-0.6,3.1l-0.3,1.6l-0.2,1.4
		l-0.2,1.4c-0.1,0.4-0.1,1.1-0.2,1.7l-0.2,1.9c-0.1,0.8,0,0.4-0.1,1.1c0,0.7,0,1.3,0,1.6c0,0.3,0.1,0.4-0.1-0.2
		c-0.1-0.3-0.3-0.8-0.6-1.5c-0.4-0.7-1-1.6-1.9-2.6c-1-1-2.3-2-3.7-2.6c-1.4-0.6-2.7-0.9-3.7-1.1c-2-0.2-2.7,0.1-2.9,0.1
		c-0.2,0,0.1,0,0.5-0.2c0.4-0.2,1-0.5,1.7-0.9c1.4-0.8,2.9-1.8,4.6-3c1.6-1.2,3.3-2.5,5-3.9c3.4-2.8,6.8-5.9,10.1-9.1
		c6.7-6.4,13.3-13.4,19.7-20.5c1.6-1.8,3.2-3.6,4.8-5.4l4.9-5.7l9.8-11.2l19.7-22.3l157.5-178.5C3925.5,852.5,4030.7,733.7,4136,615
		l158.1-177.9l158.3-177.7C4558.2,141,4663.9,22.7,4770-95.4c106.1-118.1,212.2-236,319-353.4L5092-446.2z"/>
</g>
</svg>
