<?xml version="1.0" encoding="utf-8"?>
<svg
	version="1.2"
	baseProfile="tiny"
	xmlns="http://www.w3.org/2000/svg"
	xmlns:xlink="http://www.w3.org/1999/xlink"
	viewBox="0 0 620 620"
>
	<rect fill="#8B62D9" width="620" height="620" />
	<polygon
		fill="#FFFFFF"
		points="360.2,378.1 360.2,287.3 260,287.3 222.2,287.3 122.1,287.3 122.1,378.1 222.2,378.1 260,378.1"
	/>
	<polygon
		fill="#FFFFFF"
		points="535.2,163 535.2,123.2 429.4,123.2 429.4,163 429.4,165.7 362.8,165.7 362.8,163 362.8,123.2 257,123.2 257,163 257,165.7 190.4,165.7 190.4,163 190.4,123.2 84.6,123.2 84.6,163 84.6,165.7 84.6,165.7 84.6,256.5 190.4,256.5 257,256.5 274.2,256.5 345.6,256.5 362.8,256.5 429.4,256.5 535.2,256.5 535.2,256.5 535.2,165.7 535.2,165.7"
	/>
	<polygon
		fill="#FFFFFF"
		points="360.2,408.9 260,408.9 260,500.1 391.1,500.1 391.1,565.2 457.3,500.1 498.1,500.1 498.1,408.9 397.4,408.9"
	/>
	<rect x="397.4" y="287.3" fill="#FFFFFF" width="100.7" height="90.9" />
	<rect x="122.1" y="408.9" fill="#FFFFFF" width="100.2" height="91.2" />
</svg>
