<svg id="Layer_1" data-name="Layer 1" xmlns="http://www.w3.org/2000/svg" viewBox="0 0 28.27 27.73"><defs><style>.cls-1{fill:#020202;}</style></defs><title>cyph.black.castle.only</title><polygon class="cls-1" points="17.29 16 17.29 10.3 11.01 10.3 8.64 10.3 2.35 10.3 2.35 16 8.64 16 11.01 16 17.29 16"/><polygon class="cls-1" points="28.27 2.5 28.27 0 21.63 0 21.63 2.5 21.63 2.67 17.46 2.67 17.46 2.5 17.46 0 10.82 0 10.82 2.5 10.82 2.67 6.64 2.67 6.64 2.5 6.64 0 0 0 0 2.5 0 2.67 0 2.67 0 8.37 6.64 8.37 10.82 8.37 11.89 8.37 16.38 8.37 17.46 8.37 21.63 8.37 28.27 8.37 28.27 8.37 28.27 2.67 28.27 2.67 28.27 2.5"/><polygon class="cls-1" points="17.29 17.93 11.01 17.93 11.01 23.65 19.23 23.65 19.23 27.73 23.38 23.65 25.95 23.65 25.95 17.93 19.63 17.93 17.29 17.93"/><rect class="cls-1" x="19.63" y="10.3" width="6.32" height="5.7"/><rect class="cls-1" x="2.35" y="17.93" width="6.29" height="5.73"/></svg>