<svg id="Layer_1" data-name="Layer 1" xmlns="http://www.w3.org/2000/svg" viewBox="0 0 444 444"><defs><style>.cls-1,.cls-2,.cls-3,.cls-4,.cls-5{fill:#4d5062;stroke:#515151;}.cls-1,.cls-3,.cls-4,.cls-5{stroke-width:0;}.cls-2{stroke-miterlimit:10;}.cls-3{opacity:0.42;}.cls-4{opacity:0.69;}.cls-5{opacity:0.25;}</style></defs><title>mask</title><path class="cls-1" d="M232.84,62.06a6.88,6.88,0,0,1-.53,13.73h-1.72l.24,294.35c-.23,5.35-6,44.81-8.84,46.19-2.86-1.38-8.14-42.47-8.37-49l-.22-291.55h-1.72a6.87,6.87,0,0,1-.53-13.73,18.91,18.91,0,1,1,21.69,0Z"/><path class="cls-1" d="M439.29,134.67c10.81,13-13,16.27-31.83,9.48,10.09,13.62-13,16.26-31.83,9.48,10.09,13.62-13,16.27-31.83,9.48,10.09,13.62-13,16.26-31.83,9.48-14-5-25-13-39.64-17.56,44-12.45,63.47-40.14,62.7-68.76C334.43,64,348.61,56,372.82,72.93,399.11,91.28,419.07,110.33,439.29,134.67Z"/><path class="cls-1" d="M236.35,174c4.55,2.72,9,5.58,13.18,8.59,13.43,9.58,22.45,23.6,6.54,37.91-21.34,19.2-51.83,23.16-77.33,43.94-25.11,20.47-17.53,48.67,9.24,63.16,6.66-5,14.54-4.47,21.45-8.35-2.59-1.3-9.9-6.06-12.56-7.44-12.15-6.3-16-33.64-1.08-32.25,31.54,3,56.65-23.45,80.47-44.88,26.57-23.91,8.71-50.87-16.6-68.92-1-.68-3.2-.73-4.19-1.4l3.92-1.55C251.81,166.44,244,170.11,236.35,174ZM236,352q2,1.31,3.89,2.65c8.6,6.11,22.42,18.87-.49,44.25-4.33,4.8.14,6.45,3.21,4.51,19.76-12.53,24.35-26.17,25.26-35,1.11-10.74-7.82-17.31-16.05-24.56C245.37,347,242.45,348.74,236,352Z"/><path class="cls-1" d="M125.61,84.19c-1.09,15,8.85,35.56,29.23,47.59,8.95,5.29,29.27,10.66,38.79,15.33,7.64-4.8,3.57-6.58,11.63-10.7-9.35-4.49-17.51-12.08-26.21-16.76-34.26-18.44-20.49-44.5-4-44.46,6.2,0,11.32-.43,11.9-4.73,1.63-12-14.25-21.08-29.35-20.32C142.8,50.88,127.33,60.56,125.61,84.19Z"/><path class="cls-1" d="M4.71,134.67c-10.82,13,13,16.27,31.83,9.48-10.08,13.62,13,16.26,31.83,9.48-10.08,13.62,13,16.27,31.83,9.48-10.09,13.62,13,16.26,31.83,9.48,14-5,25-13,39.64-17.56-44-12.45-63.47-40.14-62.7-68.76C109.57,64,95.39,56,71.18,72.93,44.89,91.28,24.93,110.33,4.71,134.67Z"/><path class="cls-1" d="M213.41,235.15V200.49q4.23-2.59,8.59-5,4.35,2.43,8.59,5v34.67c-2.81,1.48-5.69,2.88-8.59,4.22C219.1,238,216.22,236.64,213.41,235.15ZM232.84,62.06a6.88,6.88,0,0,1-.53,13.73h-1.72l.24,294.35c-.23,5.35-6,44.81-8.84,46.19-2.86-1.38-8.14-42.47-8.37-49l-.22-291.55h-1.72a6.87,6.87,0,0,1-.53-13.73,18.91,18.91,0,1,1,21.69,0Zm-2.25,345.67a8.59,8.59,0,1,1-17.19,0l.22-47.6c2.76-1.9,5.41.17,8.37-1.57,3,1.74,5.84,3.55,8.59,5.45Z"/><polygon class="cls-1" points="364.9 145.12 364.9 119.44 296.7 119.44 296.7 145.12 296.7 146.84 253.8 146.84 253.8 145.12 253.8 119.44 185.59 119.44 185.59 145.12 185.59 146.84 142.69 146.84 142.69 145.12 142.69 119.44 74.49 119.44 74.49 145.12 74.49 146.84 74.49 146.84 74.49 205.38 142.69 205.38 185.59 205.38 196.67 205.38 242.72 205.38 253.79 205.38 296.69 205.38 364.9 205.38 364.9 205.38 364.9 146.84 364.9 146.84 364.9 145.12"/><polygon class="cls-1" points="252.09 303.58 187.53 303.58 187.53 362.4 272.02 362.4 272.02 404.31 314.68 362.4 340.99 362.4 340.99 303.58 276.07 303.58 252.09 303.58"/><rect class="cls-1" x="276.07" y="225.21" width="64.92" height="58.56"/><rect class="cls-1" x="98.63" y="303.59" width="64.57" height="58.81"/><polygon class="cls-1" points="252.09 283.76 252.09 225.21 187.53 225.21 163.19 225.21 98.63 225.21 98.63 283.76 163.19 283.76 187.53 283.76 252.09 283.76"/><path class="cls-2" d="M255.84,327l-.47.24c-16.53,8.32-36.44,16.87-51.21,27.37-8.6,6.11-22.42,18.87.49,44.25,4.33,4.8-.14,6.45-3.21,4.51-19.77-12.53-24.35-26.17-25.26-35-1.28-12.32,5.8-20.87,16.18-29C209.34,326,260.57,310,258,294.56,256.87,288,283.76,312.73,255.84,327ZM318.39,84.19c1.09,15-8.85,35.56-29.23,47.59-30.71,18.13-66.71,30.8-94.7,50.77-13.43,9.58-24.81-9-8.9,5.34,5.43,4.89-19.22-3.41-4.77-23.52,17.64-24.55,57-30.11,84.16-44.71,34.26-18.44,20.49-44.5,4-44.46-6.2,0-11.32-.43-11.91-4.73-1.63-12,14.25-21.08,29.35-20.32C301.2,50.88,316.67,60.56,318.39,84.19Z"/><polygon class="cls-1" points="192.7 282.77 252.14 283.95 252.05 250.91 230.19 265.57 192.7 282.77"/><path class="cls-1" d="M242.72,205.38l-63-.44s-3.41-16.43,36.59-35,64.81,36.28,64.81,36.28Z"/><polygon class="cls-3" points="213.57 340.34 213.63 341.07 230.84 350.84 230.72 349.67 213.57 340.34"/><path class="cls-1" d="M230.84,120.6l23,.08-.09,27.21,7.91.08-.85,15.27S240.91,150.37,230.68,146s-33-16.28-33-16.28l-.31-9.15Z"/><path class="cls-1" d="M214.5,339.41l-13.64-6.59s-12.41,8.14-12.35,9.65c0,1-.39,19-.39,19H198.9l15.6-9.66"/><polygon class="cls-3" points="196.24 154.5 181.19 146.88 218.49 164.98 222.97 167.37 232.23 172.7 231.07 172.35 196.24 154.5"/><path class="cls-1" d="M234,361.42H209l.7-23.84s27.33,13.14,24.19,14.77S234,361.42,234,361.42Z"/><path class="cls-1" d="M201.38,204.95l-60.78.31,2.79-57.05,37.21.62s88.06,33.49,83.72,56.43c-1,5.07,9.23-26.68,12.09-26.36,10.09,1.12,28.84,13,28.84,13L287,177.66l-39.69,27.6Z"/><polygon class="cls-1" points="234.91 304.5 210.26 304.62 209.44 316.07 235.8 330.22 234.91 304.5"/><path class="cls-4" d="M286.07,224.29s25-37.63-39.42-70.43c-20.84-10.61-47.21-22.33-77-37.21-15.41-7.71,18.66,21.72,15.7,21.67-8.9-.17-2.79,2.79-2.79,2.79l67.91,32.71,22.79,34.65Z"/><path class="cls-4" d="M259.44,388.51s10-9.07,8.6-25.81c-.91-10.92-12.56-24-39.77-38.6-20.61-11-25.35-12.79-55.35-29.07-15.15-8.22,7.38,16.8,4.42,16.74-8.9-.17,30.7,15.58,30.7,15.58l28.72,15.54,14.87,22.6,4.43,12.74Z"/><path class="cls-1" d="M157.64,51.07c15.11-.76,31,8.37,29.35,20.32-.59,4.3-5.7,4.75-11.91,4.73-16.46,0-30.22,26,4,44.46,27.14,14.6,59.55,27.16,84.16,44.71,25.3,18,39.25,43.13,14.07,75.31-3.75,4.79-23.59,16.76-28.6,19.77-7.53-4.74-2.19-23-10.43-26.76a90.27,90.27,0,0,0,17.84-12.23c15.91-14.31,6.89-28.33-6.54-37.91-28-20-64-32.63-94.7-50.77-20.38-12-30.32-32.62-29.23-47.59C127.41,61.49,142.87,51.81,157.64,51.07Zm42.5,213.72c-3.66,2.23-3.56,11.17-7,14-12.19,9.91-6,25.1,6.18,31.4,18.61,9.65,35.4,16.79,52.39,30.16,10.38,8.17,17.45,16.72,16.18,29-.91,8.81-5.49,22.46-25.26,35-3.07,1.94-7.54.29-3.21-4.51,22.91-25.39,9.09-38.14.49-44.25-14.77-10.5-34.68-19.05-51.21-27.37-28.31-14.24-35.57-42-9.89-62.88,1.35-1.1,20.48,1.63,20.39-6.12C206.81,263.13,192,261.27,200.14,264.79Z"/><polygon class="cls-1" points="251.77 274.56 236.42 248.51 230.68 227.12 252.09 226.13 251.77 274.56"/><rect class="cls-1" x="213.16" y="209.91" width="16.74" height="88.37"/><polygon class="cls-1" points="204.48 255.49 163.71 257.35 163.71 282.62 203.55 282.62 204.48 255.49"/><polygon class="cls-5" points="230.68 362.31 213.63 362.31 213.47 363.08 230.68 363.24 230.68 362.31"/><polygon class="cls-5" points="230.53 205.26 213.47 205.26 213.32 206.03 230.53 206.19 230.53 205.26"/><rect class="cls-2" x="140.84" y="164.87" width="68.84" height="40"/><rect class="cls-1" x="195.95" y="354.64" width="9.77" height="6.82"/><path class="cls-1" d="M191.77,174.56c-16.46,0-12.6,2.94-18.6,30.7-7.44,34.42,53.33,40,78.49,47.49,29.79,8.86,39.64,46.36,13.07,70.27-4.52,4.07-25.62-9.29-20.19-14.18,15.91-14.31,11.73-29.16-11.52-37.22-40-13.85-60.68-11.76-82.17-42.17-24.65-34.88,26.17-65.31,40.93-66"/><polygon class="cls-1" points="219.52 204.64 75.8 204.17 106.19 150.37 198.74 161.07 219.52 204.64"/><polygon class="cls-1" points="227.16 321.65 282.93 337.19 288.55 304.6 227.16 304.6 227.16 321.65"/></svg>