<svg width="32" height="32" xmlns="http://www.w3.org/2000/svg">

 <g>
  <title>background</title>
  <rect fill="none" id="canvas_background" height="402" width="582" y="-1" x="-1"/>
 </g>
 <g>
  <title>Layer 1</title>
  <path id="svg_1" fill="#757575" d="m25,16c1.489,0 2.891,0.368 4.128,1.008c1.775,-1.804 2.872,-4.277 2.872,-7.008c0,-2.761 -1.119,-5.26 -2.929,-7.07c-1.81,-1.811 -4.31,-2.93 -7.071,-2.93c-5.523,0 -10,4.477 -10,10c0,1.194 0.22,2.334 0.604,3.396l-12.604,12.604l0,6l6,0l0,-4l4,0l0,-4l4,0l0,-4l3.518,0c1.614,-2.411 4.362,-4 7.482,-4zm-5.292,-10.779c1.757,-1.757 4.765,-1.599 6.717,0.354c1.953,1.953 2.111,4.96 0.354,6.718c-0.586,0.586 -1.456,0.665 -1.945,0.177l-5.303,-5.304c-0.488,-0.488 -0.409,-1.359 0.177,-1.945z"/>
  <path id="svg_2" fill="#008E3D" d="m25,18c-3.85,0 -7,3.15 -7,7s3.15,7 7,7s7,-3.15 7,-7s-3.15,-7 -7,-7zm1,8l0,4l-2,0l0,-4l-4,0l0,-2l4,0l0,-4l2,0l0,4l4,0l0,2l-4,0z"/>
 </g>
</svg>