<?xml version="1.0" ?><!DOCTYPE svg  PUBLIC '-//W3C//DTD SVG 1.1//EN'  'http://www.w3.org/Graphics/SVG/1.1/DTD/svg11.dtd'><svg enable-background="new 0 0 32 32" height="32px" id="Layer_1" version="1.1" viewBox="0 0 32 32" width="32px" xml:space="preserve" xmlns="http://www.w3.org/2000/svg" xmlns:xlink="http://www.w3.org/1999/xlink"><g><path d="M29.071,2.93L29.071,2.93C27.261,1.119,24.761,0,22,0c-5.523,0-10,4.477-10,10   c0,1.194,0.22,2.334,0.604,3.396L0,26v6h6v-4h4v-4h4v-4h4l0.604-0.604C19.666,19.78,20.806,20,22,20c5.523,0,10-4.477,10-10   C32,7.239,30.881,4.74,29.071,2.93z M26.779,12.293c-0.586,0.586-1.456,0.665-1.945,0.177l-5.303-5.304   c-0.488-0.488-0.409-1.359,0.177-1.945c1.757-1.757,4.765-1.599,6.717,0.354l0,0C28.378,7.528,28.536,10.535,26.779,12.293z" fill="#F89F2A"/></g><g><path d="M24,16c-4.4,0-8,3.6-8,8s3.6,8,8,8s8-3.6,8-8S28.4,16,24,16z" fill="#1FB79A"/><polygon fill="#EEEEEE" points="25,23 25,18 24,18 24,30 25,30 25,25 30,25 30,23  "/><polygon fill="#EEEEEE" points="23,18 23,23 18,23 18,25 23,25 23,30 24,30 24,18  "/></g></svg>