<?xml version="1.0" ?><!DOCTYPE svg  PUBLIC '-//W3C//DTD SVG 1.1//EN'  'http://www.w3.org/Graphics/SVG/1.1/DTD/svg11.dtd'><svg enable-background="new 0 0 512 512" height="512px" id="Layer_1" version="1.1" viewBox="0 0 512 512" width="512px" xml:space="preserve" xmlns="http://www.w3.org/2000/svg" xmlns:xlink="http://www.w3.org/1999/xlink"><g id="Layer_10"><g><g><polygon fill="#828586" points="408,216 104,216 176,40 256,56 336,40    "/></g><g><path d="M480,232c0,0-152,48-224,48S32,232,32,232v-16h448V232z" fill="#828586"/></g><g><polygon fill="#5C5D5E" points="400,200 112,200 136,136 376,136    "/></g><g><circle cx="336" cy="352" fill="#5C5D5E" r="56"/></g><g><circle cx="336" cy="352" fill="#828586" r="40"/></g><g><path d="M368,336c0,8.826-7.164,16-16,16c-8.828,0-16-7.174-16-16c0-8.828,7.172-16,16-16     C360.836,320,368,327.172,368,336z" fill="#D3D7D9"/></g><g><circle cx="176" cy="352" fill="#5C5D5E" r="56"/></g><g><circle cx="176" cy="352" fill="#828586" r="40"/></g><g><g><path d="M296,352h-16c0-13.234-10.766-24-24-24c-13.234,0-24,10.766-24,24h-16c0-22.057,17.945-40,40-40      C278.055,312,296,329.945,296,352z" fill="#5C5D5E"/></g></g><polygon fill="#5C5D5E" points="296,424 256,440 216,424 168,456 168,472 216,456 256,472 296,456 344,472 344,456   "/><g><path d="M208,336c0,8.826-7.164,16-16,16c-8.828,0-16-7.174-16-16c0-8.828,7.172-16,16-16     C200.836,320,208,327.172,208,336z" fill="#D3D7D9"/></g></g></g><g id="Layer_1_1_"/></svg>