<?xml version="1.0" encoding="utf-8"?>
<!-- Generator: Adobe Illustrator 18.1.0, SVG Export Plug-In . SVG Version: 6.00 Build 0)  -->
<svg version="1.1" id="Layer_1" xmlns="http://www.w3.org/2000/svg" xmlns:xlink="http://www.w3.org/1999/xlink" x="0px" y="0px"
	 viewBox="-230 322 150 150" enable-background="new -230 322 150 150" xml:space="preserve">
<circle fill="#CFDE63" cx="-155" cy="397" r="75"/>
<path fill="#998359" d="M-118,375.3h-78.2c-2.4,0-4.4,0.5-4.4,2.4c0,3.6,4.4,3.6,4.4,3.6h82.2v-1.9
	C-114,377.1-115.8,375.3-118,375.3z"/>
<g>
	<polygon fill="#398741" points="-148.3,384.2 -153.9,354.4 -195.9,362.2 -191.8,384.2 	"/>
	<path fill="#40A749" d="M-174.1,384.2c1.2-0.5,2.5-0.9,3.9-1.1c4-0.8,8-0.3,11.5,1.1h6.1l-3.6-19.3c-2.8-0.6-5.2-2.3-6.8-4.6
		l-22.3,4.2c-0.6,2.8-2.3,5.2-4.6,6.8l2.4,13L-174.1,384.2L-174.1,384.2z M-172.6,370.5c1.4-0.3,2.8,0.7,3,2.1
		c0.3,1.4-0.7,2.8-2.1,3c-1.4,0.3-2.8-0.7-3-2.1C-175,372.2-174,370.8-172.6,370.5z"/>
</g>
<g>
	<polygon fill="#398741" points="-137.8,384.2 -143.1,343.2 -185.4,348.6 -180.8,384.2 	"/>
	<path fill="#40A749" d="M-146,353.5c-2.7-0.7-5.1-2.6-6.5-5l-22.5,2.9c-0.7,2.7-2.6,5.1-5,6.5l3.1,24.2c3-5.9,8.8-10.2,15.9-11.1
		c7.1-0.9,13.8,1.8,18.2,6.8L-146,353.5z M-162,363.4c-1.4,0.2-2.7-0.8-2.9-2.3c-0.2-1.4,0.8-2.7,2.3-2.9c1.4-0.2,2.7,0.8,2.9,2.2
		C-159.6,361.9-160.6,363.2-162,363.4z"/>
</g>
<g>
	<polygon fill="#398741" points="-120.7,384.2 -113.2,357.5 -154.4,346 -165,384.2 	"/>
	<path fill="#40A749" d="M-140.6,376.1c4.9,1.4,8.8,4.3,11.5,8.2h4l5.1-18.3c-2.2-1.7-3.7-4.3-4-7.1l-21.9-6.1
		c-1.7,2.2-4.3,3.7-7.1,4l-6.5,23.5C-154.4,375.9-147.4,374.2-140.6,376.1z M-140.3,365.6c0.4-1.4,1.8-2.2,3.2-1.8
		c1.4,0.4,2.2,1.8,1.8,3.2c-0.4,1.4-1.8,2.2-3.2,1.8C-139.9,368.4-140.7,366.9-140.3,365.6z"/>
</g>
<path fill="#B99E65" d="M-115,379.7h-81.2c-2,0-4.4-0.8-4.4-2.4v60.6c0,2,2.1,3.2,4.4,3.2h81.2c2.2,0,4-1.8,4-4v-53.4
	C-111,381.5-112.8,379.7-115,379.7z"/>
<polygon opacity="0.1" fill="#231F20" enable-background="new    " points="-119.4,379.7 -119,378.2 -192.9,378.2 -192.6,379.7 "/>
<g>
	<rect x="-170" y="384.2" fill="#998359" width="4.5" height="1"/>
	<rect x="-157" y="384.2" fill="#998359" width="4.5" height="1"/>
	<rect x="-163.5" y="384.2" fill="#998359" width="4.5" height="1"/>
	<rect x="-189.4" y="435.6" fill="#998359" width="4.5" height="1"/>
	<rect x="-182.9" y="384.2" fill="#998359" width="4.5" height="1"/>
	<rect x="-176.5" y="384.2" fill="#998359" width="4.5" height="1"/>
	<rect x="-182.9" y="435.6" fill="#998359" width="4.5" height="1"/>
	<rect x="-189.4" y="384.2" fill="#998359" width="4.5" height="1"/>
	<rect x="-195.9" y="384.2" fill="#998359" width="4.5" height="1"/>
	<rect x="-150.6" y="384.2" fill="#998359" width="4.5" height="1"/>
	<rect x="-137.6" y="384.2" fill="#998359" width="4.5" height="1"/>
	<rect x="-131.2" y="384.2" fill="#998359" width="4.5" height="1"/>
	<rect x="-144.1" y="384.2" fill="#998359" width="4.5" height="1"/>
	<rect x="-144.1" y="435.6" fill="#998359" width="4.5" height="1"/>
	<rect x="-124.7" y="435.6" fill="#998359" width="4.5" height="1"/>
	<rect x="-124.7" y="384.2" fill="#998359" width="4.5" height="1"/>
	<path fill="#998359" d="M-200.5,433.9L-200.5,433.9l0,1.4c0.5,0.4,1.4,0.9,2.6,1.1v-1C-200,435-200.5,433.9-200.5,433.9z"/>
	<path fill="#998359" d="M-200.5,382.3v1.6c0.5,0.5,1.4,0.9,2.6,1.2v-1C-200,383.6-200.5,382.4-200.5,382.3z"/>
	<rect x="-116.5" y="427.6" fill="#998359" width="1" height="4.5"/>
	<polygon fill="#998359" points="-116.5,435.6 -118.2,435.6 -118.2,436.6 -115.5,436.6 -115.5,434 -116.5,434 	"/>
	<polygon fill="#998359" points="-115.5,384.2 -118.2,384.2 -118.2,385.2 -116.5,385.2 -116.5,386.7 -115.5,386.7 	"/>
	<rect x="-116.5" y="395.2" fill="#998359" width="1" height="4.5"/>
	<rect x="-116.5" y="421.1" fill="#998359" width="1" height="4.5"/>
	<rect x="-116.5" y="401.7" fill="#998359" width="1" height="4.5"/>
	<rect x="-116.5" y="388.7" fill="#998359" width="1" height="4.5"/>
	<rect x="-116.5" y="414.6" fill="#998359" width="1" height="4.5"/>
	<rect x="-116.5" y="408.2" fill="#998359" width="1" height="4.5"/>
	<path fill="#998359" d="M-195.9,435.6v1c0,0,0.1,0,0.1,0h4.4v-1L-195.9,435.6C-195.8,435.6-195.9,435.6-195.9,435.6z"/>
	<rect x="-157" y="435.6" fill="#998359" width="4.5" height="1"/>
	<rect x="-163.5" y="435.6" fill="#998359" width="4.5" height="1"/>
	<rect x="-176.5" y="435.6" fill="#998359" width="4.5" height="1"/>
	<rect x="-170" y="435.6" fill="#998359" width="4.5" height="1"/>
	<rect x="-131.2" y="435.6" fill="#998359" width="4.5" height="1"/>
	<rect x="-137.6" y="435.6" fill="#998359" width="4.5" height="1"/>
	<rect x="-150.6" y="435.6" fill="#998359" width="4.5" height="1"/>
</g>
<g opacity="8.000000e-02">
	<path fill="#231F20" d="M-115,379.7h-40.8v61.4h40.8c2.2,0,4-1.8,4-4v-53.4C-111,381.5-112.8,379.7-115,379.7z"/>
</g>
<path opacity="8.000000e-02" fill="#231F20" enable-background="new    " d="M-122.2,404.5c-4.4,0-8,3.6-8,8c0,4.4,3.6,8,8,8h11.2
	v-16H-122.2z"/>
<path fill="#806F4E" d="M-122.2,402.5c-4.4,0-8,3.6-8,8c0,4.4,3.6,8,8,8h12.7v-16H-122.2z"/>
<circle fill="#D9DFE3" cx="-122.3" cy="410.5" r="4.1"/>
<path fill="#BAC4CB" d="M-120.1,407c0.4,0.6,0.7,1.4,0.7,2.2c0,2.3-1.8,4.1-4.1,4.1c-0.8,0-1.6-0.2-2.2-0.7c0.7,1.1,2,1.9,3.5,1.9
	c2.3,0,4.1-1.8,4.1-4.1C-118.2,409-119,407.8-120.1,407z"/>
</svg>
