<?xml version="1.0" ?><svg viewBox="0 0 23.71 19.65" xmlns="http://www.w3.org/2000/svg"><title/><g data-name="Camada 2" id="Camada_2"><g data-name="Camada 1" id="Camada_1-2"><path d="M23.66,6.06a.48.48,0,0,0,0-.21s0,0,0,0a.5.5,0,0,0-.08-.22v0L20,.39a.47.47,0,0,0,0-.12A.5.5,0,0,0,19.49,0H4.28a.49.49,0,0,0-.2.06h0A.46.46,0,0,0,4,.14a.44.44,0,0,0-.08.07L.09,5.57v0A.5.5,0,0,0,0,5.82H0a.49.49,0,0,0,0,.23s0,0,0,0l0,0a.44.44,0,0,0,0,.07L11.88,19.48l0,0,0,0H12l.05,0h.06l.13,0h0l.15,0h0l.06,0,0,0h0l0,0h0l0,0,0,0,11-13.29a.44.44,0,0,0,0-.06l0,0S23.66,6.07,23.66,6.06ZM11.85,1.37l2.82,4H9l1.72-2.44Zm3.2,5-2.85,11-3.45-11Zm-4,10.7L1.61,6.36H7.7Zm5-10.7h6.06L13.3,17.09Zm.58-1,2.79-4,2.79,4ZM18.46,1,15.67,5,12.88,1ZM9.17,3.44,8.07,5,5.69,1.62,5.25,1h5.64ZM4.28,1.37,6.67,4.74l.44.62H1.46Z"/></g></g></svg>