<?xml version="1.0" ?><!DOCTYPE svg  PUBLIC '-//W3C//DTD SVG 1.1//EN'  'http://www.w3.org/Graphics/SVG/1.1/DTD/svg11.dtd'><svg enable-background="new 0 0 128 128" height="128px" id="Layer_1" version="1.1" viewBox="0 0 128 128" width="128px" xml:space="preserve" xmlns="http://www.w3.org/2000/svg" xmlns:xlink="http://www.w3.org/1999/xlink"><path d="M64.011,0C48.71,0,36.318,12.405,36.318,27.696c0,15.28,12.392,27.68,27.693,27.68c15.291,0,27.674-12.4,27.674-27.68  C91.685,12.406,79.302,0,64.011,0z"/><path d="M114.728,96.761c-0.008-0.287-0.056-1.162-0.065-1.313c-0.228-2.64-0.906-5.197-1.979-7.642  c-3.297-7.52-10.356-13.953-19.722-18.328c0.414,2.535,0.66,5.312,0.438,7.892c-0.363,4.301-0.734,7.196-1.11,9.17  c2.817,1.338,4.978,3.375,6.418,6.103c3.142,5.955,1.979,13.7,0.878,18.114c0.833,0.91,1.348,2.115,1.348,3.445  c0,2.812-2.283,5.094-5.097,5.094c-2.812,0-5.093-2.28-5.093-5.094c0-2.478,1.763-4.531,4.104-4.996  c0.893-3.74,1.774-9.873-0.537-14.252c-0.928-1.744-2.295-3.033-4.133-3.912c-0.037-0.019-0.064-0.035-0.102-0.058  c-0.695-0.315-1.45-0.588-2.281-0.793c-3.105-0.772-5.716-0.395-7.997,1.156c-3.884,2.644-6.11,8.338-7.157,12.367  c1.188,0.934,1.949,2.371,1.949,3.996c0,2.818-2.283,5.1-5.095,5.1s-5.093-2.28-5.093-5.1c0-2.18,1.379-4.041,3.312-4.766  c1.082-4.394,3.677-11.883,9.289-15.705c3.084-2.098,6.612-2.82,10.505-2.172c0.268-1.574,0.604-4.094,0.949-8.121  c0.271-3.184-0.332-6.854-0.997-9.711c-0.235-0.082-0.478-0.158-0.715-0.24c-1.361-0.457-2.752-0.881-4.181-1.258  c-5.752-1.521-12.01-2.361-18.563-2.361c-6.554,0-12.812,0.842-18.564,2.361c-1.432,0.379-2.828,0.803-4.193,1.264  c-0.005-0.006-0.011-0.01-0.016-0.016c-0.003,0.008-0.006,0.016-0.009,0.022c-0.968,2.517-2.571,7.892-2.571,15.925  c0,3.123,0.346,5.713,0.848,7.862c0.439-0.053,0.878-0.096,1.328-0.096c5.634,0,10.192,4.562,10.192,10.192  c0,5.627-4.559,10.189-10.192,10.189c-5.624,0-10.189-4.562-10.189-10.189c0-3.393,1.663-6.387,4.212-8.24  c-0.695-2.655-1.167-5.875-1.167-9.719c0-5.742,0.749-10.271,1.593-13.563c-9.479,4.377-16.629,10.854-19.954,18.437  c-1.072,2.442-1.751,5.002-1.978,7.641c-0.011,0.154-0.059,1.027-0.067,1.313c-0.007,0.224-0.025,0.935-0.025,1V120  c0,4.418,3.582,8,8,8h85.504c4.418,0,8-3.582,8-8V97.761C114.753,97.694,114.733,96.983,114.728,96.761z"/></svg>