<?xml version="1.0" ?><svg viewBox="0 0 23.62 23.38" xmlns="http://www.w3.org/2000/svg"><defs><style>.cls-1{fill:none;stroke:currentColor;stroke-linecap:round;stroke-linejoin:round;}</style></defs><title/><g data-name="Layer 2" id="Layer_2"><g data-name="Layer 2" id="Layer_2-2"><line class="cls-1" x1="11.8" x2="11.8" y1="0.5" y2="2.15"/><line class="cls-1" x1="10.5" x2="12.8" y1="1.2" y2="2.88"/><line class="cls-1" x1="13.12" x2="10.8" y1="1.2" y2="2.88"/><line class="cls-1" x1="11.8" x2="11.8" y1="20.5" y2="22.15"/><line class="cls-1" x1="10.5" x2="12.8" y1="21.2" y2="22.88"/><line class="cls-1" x1="13.12" x2="10.8" y1="21.2" y2="22.88"/><line class="cls-1" x1="21.8" x2="21.8" y1="10.5" y2="12.15"/><line class="cls-1" x1="20.5" x2="22.8" y1="11.2" y2="12.88"/><line class="cls-1" x1="23.12" x2="20.8" y1="11.2" y2="12.88"/><line class="cls-1" x1="1.8" x2="1.8" y1="10.5" y2="12.15"/><line class="cls-1" x1="0.5" x2="2.8" y1="11.2" y2="12.88"/><line class="cls-1" x1="3.12" x2="0.8" y1="11.2" y2="12.88"/><line class="cls-1" x1="4.8" x2="4.8" y1="3.5" y2="5.15"/><line class="cls-1" x1="3.5" x2="5.8" y1="4.2" y2="5.88"/><line class="cls-1" x1="6.12" x2="3.8" y1="4.2" y2="5.88"/><line class="cls-1" x1="18.8" x2="18.8" y1="3.5" y2="5.15"/><line class="cls-1" x1="17.5" x2="19.8" y1="4.2" y2="5.88"/><line class="cls-1" x1="20.12" x2="17.8" y1="4.2" y2="5.88"/><line class="cls-1" x1="18.8" x2="18.8" y1="17.5" y2="19.15"/><line class="cls-1" x1="17.5" x2="19.8" y1="18.2" y2="19.88"/><line class="cls-1" x1="20.12" x2="17.8" y1="18.2" y2="19.88"/><line class="cls-1" x1="4.8" x2="4.8" y1="17.5" y2="19.15"/><line class="cls-1" x1="3.5" x2="5.8" y1="18.2" y2="19.88"/><line class="cls-1" x1="6.12" x2="3.8" y1="18.2" y2="19.88"/><path d="M5.05,12.22h0c0-1.32.73-2.39,1.73-2.39a1.47,1.47,0,0,1,1.13.45.54.54,0,0,1,.16.41c0,.27-.17.5-.36.5a.3.3,0,0,1-.23-.11,1,1,0,0,0-.72-.31c-.53,0-1,.65-1,1.44h0c0,.85.42,1.47,1,1.47a1,1,0,0,0,.69-.28v-.66H7c-.18,0-.32-.19-.32-.44s.14-.44.32-.44h.83c.2,0,.36.22.36.51v1.12a.8.8,0,0,1-.25.65,1.78,1.78,0,0,1-1.16.46C5.76,14.6,5.05,13.59,5.05,12.22Z"/><path d="M8.91,10.41c0-.29.16-.51.36-.51h.93c1,0,1.76,1,1.76,2.3h0c0,1.3-.72,2.31-1.76,2.31H9.27c-.2,0-.36-.22-.36-.51ZM10.2,13.6c.59,0,1-.56,1-1.38h0c0-.82-.41-1.39-1-1.39H9.63V13.6Z"/><path d="M12.61,10.41c0-.29.16-.51.36-.51h1c.79,0,1.27.65,1.27,1.6h0c0,1.07-.6,1.62-1.34,1.62h-.55v.92c0,.29-.16.51-.37.51s-.36-.22-.36-.51Zm1.3,1.82c.37,0,.58-.3.58-.7h0c0-.46-.23-.7-.59-.7h-.56v1.41Z"/><path d="M15.77,10.41c0-.29.16-.51.37-.51h1.15a1.11,1.11,0,0,1,1,.47,1.81,1.81,0,0,1,.28,1.05v0a1.49,1.49,0,0,1-.66,1.4l.51.86a.75.75,0,0,1,.12.39c0,.29-.17.47-.35.47a.43.43,0,0,1-.36-.26L17.08,13H16.5v1c0,.29-.16.51-.36.51s-.37-.22-.37-.51Zm1.47,1.73c.35,0,.56-.26.56-.65h0c0-.44-.22-.66-.58-.66H16.5v1.32Z"/></g></g></svg>