<?xml version="1.0" ?><!DOCTYPE svg  PUBLIC '-//W3C//DTD SVG 1.1//EN'  'http://www.w3.org/Graphics/SVG/1.1/DTD/svg11.dtd'><svg enable-background="new 0 0 128 128" height="128px" id="Layer_1" version="1.1" viewBox="0 0 128 128" width="128px" xml:space="preserve" xmlns="http://www.w3.org/2000/svg" xmlns:xlink="http://www.w3.org/1999/xlink"><g><path d="M107.488,12H90.332l3.197,8h12.291v100h-78V20h12.292l3.197-8H26.154c-3.484,0-6.333,2.834-6.333,6.299v103.396   c0,3.471,2.85,6.305,6.333,6.305h81.334c3.48,0,6.332-2.834,6.332-6.305V18.299C113.82,14.834,110.971,12,107.488,12z"/><path d="M89.336,20.286L89.223,20l-3.092-7.732c-0.037-0.092-0.093-0.178-0.137-0.268c-0.917-1.917-3.246-3.447-5.348-3.447h-1.024   c-2.2,0-5.015-1.487-6.255-3.304l-1.328-1.946C70.799,1.487,68.451,0,66.822,0s-3.977,1.487-5.218,3.304L60.276,5.25   c-1.241,1.817-4.055,3.304-6.255,3.304h-1.027c-2.102,0-4.431,1.53-5.349,3.447c-0.043,0.09-0.1,0.176-0.136,0.268L44.419,20   l-0.114,0.286C43.488,22.329,44.62,24,46.82,24h40C89.021,24,90.152,22.329,89.336,20.286z M63.821,10.996   C63.821,9.344,65.164,8,66.818,8c1.656,0,3.002,1.344,3.002,2.996c0,0.354-0.072,0.688-0.186,1.004   c-0.414,1.162-1.515,1.998-2.816,1.998c-1.301,0-2.398-0.836-2.813-1.998C63.893,11.685,63.821,11.35,63.821,10.996z"/><rect height="6" width="56" x="38.82" y="36"/><rect height="6" width="56" x="38.82" y="50"/><polygon points="71,64 63,64 63,72 55,72 55,80 63,80 63,88 71,88 71,80 79,80 79,72 71,72  "/></g></svg>