<?xml version="1.0" ?><svg version="1.1" viewBox="0 0 60 60" xmlns="http://www.w3.org/2000/svg" xmlns:xlink="http://www.w3.org/1999/xlink"><g><path d="M4,11.8599h-3h-4.37114e-08c-0.552285,-2.41411e-08 -1,-0.447715 -1,-1c2.41411e-08,-0.552285 0.447715,-1 1,-1h3l-4.94126e-08,4.9333e-11c0.552056,-0.000551203 0.999449,-0.447944 1,-1v-7.85986l1.42109e-14,1.50996e-07c-8.33927e-08,-0.552285 0.447715,-1 1,-1c0.552285,-8.33927e-08 1,0.447715 1,1c0,0 0,7.10543e-15 0,7.10543e-15v7.85986l-9.39139e-10,8.60258e-07c-0.00180819,1.6561 -1.3439,2.99819 -3,3Z" transform="translate(36, 46.1401)"/><path d="M6,11.8599h-3l5.93973e-08,6.48299e-11c-1.6561,-0.00180768 -2.99819,-1.3439 -3,-3v-7.85986l1.06581e-14,1.50996e-07c-8.33927e-08,-0.552285 0.447715,-1 1,-1c0.552285,-8.33927e-08 1,0.447715 1,1c0,0 0,7.10543e-15 0,7.10543e-15v7.85986l-2.17737e-08,-2.20496e-05c0.000539069,0.552056 0.447922,0.999459 0.999978,1.00002h3h-4.37114e-08c0.552285,-2.41411e-08 1,0.447715 1,1c2.41411e-08,0.552285 -0.447715,1 -1,1Z" transform="translate(17, 46.1401)"/><path d="M6.55956,12.3077l3.49884e-08,3.52216e-11c-0.519643,-0.000523097 -0.952209,-0.399131 -0.99512,-0.917l-0.67969,-8.17969l-7.66577e-09,-8.5622e-08c-0.05803,-0.648159 -0.630509,-1.12655 -1.27867,-1.06852c-0.56977,0.0510118 -1.02059,0.503896 -1.06899,1.07389l-0.5,6.01416l-2.263e-08,2.79839e-07c-0.0444969,0.55024 -0.526626,0.960226 -1.07687,0.915729c-0.55024,-0.0444969 -0.960226,-0.526626 -0.915729,-1.07687c0.000131116,-0.00162136 0.00026619,-0.0032424 0.000405221,-0.0048631l0.5,-6.01953l-4.29298e-08,5.01969e-07c0.14955,-1.74866 1.68836,-3.045 3.43702,-2.89545c1.53919,0.131636 2.76074,1.35111 2.89498,2.89008l0.67969,8.18506l3.54452e-08,4.24303e-07c0.0459672,0.55026 -0.362832,1.0336 -0.91309,1.07959c-0.0282695,0.00244022 -0.0565695,0.00341022 -0.0839395,0.00341022Z" transform="translate(35.2891, -0.137767)"/><path d="M13,4h-10l5.93973e-08,6.48299e-11c-1.6561,-0.00180768 -2.99819,-1.3439 -3,-3l1.06581e-14,1.50996e-07c-8.33927e-08,-0.552285 0.447715,-1 1,-1c0.552285,-8.33927e-08 1,0.447715 1,1c0,0 0,7.10543e-15 0,7.10543e-15l-2.17737e-08,-2.20496e-05c0.000539069,0.552056 0.447922,0.999459 0.999978,1.00002h10l-4.94126e-08,4.9333e-11c0.552056,-0.000551203 0.999449,-0.447944 1,-1l1.42109e-14,1.50996e-07c-8.33927e-08,-0.552285 0.447715,-1 1,-1c0.552285,-8.33927e-08 1,0.447715 1,1c0,0 0,7.10543e-15 0,7.10543e-15l-1.17434e-09,1.07575e-06c-0.00180819,1.6561 -1.3439,2.99819 -3,3Z" transform="translate(22, 56)"/><path d="M16,48l-5.69196e-08,-9.31237e-11c-2.68175,-0.00438689 -5.30404,-0.790532 -7.5459,-2.26221l8.12888e-07,5.34829e-07c-2.31742,-1.52472 -4.17056,-3.65777 -5.35645,-6.16553l8.28162e-09,1.73876e-08c-1.50947,-3.1692 -1.96496,-6.73834 -1.2998,-10.1851l4.10013e-07,5.46113e-07c-1.16657,-1.55381 -1.79745,-3.44421 -1.79785,-5.3872v-14l1.14926e-08,-1.00413e-05c0.00632087,-5.52023 4.47978,-9.99368 10,-9.99999h12c0.13965,0 0.27832,0.00146 0.418,0.01367l3.31099e-07,1.2481e-08c2.24264,0.0845377 4.38941,0.931259 6.08594,2.40039l-5.79376e-07,-4.94685e-07c2.2195,1.89506 3.49719,4.66748 3.49606,7.58594v14l1.88263e-07,-0.00183837c0,1.943 -0.630489,3.83353 -1.79675,5.38758l6.52575e-07,3.38077e-06c0.665607,3.44828 0.209054,7.01911 -1.30273,10.189l4.96248e-07,-1.04954e-06c-1.18506,2.50636 -3.03724,4.63811 -5.35352,6.16162l-5.54202e-07,3.63958e-07c-2.24202,1.47239 -4.86474,2.25904 -7.547,2.26364Zm-12.1582,-18.6221l-3.88101e-07,1.75623e-06c-0.226567,1.02526 -0.341172,2.07208 -0.3418,3.12207l-1.12169e-08,4.84256e-06c-0.00497241,2.14684 0.473317,4.26727 1.39941,6.2041l1.25111e-07,2.65245e-07c1.02762,2.17864 2.63519,4.03233 4.64649,5.35789l5.12506e-07,3.30816e-07c3.92902,2.53613 8.97918,2.53613 12.9082,-6.61632e-07l-1.3935e-07,9.18079e-08c2.01016,-1.32436 3.61676,-3.17676 4.64355,-5.354l2.09557e-07,-4.37559e-07c0.927992,-1.93767 1.40732,-4.05958 1.40235,-6.208l5.74263e-07,0.0014523c-0.000362939,-1.05118 -0.115192,-2.0992 -0.342456,-3.12552l5.65379e-11,2.40412e-10c-0.0180639,-0.0768176 -0.0272375,-0.155457 -0.02734,-0.23437v-0.00293l-3.83049e-08,-4.40968e-05c-3.70204e-05,-0.0437685 0.00290171,-0.0874889 0.00879586,-0.130859l-1.84641e-09,1.41833e-08c0.0249166,-0.191399 0.10346,-0.371847 0.22656,-0.52051l-2.22679e-07,2.65154e-07c1.05561,-1.25696 1.63433,-2.8458 1.63444,-4.48722v-14l1.84641e-07,0.000100717c-0.00785405,-4.29892 -3.40728,-7.82535 -7.70302,-7.99082c-0.136821,-0.0102839 -0.220811,-0.00977388 -0.296981,-0.00928388h-12l-4.04533e-07,4.62908e-10c-4.41618,0.00505359 -7.99495,3.58382 -8,8v14l6.217e-08,0.000187281c0.000566765,1.64098 0.579435,3.22928 1.63489,4.4858l-7.13421e-09,-8.46223e-09c0.0693281,0.0822334 0.125034,0.175043 0.165,0.2749l4.52519e-09,1.13679e-08c0.046385,0.116525 0.0702434,0.240792 0.07031,0.36621v0.01318l1.24509e-08,2.04709e-05c4.78824e-05,0.0800683 -0.00948838,0.159854 -0.0284053,0.237656Z" transform="translate(14, 8)"/><path d="M11.998,30.7876l-1.79463e-07,2.54381e-10c-1.53967,0.00218244 -3.03752,-0.500932 -4.26367,-1.43213c-0.32324,-0.25049 -0.65039,-0.50586 -0.9873,-0.78174l1.42915e-06,1.16366e-06c-1.09247,-0.889527 -2.11411,-1.86267 -3.05566,-2.91064c-2.44821,-2.74365 -3.69137,-5.49121 -3.69137,-8.16308v-10.5l-1.7407e-07,0.000150608c0.00442457,-3.86412 3.13573,-6.99556 6.99985,-7.00015h10.0002l7.75191e-08,9.04308e-11c3.86412,0.00450765 6.99549,3.13588 7,7v10.5c0,2.67187 -1.24316,5.41943 -3.69434,8.166l1.5081e-07,-1.67866e-07c-0.939272,1.0455 -1.95828,2.01652 -3.04785,2.9043c-0.3418,0.2793 -0.66895,0.53467 -0.98535,0.77979l5.42262e-08,-4.12179e-08c-1.22903,0.934196 -2.73069,1.43921 -4.27446,1.4375Zm-4.998,-28.7876l-6.61229e-09,7.77334e-12c-2.76008,0.00324564 -4.99675,2.23992 -5,5v10.5c0,2.166 1.07227,4.46533 3.18652,6.834l5.49205e-07,6.11307e-07c0.872115,0.970731 1.81867,1.8719 2.83105,2.69531c0.31836,0.26074 0.63184,0.50488 0.93457,0.73975l-1.0703e-07,-8.08369e-08c1.80615,1.36413 4.29879,1.36194 6.10254,-0.00536984c0.2959,-0.22949 0.60938,-0.47363 0.93262,-0.73779l-3.80794e-07,3.0995e-07c1.00947,-0.821666 1.9534,-1.72072 2.82323,-2.68899c2.1172,-2.37158 3.18947,-4.6709 3.18947,-6.83691v-10.5l1.7894e-07,0.00015419c-0.00316063,-2.76008 -2.23977,-4.99682 -4.99985,-5.00015Z" transform="translate(18, 12.2002)"/><path d="M8,16l-3.49691e-07,-7.10543e-15c-4.41828,-1.93129e-07 -8,-3.58172 -8,-8c1.93129e-07,-4.41828 3.58172,-8 8,-8c4.41828,1.93129e-07 8,3.58172 8,8l-7.28274e-09,6.36201e-06c-0.00505707,4.41618 -3.58382,7.99494 -8.00001,7.99999Zm0,-14l-2.62268e-07,7.10543e-15c-3.31371,1.44847e-07 -6,2.68629 -6,6c1.44847e-07,3.31371 2.68629,6 6,6c3.31371,-1.44847e-07 6,-2.68629 6,-6l-1.59208e-09,-1.45834e-06c-0.00361637,-3.31221 -2.68779,-5.99638 -6,-6Z" transform="translate(22, 17)"/><path d="M6,6h-4l3.01874e-08,3.45075e-11c-1.10405,-0.00126195 -1.99874,-0.895954 -2,-2v-2l4.58037e-09,-4.00369e-06c0.00126417,-1.10405 0.895958,-1.99874 2,-2h4l3.34583e-08,3.82414e-11c1.10405,0.00126199 1.99874,0.895954 2,2v2l-4.73509e-09,4.13875e-06c-0.00126427,1.10405 -0.89596,1.99874 -2.00001,2Zm-4,-4v2h4.001l-0.001,-2Z" transform="translate(26, 22)"/><path d="M1.0037,2.08008l-1.30898e-08,1.27244e-10c-0.546968,0.00531672 -0.994683,-0.433778 -1,-0.980746c-6.23824e-05,-0.00641771 -6.23823e-05,-0.0128359 2.76788e-10,-0.0192536l1.69376e-08,6.00628e-07c-0.00370362,-0.131333 0.023738,-0.261678 0.0800797,-0.38037l-1.52686e-08,3.64407e-08c0.0507098,-0.121026 0.121732,-0.232494 0.21,-0.32959l3.5197e-08,-3.24905e-08c0.40095,-0.370118 1.01897,-0.370118 1.41992,6.49809e-08l8.5836e-09,9.4421e-09c0.0882676,0.0970958 0.15929,0.208564 0.21,0.32959l-1.57357e-08,-3.69205e-08c0.0512883,0.120337 0.0784684,0.249568 0.0800003,0.380369l3.21834e-08,3.3115e-06c0.0053149,0.546968 -0.433782,0.994682 -0.98075,0.999997c-0.00641771,6.2361e-05 -0.0128359,6.23395e-05 -0.0192536,-6.44002e-08Z" transform="translate(21.9963, 42.9199)"/><path d="M1.02677,2.02086l-3.06179e-08,-8.31584e-10c-0.0671286,-0.00182322 -0.134037,-0.00850735 -0.200199,-0.0199999l-3.70605e-08,-6.59393e-09c-0.0625121,-0.0111224 -0.123054,-0.031358 -0.17969,-0.06006l-9.46973e-09,-3.25124e-09c-0.0639615,-0.02196 -0.124715,-0.0523368 -0.18066,-0.09033c-0.0498005,-0.0396101 -0.0996105,-0.0796101 -0.14945,-0.11961l3.38508e-08,3.58373e-08c-0.0903618,-0.0956648 -0.161637,-0.207695 -0.21,-0.33008l3.29078e-08,7.464e-08c-0.10677,-0.242171 -0.10677,-0.518079 -6.58156e-08,-0.76025l-1.04461e-08,2.8113e-08c0.0458847,-0.123488 0.117463,-0.235827 0.21,-0.32959l-9.71171e-08,8.86232e-08c0.0472492,-0.0431168 0.0971498,-0.083235 0.149409,-0.12012l-4.05073e-08,2.75093e-08c0.0559449,-0.0379932 0.116698,-0.0683701 0.18066,-0.09033l-5.05072e-08,2.57054e-08c0.0565744,-0.0287932 0.117165,-0.0488959 0.179731,-0.0596307l-6.16318e-08,1.29252e-08c0.194854,-0.040864 0.397598,-0.0200438 0.58008,0.05957l-3.17316e-08,-1.33512e-08c0.121147,0.050973 0.23277,0.122125 0.33012,0.21043l2.33557e-08,2.31638e-08c0.392132,0.38891 0.394743,1.02207 0.00583255,1.4142c-0.189188,0.190755 -0.447175,0.297361 -0.715832,0.295799Z" transform="translate(24.9732, 44.9791)"/><path d="M1.09672,2.04721l-3.06179e-08,-8.31584e-10c-0.0671286,-0.00182322 -0.134037,-0.00850735 -0.200199,-0.0199999l-3.70605e-08,-6.59393e-09c-0.0625121,-0.0111224 -0.123054,-0.031358 -0.17969,-0.06006l-9.46973e-09,-3.25124e-09c-0.0639615,-0.02196 -0.124715,-0.0523368 -0.18066,-0.09033l-6.41201e-08,-4.50241e-08c-0.0522705,-0.0367036 -0.102186,-0.0766521 -0.14945,-0.11961l-7.17617e-08,-7.31707e-08c-0.38672,-0.394313 -0.38672,-1.02561 1.43523e-07,-1.41992l0.14941,-0.12012l-4.05073e-08,2.75093e-08c0.0559449,-0.0379932 0.116698,-0.0683701 0.18066,-0.09033l2.82651e-09,-1.43852e-09c0.0565741,-0.0287929 0.117165,-0.0488952 0.17973,-0.0596299l-5.08938e-08,1.03834e-08c0.32942,-0.0672084 0.670679,0.0340264 0.91016,0.27l1.46504e-08,1.45301e-08c0.392131,0.388911 0.394742,1.02207 0.00583187,1.4142c-0.189178,0.190745 -0.447148,0.29735 -0.715792,0.295798Z" transform="translate(26.9033, 47.9528)"/><path d="M1.1161,2.12996l-2.76906e-08,-1.96771e-10c-0.26513,-0.00188404 -0.519367,-0.105727 -0.71,-0.29l9.72753e-08,9.53913e-08c-0.399821,-0.392077 -0.406099,-1.03404 -0.0140211,-1.43386c0.392077,-0.399821 1.03404,-0.406099 1.43386,-0.0140211c0.399821,0.392077 0.406099,1.03404 0.0140211,1.43386c-0.190669,0.194435 -0.451536,0.303999 -0.723859,0.304021Z" transform="translate(22.8839, 47.87)"/><path d="M1.00006,2.10474l-1.30898e-08,1.27244e-10c-0.546968,0.00531672 -0.994683,-0.433778 -1,-0.980746c-6.23824e-05,-0.00641771 -6.23823e-05,-0.0128359 2.76792e-10,-0.0192536l-2.67183e-08,4.37944e-06c0.00161728,-0.265183 0.105498,-0.519515 0.289997,-0.710001l-5.4502e-08,5.49539e-08c0.388909,-0.392133 1.02207,-0.394747 1.4142,-0.00583851c0.190757,0.189188 0.297364,0.447176 0.295802,0.715835l5.02907e-08,-2.23115e-06c-0.00151036,0.0670096 -0.00836867,0.133792 -0.0205096,0.19971l-1.77375e-08,1.06133e-07c-0.0104891,0.0627619 -0.0305813,0.123534 -0.05957,0.18018l-3.04639e-09,9.36065e-09c-0.0199745,0.0613756 -0.0503649,0.118855 -0.08984,0.16992c-0.04,0.06006 -0.08008,0.10986 -0.12012,0.16016l-1.72871e-08,1.64339e-08c-0.191849,0.182381 -0.445288,0.285915 -0.70996,0.290033Z" transform="translate(34.9999, 47.8953)"/><path d="M1.09668,2.02033l2.94439e-09,3.62519e-11c-0.130643,-0.00160881 -0.259704,-0.0288152 -0.37988,-0.08008l-6.78037e-09,-2.68387e-09c-0.122351,-0.0484299 -0.234369,-0.119697 -0.33008,-0.21l-7.17617e-08,-7.31707e-08c-0.38672,-0.394313 -0.38672,-1.02561 1.43523e-07,-1.41992l3.43743e-08,-3.25892e-08c0.0955647,-0.0906018 0.207614,-0.162041 0.33008,-0.21045l4.38665e-08,-1.93864e-08c0.178846,-0.0790393 0.378007,-0.0998776 0.56934,-0.05957l4.80457e-08,6.67122e-09c0.0663294,0.00920996 0.130676,0.0293388 0.19043,0.05957l-4.83098e-08,-1.57699e-08c0.0614382,0.0200554 0.118931,0.0506187 0.16992,0.09033c0.05957,0.04 0.11035,0.08008 0.16016,0.12012l8.5836e-09,9.4421e-09c0.0882676,0.0970958 0.15929,0.208564 0.21,0.32959l1.37792e-08,3.23231e-08c0.0513037,0.120348 0.078494,0.249592 0.0800299,0.38041l3.21834e-08,3.3115e-06c0.0053149,0.546968 -0.433782,0.994682 -0.98075,0.999997c-0.00641771,6.2361e-05 -0.0128359,6.23395e-05 -0.0192536,-6.44002e-08Z" transform="translate(30.9033, 47.9797)"/><path d="M1.02677,2.08004l-3.24308e-08,-4.79595e-10c-0.26472,-0.00391476 -0.518238,-0.107464 -0.71,-0.29l5.0366e-08,5.54969e-08c-0.0882781,-0.0972712 -0.159299,-0.208902 -0.21,-0.33008l3.29078e-08,7.464e-08c-0.10677,-0.242171 -0.10677,-0.518079 -6.58156e-08,-0.76025l-1.52686e-08,3.64407e-08c0.0507098,-0.121026 0.121732,-0.232494 0.21,-0.32959l3.35778e-08,-3.09963e-08c0.400948,-0.370123 1.01897,-0.370123 1.41992,6.19926e-08l8.5836e-09,9.4421e-09c0.0882676,0.0970958 0.15929,0.208564 0.21,0.32959l1.83228e-09,4.15589e-09c0.10677,0.242171 0.10677,0.518079 -3.66456e-09,0.76025l-3.25018e-08,7.76806e-08c-0.0507013,0.121178 -0.121722,0.232809 -0.21,0.33008l3.5712e-09,-3.39464e-09c-0.191844,0.182359 -0.445266,0.285881 -0.70992,0.29Z" transform="translate(35.9732, 42.92)"/><path d="M0.986026,1.98611l1.15147e-08,1.12863e-10c-0.546968,-0.00536104 -0.986026,-0.453112 -0.980665,-1.00008c0.00536104,-0.546968 0.453112,-0.986026 1.00008,-0.980665c0.546968,0.00536104 0.986026,0.453112 0.980665,1.00008c-0.0025417,0.259321 -0.106693,0.5073 -0.290079,0.690665c-0.0498,0.04 -0.10059,0.08008 -0.16016,0.11963l1.6651e-08,-1.29681e-08c-0.0509891,0.0397113 -0.108482,0.0702746 -0.16992,0.09033l1.5184e-08,-7.65925e-09c-0.0598164,0.0301732 -0.124126,0.0504559 -0.19043,0.06006l7.31995e-08,-1.34332e-08c-0.0625616,0.011481 -0.12591,0.0181605 -0.18949,0.01998Z" transform="translate(33.014, 45.0139)"/><path d="M0.986026,1.98611l1.15147e-08,1.12863e-10c-0.546968,-0.00536104 -0.986026,-0.453112 -0.980665,-1.00008c0.00536104,-0.546968 0.453112,-0.986026 1.00008,-0.980665c0.546968,0.00536104 0.986026,0.453112 0.980665,1.00008c-0.0025417,0.259321 -0.106693,0.5073 -0.290079,0.690665l-2.58657e-08,2.46212e-08c-0.191762,0.182536 -0.44528,0.286085 -0.71,0.29Z" transform="translate(29.014, 45.0139)"/></g></svg>